%TF.GenerationSoftware,KiCad,Pcbnew,9.0.7*%
%TF.CreationDate,2026-02-11T10:04:32-05:00*%
%TF.ProjectId,BitCrusher,42697443-7275-4736-9865-722e6b696361,0.1*%
%TF.SameCoordinates,Original*%
%TF.FileFunction,Drillmap*%
%TF.FilePolarity,Positive*%
%FSLAX45Y45*%
G04 Gerber Fmt 4.5, Leading zero omitted, Abs format (unit mm)*
G04 Created by KiCad (PCBNEW 9.0.7) date 2026-02-11 10:04:32*
%MOMM*%
%LPD*%
G01*
G04 APERTURE LIST*
%ADD10C,0.200000*%
%ADD11C,0.320000*%
%ADD12C,0.360000*%
G04 APERTURE END LIST*
D10*
X24063448Y-6000000D02*
X24042500Y-11700000D01*
X23425000Y-12325000D01*
X17317500Y-12325000D01*
X15642500Y-14000000D01*
X6550000Y-14000000D01*
X5892500Y-13300000D01*
X5892500Y-6050000D01*
X6550000Y-5375000D01*
X23425000Y-5375000D01*
X24063448Y-6000000D01*
X6917500Y-7595000D02*
X7117500Y-7795000D01*
X7117500Y-7595000D02*
X6917500Y-7795000D01*
X6917500Y-8605000D02*
X7117500Y-8805000D01*
X7117500Y-8605000D02*
X6917500Y-8805000D01*
D11*
X6810000Y-6050000D02*
G75*
G02*
X6490000Y-6050000I-160000J0D01*
G01*
X6490000Y-6050000D02*
G75*
G02*
X6810000Y-6050000I160000J0D01*
G01*
X15560000Y-13500000D02*
G75*
G02*
X15240000Y-13500000I-160000J0D01*
G01*
X15240000Y-13500000D02*
G75*
G02*
X15560000Y-13500000I160000J0D01*
G01*
X23110000Y-6050000D02*
G75*
G02*
X22790000Y-6050000I-160000J0D01*
G01*
X22790000Y-6050000D02*
G75*
G02*
X23110000Y-6050000I160000J0D01*
G01*
X23110000Y-11650000D02*
G75*
G02*
X22790000Y-11650000I-160000J0D01*
G01*
X22790000Y-11650000D02*
G75*
G02*
X23110000Y-11650000I160000J0D01*
G01*
D12*
X21300000Y-6320000D02*
X21300000Y-6680000D01*
X21120000Y-6500000D02*
X21480000Y-6500000D01*
D10*
X6143277Y-14321484D02*
X6143277Y-14121484D01*
X6143277Y-14121484D02*
X6190896Y-14121484D01*
X6190896Y-14121484D02*
X6219467Y-14131008D01*
X6219467Y-14131008D02*
X6238515Y-14150055D01*
X6238515Y-14150055D02*
X6248039Y-14169103D01*
X6248039Y-14169103D02*
X6257562Y-14207198D01*
X6257562Y-14207198D02*
X6257562Y-14235769D01*
X6257562Y-14235769D02*
X6248039Y-14273865D01*
X6248039Y-14273865D02*
X6238515Y-14292912D01*
X6238515Y-14292912D02*
X6219467Y-14311960D01*
X6219467Y-14311960D02*
X6190896Y-14321484D01*
X6190896Y-14321484D02*
X6143277Y-14321484D01*
X6343277Y-14321484D02*
X6343277Y-14188150D01*
X6343277Y-14226246D02*
X6352801Y-14207198D01*
X6352801Y-14207198D02*
X6362324Y-14197674D01*
X6362324Y-14197674D02*
X6381372Y-14188150D01*
X6381372Y-14188150D02*
X6400420Y-14188150D01*
X6467086Y-14321484D02*
X6467086Y-14188150D01*
X6467086Y-14121484D02*
X6457562Y-14131008D01*
X6457562Y-14131008D02*
X6467086Y-14140531D01*
X6467086Y-14140531D02*
X6476610Y-14131008D01*
X6476610Y-14131008D02*
X6467086Y-14121484D01*
X6467086Y-14121484D02*
X6467086Y-14140531D01*
X6590896Y-14321484D02*
X6571848Y-14311960D01*
X6571848Y-14311960D02*
X6562324Y-14292912D01*
X6562324Y-14292912D02*
X6562324Y-14121484D01*
X6695658Y-14321484D02*
X6676610Y-14311960D01*
X6676610Y-14311960D02*
X6667086Y-14292912D01*
X6667086Y-14292912D02*
X6667086Y-14121484D01*
X6924229Y-14321484D02*
X6924229Y-14121484D01*
X6924229Y-14121484D02*
X6990896Y-14264341D01*
X6990896Y-14264341D02*
X7057562Y-14121484D01*
X7057562Y-14121484D02*
X7057562Y-14321484D01*
X7238515Y-14321484D02*
X7238515Y-14216722D01*
X7238515Y-14216722D02*
X7228991Y-14197674D01*
X7228991Y-14197674D02*
X7209943Y-14188150D01*
X7209943Y-14188150D02*
X7171848Y-14188150D01*
X7171848Y-14188150D02*
X7152801Y-14197674D01*
X7238515Y-14311960D02*
X7219467Y-14321484D01*
X7219467Y-14321484D02*
X7171848Y-14321484D01*
X7171848Y-14321484D02*
X7152801Y-14311960D01*
X7152801Y-14311960D02*
X7143277Y-14292912D01*
X7143277Y-14292912D02*
X7143277Y-14273865D01*
X7143277Y-14273865D02*
X7152801Y-14254817D01*
X7152801Y-14254817D02*
X7171848Y-14245293D01*
X7171848Y-14245293D02*
X7219467Y-14245293D01*
X7219467Y-14245293D02*
X7238515Y-14235769D01*
X7333753Y-14188150D02*
X7333753Y-14388150D01*
X7333753Y-14197674D02*
X7352801Y-14188150D01*
X7352801Y-14188150D02*
X7390896Y-14188150D01*
X7390896Y-14188150D02*
X7409943Y-14197674D01*
X7409943Y-14197674D02*
X7419467Y-14207198D01*
X7419467Y-14207198D02*
X7428991Y-14226246D01*
X7428991Y-14226246D02*
X7428991Y-14283388D01*
X7428991Y-14283388D02*
X7419467Y-14302436D01*
X7419467Y-14302436D02*
X7409943Y-14311960D01*
X7409943Y-14311960D02*
X7390896Y-14321484D01*
X7390896Y-14321484D02*
X7352801Y-14321484D01*
X7352801Y-14321484D02*
X7333753Y-14311960D01*
X7514705Y-14302436D02*
X7524229Y-14311960D01*
X7524229Y-14311960D02*
X7514705Y-14321484D01*
X7514705Y-14321484D02*
X7505182Y-14311960D01*
X7505182Y-14311960D02*
X7514705Y-14302436D01*
X7514705Y-14302436D02*
X7514705Y-14321484D01*
X7514705Y-14197674D02*
X7524229Y-14207198D01*
X7524229Y-14207198D02*
X7514705Y-14216722D01*
X7514705Y-14216722D02*
X7505182Y-14207198D01*
X7505182Y-14207198D02*
X7514705Y-14197674D01*
X7514705Y-14197674D02*
X7514705Y-14216722D01*
X5682500Y-14550000D02*
X5882500Y-14750000D01*
X5882500Y-14550000D02*
X5682500Y-14750000D01*
X6133753Y-14560531D02*
X6143277Y-14551008D01*
X6143277Y-14551008D02*
X6162324Y-14541484D01*
X6162324Y-14541484D02*
X6209943Y-14541484D01*
X6209943Y-14541484D02*
X6228991Y-14551008D01*
X6228991Y-14551008D02*
X6238515Y-14560531D01*
X6238515Y-14560531D02*
X6248039Y-14579579D01*
X6248039Y-14579579D02*
X6248039Y-14598627D01*
X6248039Y-14598627D02*
X6238515Y-14627198D01*
X6238515Y-14627198D02*
X6124229Y-14741484D01*
X6124229Y-14741484D02*
X6248039Y-14741484D01*
X6333753Y-14722436D02*
X6343277Y-14731960D01*
X6343277Y-14731960D02*
X6333753Y-14741484D01*
X6333753Y-14741484D02*
X6324229Y-14731960D01*
X6324229Y-14731960D02*
X6333753Y-14722436D01*
X6333753Y-14722436D02*
X6333753Y-14741484D01*
X6467086Y-14541484D02*
X6486134Y-14541484D01*
X6486134Y-14541484D02*
X6505182Y-14551008D01*
X6505182Y-14551008D02*
X6514705Y-14560531D01*
X6514705Y-14560531D02*
X6524229Y-14579579D01*
X6524229Y-14579579D02*
X6533753Y-14617674D01*
X6533753Y-14617674D02*
X6533753Y-14665293D01*
X6533753Y-14665293D02*
X6524229Y-14703388D01*
X6524229Y-14703388D02*
X6514705Y-14722436D01*
X6514705Y-14722436D02*
X6505182Y-14731960D01*
X6505182Y-14731960D02*
X6486134Y-14741484D01*
X6486134Y-14741484D02*
X6467086Y-14741484D01*
X6467086Y-14741484D02*
X6448039Y-14731960D01*
X6448039Y-14731960D02*
X6438515Y-14722436D01*
X6438515Y-14722436D02*
X6428991Y-14703388D01*
X6428991Y-14703388D02*
X6419467Y-14665293D01*
X6419467Y-14665293D02*
X6419467Y-14617674D01*
X6419467Y-14617674D02*
X6428991Y-14579579D01*
X6428991Y-14579579D02*
X6438515Y-14560531D01*
X6438515Y-14560531D02*
X6448039Y-14551008D01*
X6448039Y-14551008D02*
X6467086Y-14541484D01*
X6657562Y-14541484D02*
X6676610Y-14541484D01*
X6676610Y-14541484D02*
X6695658Y-14551008D01*
X6695658Y-14551008D02*
X6705182Y-14560531D01*
X6705182Y-14560531D02*
X6714705Y-14579579D01*
X6714705Y-14579579D02*
X6724229Y-14617674D01*
X6724229Y-14617674D02*
X6724229Y-14665293D01*
X6724229Y-14665293D02*
X6714705Y-14703388D01*
X6714705Y-14703388D02*
X6705182Y-14722436D01*
X6705182Y-14722436D02*
X6695658Y-14731960D01*
X6695658Y-14731960D02*
X6676610Y-14741484D01*
X6676610Y-14741484D02*
X6657562Y-14741484D01*
X6657562Y-14741484D02*
X6638515Y-14731960D01*
X6638515Y-14731960D02*
X6628991Y-14722436D01*
X6628991Y-14722436D02*
X6619467Y-14703388D01*
X6619467Y-14703388D02*
X6609943Y-14665293D01*
X6609943Y-14665293D02*
X6609943Y-14617674D01*
X6609943Y-14617674D02*
X6619467Y-14579579D01*
X6619467Y-14579579D02*
X6628991Y-14560531D01*
X6628991Y-14560531D02*
X6638515Y-14551008D01*
X6638515Y-14551008D02*
X6657562Y-14541484D01*
X6848039Y-14541484D02*
X6867086Y-14541484D01*
X6867086Y-14541484D02*
X6886134Y-14551008D01*
X6886134Y-14551008D02*
X6895658Y-14560531D01*
X6895658Y-14560531D02*
X6905182Y-14579579D01*
X6905182Y-14579579D02*
X6914705Y-14617674D01*
X6914705Y-14617674D02*
X6914705Y-14665293D01*
X6914705Y-14665293D02*
X6905182Y-14703388D01*
X6905182Y-14703388D02*
X6895658Y-14722436D01*
X6895658Y-14722436D02*
X6886134Y-14731960D01*
X6886134Y-14731960D02*
X6867086Y-14741484D01*
X6867086Y-14741484D02*
X6848039Y-14741484D01*
X6848039Y-14741484D02*
X6828991Y-14731960D01*
X6828991Y-14731960D02*
X6819467Y-14722436D01*
X6819467Y-14722436D02*
X6809943Y-14703388D01*
X6809943Y-14703388D02*
X6800420Y-14665293D01*
X6800420Y-14665293D02*
X6800420Y-14617674D01*
X6800420Y-14617674D02*
X6809943Y-14579579D01*
X6809943Y-14579579D02*
X6819467Y-14560531D01*
X6819467Y-14560531D02*
X6828991Y-14551008D01*
X6828991Y-14551008D02*
X6848039Y-14541484D01*
X7000420Y-14741484D02*
X7000420Y-14608150D01*
X7000420Y-14627198D02*
X7009943Y-14617674D01*
X7009943Y-14617674D02*
X7028991Y-14608150D01*
X7028991Y-14608150D02*
X7057563Y-14608150D01*
X7057563Y-14608150D02*
X7076610Y-14617674D01*
X7076610Y-14617674D02*
X7086134Y-14636722D01*
X7086134Y-14636722D02*
X7086134Y-14741484D01*
X7086134Y-14636722D02*
X7095658Y-14617674D01*
X7095658Y-14617674D02*
X7114705Y-14608150D01*
X7114705Y-14608150D02*
X7143277Y-14608150D01*
X7143277Y-14608150D02*
X7162324Y-14617674D01*
X7162324Y-14617674D02*
X7171848Y-14636722D01*
X7171848Y-14636722D02*
X7171848Y-14741484D01*
X7267086Y-14741484D02*
X7267086Y-14608150D01*
X7267086Y-14627198D02*
X7276610Y-14617674D01*
X7276610Y-14617674D02*
X7295658Y-14608150D01*
X7295658Y-14608150D02*
X7324229Y-14608150D01*
X7324229Y-14608150D02*
X7343277Y-14617674D01*
X7343277Y-14617674D02*
X7352801Y-14636722D01*
X7352801Y-14636722D02*
X7352801Y-14741484D01*
X7352801Y-14636722D02*
X7362324Y-14617674D01*
X7362324Y-14617674D02*
X7381372Y-14608150D01*
X7381372Y-14608150D02*
X7409943Y-14608150D01*
X7409943Y-14608150D02*
X7428991Y-14617674D01*
X7428991Y-14617674D02*
X7438515Y-14636722D01*
X7438515Y-14636722D02*
X7438515Y-14741484D01*
X7828991Y-14531960D02*
X7657563Y-14789103D01*
X8086134Y-14541484D02*
X8105182Y-14541484D01*
X8105182Y-14541484D02*
X8124229Y-14551008D01*
X8124229Y-14551008D02*
X8133753Y-14560531D01*
X8133753Y-14560531D02*
X8143277Y-14579579D01*
X8143277Y-14579579D02*
X8152801Y-14617674D01*
X8152801Y-14617674D02*
X8152801Y-14665293D01*
X8152801Y-14665293D02*
X8143277Y-14703388D01*
X8143277Y-14703388D02*
X8133753Y-14722436D01*
X8133753Y-14722436D02*
X8124229Y-14731960D01*
X8124229Y-14731960D02*
X8105182Y-14741484D01*
X8105182Y-14741484D02*
X8086134Y-14741484D01*
X8086134Y-14741484D02*
X8067086Y-14731960D01*
X8067086Y-14731960D02*
X8057563Y-14722436D01*
X8057563Y-14722436D02*
X8048039Y-14703388D01*
X8048039Y-14703388D02*
X8038515Y-14665293D01*
X8038515Y-14665293D02*
X8038515Y-14617674D01*
X8038515Y-14617674D02*
X8048039Y-14579579D01*
X8048039Y-14579579D02*
X8057563Y-14560531D01*
X8057563Y-14560531D02*
X8067086Y-14551008D01*
X8067086Y-14551008D02*
X8086134Y-14541484D01*
X8238515Y-14722436D02*
X8248039Y-14731960D01*
X8248039Y-14731960D02*
X8238515Y-14741484D01*
X8238515Y-14741484D02*
X8228991Y-14731960D01*
X8228991Y-14731960D02*
X8238515Y-14722436D01*
X8238515Y-14722436D02*
X8238515Y-14741484D01*
X8371848Y-14541484D02*
X8390896Y-14541484D01*
X8390896Y-14541484D02*
X8409944Y-14551008D01*
X8409944Y-14551008D02*
X8419468Y-14560531D01*
X8419468Y-14560531D02*
X8428991Y-14579579D01*
X8428991Y-14579579D02*
X8438515Y-14617674D01*
X8438515Y-14617674D02*
X8438515Y-14665293D01*
X8438515Y-14665293D02*
X8428991Y-14703388D01*
X8428991Y-14703388D02*
X8419468Y-14722436D01*
X8419468Y-14722436D02*
X8409944Y-14731960D01*
X8409944Y-14731960D02*
X8390896Y-14741484D01*
X8390896Y-14741484D02*
X8371848Y-14741484D01*
X8371848Y-14741484D02*
X8352801Y-14731960D01*
X8352801Y-14731960D02*
X8343277Y-14722436D01*
X8343277Y-14722436D02*
X8333753Y-14703388D01*
X8333753Y-14703388D02*
X8324229Y-14665293D01*
X8324229Y-14665293D02*
X8324229Y-14617674D01*
X8324229Y-14617674D02*
X8333753Y-14579579D01*
X8333753Y-14579579D02*
X8343277Y-14560531D01*
X8343277Y-14560531D02*
X8352801Y-14551008D01*
X8352801Y-14551008D02*
X8371848Y-14541484D01*
X8505182Y-14541484D02*
X8638515Y-14541484D01*
X8638515Y-14541484D02*
X8552801Y-14741484D01*
X8743277Y-14627198D02*
X8724229Y-14617674D01*
X8724229Y-14617674D02*
X8714706Y-14608150D01*
X8714706Y-14608150D02*
X8705182Y-14589103D01*
X8705182Y-14589103D02*
X8705182Y-14579579D01*
X8705182Y-14579579D02*
X8714706Y-14560531D01*
X8714706Y-14560531D02*
X8724229Y-14551008D01*
X8724229Y-14551008D02*
X8743277Y-14541484D01*
X8743277Y-14541484D02*
X8781372Y-14541484D01*
X8781372Y-14541484D02*
X8800420Y-14551008D01*
X8800420Y-14551008D02*
X8809944Y-14560531D01*
X8809944Y-14560531D02*
X8819468Y-14579579D01*
X8819468Y-14579579D02*
X8819468Y-14589103D01*
X8819468Y-14589103D02*
X8809944Y-14608150D01*
X8809944Y-14608150D02*
X8800420Y-14617674D01*
X8800420Y-14617674D02*
X8781372Y-14627198D01*
X8781372Y-14627198D02*
X8743277Y-14627198D01*
X8743277Y-14627198D02*
X8724229Y-14636722D01*
X8724229Y-14636722D02*
X8714706Y-14646246D01*
X8714706Y-14646246D02*
X8705182Y-14665293D01*
X8705182Y-14665293D02*
X8705182Y-14703388D01*
X8705182Y-14703388D02*
X8714706Y-14722436D01*
X8714706Y-14722436D02*
X8724229Y-14731960D01*
X8724229Y-14731960D02*
X8743277Y-14741484D01*
X8743277Y-14741484D02*
X8781372Y-14741484D01*
X8781372Y-14741484D02*
X8800420Y-14731960D01*
X8800420Y-14731960D02*
X8809944Y-14722436D01*
X8809944Y-14722436D02*
X8819468Y-14703388D01*
X8819468Y-14703388D02*
X8819468Y-14665293D01*
X8819468Y-14665293D02*
X8809944Y-14646246D01*
X8809944Y-14646246D02*
X8800420Y-14636722D01*
X8800420Y-14636722D02*
X8781372Y-14627198D01*
X8886134Y-14541484D02*
X9019468Y-14541484D01*
X9019468Y-14541484D02*
X8933753Y-14741484D01*
X9086134Y-14541484D02*
X9086134Y-14579579D01*
X9162325Y-14541484D02*
X9162325Y-14579579D01*
X9457563Y-14817674D02*
X9448039Y-14808150D01*
X9448039Y-14808150D02*
X9428991Y-14779579D01*
X9428991Y-14779579D02*
X9419468Y-14760531D01*
X9419468Y-14760531D02*
X9409944Y-14731960D01*
X9409944Y-14731960D02*
X9400420Y-14684341D01*
X9400420Y-14684341D02*
X9400420Y-14646246D01*
X9400420Y-14646246D02*
X9409944Y-14598627D01*
X9409944Y-14598627D02*
X9419468Y-14570055D01*
X9419468Y-14570055D02*
X9428991Y-14551008D01*
X9428991Y-14551008D02*
X9448039Y-14522436D01*
X9448039Y-14522436D02*
X9457563Y-14512912D01*
X9524230Y-14560531D02*
X9533753Y-14551008D01*
X9533753Y-14551008D02*
X9552801Y-14541484D01*
X9552801Y-14541484D02*
X9600420Y-14541484D01*
X9600420Y-14541484D02*
X9619468Y-14551008D01*
X9619468Y-14551008D02*
X9628991Y-14560531D01*
X9628991Y-14560531D02*
X9638515Y-14579579D01*
X9638515Y-14579579D02*
X9638515Y-14598627D01*
X9638515Y-14598627D02*
X9628991Y-14627198D01*
X9628991Y-14627198D02*
X9514706Y-14741484D01*
X9514706Y-14741484D02*
X9638515Y-14741484D01*
X9876611Y-14741484D02*
X9876611Y-14541484D01*
X9962325Y-14741484D02*
X9962325Y-14636722D01*
X9962325Y-14636722D02*
X9952801Y-14617674D01*
X9952801Y-14617674D02*
X9933753Y-14608150D01*
X9933753Y-14608150D02*
X9905182Y-14608150D01*
X9905182Y-14608150D02*
X9886134Y-14617674D01*
X9886134Y-14617674D02*
X9876611Y-14627198D01*
X10086134Y-14741484D02*
X10067087Y-14731960D01*
X10067087Y-14731960D02*
X10057563Y-14722436D01*
X10057563Y-14722436D02*
X10048039Y-14703388D01*
X10048039Y-14703388D02*
X10048039Y-14646246D01*
X10048039Y-14646246D02*
X10057563Y-14627198D01*
X10057563Y-14627198D02*
X10067087Y-14617674D01*
X10067087Y-14617674D02*
X10086134Y-14608150D01*
X10086134Y-14608150D02*
X10114706Y-14608150D01*
X10114706Y-14608150D02*
X10133753Y-14617674D01*
X10133753Y-14617674D02*
X10143277Y-14627198D01*
X10143277Y-14627198D02*
X10152801Y-14646246D01*
X10152801Y-14646246D02*
X10152801Y-14703388D01*
X10152801Y-14703388D02*
X10143277Y-14722436D01*
X10143277Y-14722436D02*
X10133753Y-14731960D01*
X10133753Y-14731960D02*
X10114706Y-14741484D01*
X10114706Y-14741484D02*
X10086134Y-14741484D01*
X10267087Y-14741484D02*
X10248039Y-14731960D01*
X10248039Y-14731960D02*
X10238515Y-14712912D01*
X10238515Y-14712912D02*
X10238515Y-14541484D01*
X10419468Y-14731960D02*
X10400420Y-14741484D01*
X10400420Y-14741484D02*
X10362325Y-14741484D01*
X10362325Y-14741484D02*
X10343277Y-14731960D01*
X10343277Y-14731960D02*
X10333753Y-14712912D01*
X10333753Y-14712912D02*
X10333753Y-14636722D01*
X10333753Y-14636722D02*
X10343277Y-14617674D01*
X10343277Y-14617674D02*
X10362325Y-14608150D01*
X10362325Y-14608150D02*
X10400420Y-14608150D01*
X10400420Y-14608150D02*
X10419468Y-14617674D01*
X10419468Y-14617674D02*
X10428992Y-14636722D01*
X10428992Y-14636722D02*
X10428992Y-14655769D01*
X10428992Y-14655769D02*
X10333753Y-14674817D01*
X10505182Y-14731960D02*
X10524230Y-14741484D01*
X10524230Y-14741484D02*
X10562325Y-14741484D01*
X10562325Y-14741484D02*
X10581373Y-14731960D01*
X10581373Y-14731960D02*
X10590896Y-14712912D01*
X10590896Y-14712912D02*
X10590896Y-14703388D01*
X10590896Y-14703388D02*
X10581373Y-14684341D01*
X10581373Y-14684341D02*
X10562325Y-14674817D01*
X10562325Y-14674817D02*
X10533753Y-14674817D01*
X10533753Y-14674817D02*
X10514706Y-14665293D01*
X10514706Y-14665293D02*
X10505182Y-14646246D01*
X10505182Y-14646246D02*
X10505182Y-14636722D01*
X10505182Y-14636722D02*
X10514706Y-14617674D01*
X10514706Y-14617674D02*
X10533753Y-14608150D01*
X10533753Y-14608150D02*
X10562325Y-14608150D01*
X10562325Y-14608150D02*
X10581373Y-14617674D01*
X10657563Y-14817674D02*
X10667087Y-14808150D01*
X10667087Y-14808150D02*
X10686134Y-14779579D01*
X10686134Y-14779579D02*
X10695658Y-14760531D01*
X10695658Y-14760531D02*
X10705182Y-14731960D01*
X10705182Y-14731960D02*
X10714706Y-14684341D01*
X10714706Y-14684341D02*
X10714706Y-14646246D01*
X10714706Y-14646246D02*
X10705182Y-14598627D01*
X10705182Y-14598627D02*
X10695658Y-14570055D01*
X10695658Y-14570055D02*
X10686134Y-14551008D01*
X10686134Y-14551008D02*
X10667087Y-14522436D01*
X10667087Y-14522436D02*
X10657563Y-14512912D01*
X11019468Y-14817674D02*
X11009944Y-14808150D01*
X11009944Y-14808150D02*
X10990896Y-14779579D01*
X10990896Y-14779579D02*
X10981373Y-14760531D01*
X10981373Y-14760531D02*
X10971849Y-14731960D01*
X10971849Y-14731960D02*
X10962325Y-14684341D01*
X10962325Y-14684341D02*
X10962325Y-14646246D01*
X10962325Y-14646246D02*
X10971849Y-14598627D01*
X10971849Y-14598627D02*
X10981373Y-14570055D01*
X10981373Y-14570055D02*
X10990896Y-14551008D01*
X10990896Y-14551008D02*
X11009944Y-14522436D01*
X11009944Y-14522436D02*
X11019468Y-14512912D01*
X11095658Y-14608150D02*
X11095658Y-14741484D01*
X11095658Y-14627198D02*
X11105182Y-14617674D01*
X11105182Y-14617674D02*
X11124230Y-14608150D01*
X11124230Y-14608150D02*
X11152801Y-14608150D01*
X11152801Y-14608150D02*
X11171849Y-14617674D01*
X11171849Y-14617674D02*
X11181373Y-14636722D01*
X11181373Y-14636722D02*
X11181373Y-14741484D01*
X11305182Y-14741484D02*
X11286134Y-14731960D01*
X11286134Y-14731960D02*
X11276611Y-14722436D01*
X11276611Y-14722436D02*
X11267087Y-14703388D01*
X11267087Y-14703388D02*
X11267087Y-14646246D01*
X11267087Y-14646246D02*
X11276611Y-14627198D01*
X11276611Y-14627198D02*
X11286134Y-14617674D01*
X11286134Y-14617674D02*
X11305182Y-14608150D01*
X11305182Y-14608150D02*
X11333753Y-14608150D01*
X11333753Y-14608150D02*
X11352801Y-14617674D01*
X11352801Y-14617674D02*
X11362325Y-14627198D01*
X11362325Y-14627198D02*
X11371849Y-14646246D01*
X11371849Y-14646246D02*
X11371849Y-14703388D01*
X11371849Y-14703388D02*
X11362325Y-14722436D01*
X11362325Y-14722436D02*
X11352801Y-14731960D01*
X11352801Y-14731960D02*
X11333753Y-14741484D01*
X11333753Y-14741484D02*
X11305182Y-14741484D01*
X11428992Y-14608150D02*
X11505182Y-14608150D01*
X11457563Y-14541484D02*
X11457563Y-14712912D01*
X11457563Y-14712912D02*
X11467087Y-14731960D01*
X11467087Y-14731960D02*
X11486134Y-14741484D01*
X11486134Y-14741484D02*
X11505182Y-14741484D01*
X11724230Y-14608150D02*
X11724230Y-14808150D01*
X11724230Y-14617674D02*
X11743277Y-14608150D01*
X11743277Y-14608150D02*
X11781373Y-14608150D01*
X11781373Y-14608150D02*
X11800420Y-14617674D01*
X11800420Y-14617674D02*
X11809944Y-14627198D01*
X11809944Y-14627198D02*
X11819468Y-14646246D01*
X11819468Y-14646246D02*
X11819468Y-14703388D01*
X11819468Y-14703388D02*
X11809944Y-14722436D01*
X11809944Y-14722436D02*
X11800420Y-14731960D01*
X11800420Y-14731960D02*
X11781373Y-14741484D01*
X11781373Y-14741484D02*
X11743277Y-14741484D01*
X11743277Y-14741484D02*
X11724230Y-14731960D01*
X11933753Y-14741484D02*
X11914706Y-14731960D01*
X11914706Y-14731960D02*
X11905182Y-14712912D01*
X11905182Y-14712912D02*
X11905182Y-14541484D01*
X12095658Y-14741484D02*
X12095658Y-14636722D01*
X12095658Y-14636722D02*
X12086134Y-14617674D01*
X12086134Y-14617674D02*
X12067087Y-14608150D01*
X12067087Y-14608150D02*
X12028992Y-14608150D01*
X12028992Y-14608150D02*
X12009944Y-14617674D01*
X12095658Y-14731960D02*
X12076611Y-14741484D01*
X12076611Y-14741484D02*
X12028992Y-14741484D01*
X12028992Y-14741484D02*
X12009944Y-14731960D01*
X12009944Y-14731960D02*
X12000420Y-14712912D01*
X12000420Y-14712912D02*
X12000420Y-14693865D01*
X12000420Y-14693865D02*
X12009944Y-14674817D01*
X12009944Y-14674817D02*
X12028992Y-14665293D01*
X12028992Y-14665293D02*
X12076611Y-14665293D01*
X12076611Y-14665293D02*
X12095658Y-14655769D01*
X12162325Y-14608150D02*
X12238515Y-14608150D01*
X12190896Y-14541484D02*
X12190896Y-14712912D01*
X12190896Y-14712912D02*
X12200420Y-14731960D01*
X12200420Y-14731960D02*
X12219468Y-14741484D01*
X12219468Y-14741484D02*
X12238515Y-14741484D01*
X12381373Y-14731960D02*
X12362325Y-14741484D01*
X12362325Y-14741484D02*
X12324230Y-14741484D01*
X12324230Y-14741484D02*
X12305182Y-14731960D01*
X12305182Y-14731960D02*
X12295658Y-14712912D01*
X12295658Y-14712912D02*
X12295658Y-14636722D01*
X12295658Y-14636722D02*
X12305182Y-14617674D01*
X12305182Y-14617674D02*
X12324230Y-14608150D01*
X12324230Y-14608150D02*
X12362325Y-14608150D01*
X12362325Y-14608150D02*
X12381373Y-14617674D01*
X12381373Y-14617674D02*
X12390896Y-14636722D01*
X12390896Y-14636722D02*
X12390896Y-14655769D01*
X12390896Y-14655769D02*
X12295658Y-14674817D01*
X12562325Y-14741484D02*
X12562325Y-14541484D01*
X12562325Y-14731960D02*
X12543277Y-14741484D01*
X12543277Y-14741484D02*
X12505182Y-14741484D01*
X12505182Y-14741484D02*
X12486134Y-14731960D01*
X12486134Y-14731960D02*
X12476611Y-14722436D01*
X12476611Y-14722436D02*
X12467087Y-14703388D01*
X12467087Y-14703388D02*
X12467087Y-14646246D01*
X12467087Y-14646246D02*
X12476611Y-14627198D01*
X12476611Y-14627198D02*
X12486134Y-14617674D01*
X12486134Y-14617674D02*
X12505182Y-14608150D01*
X12505182Y-14608150D02*
X12543277Y-14608150D01*
X12543277Y-14608150D02*
X12562325Y-14617674D01*
X12638515Y-14817674D02*
X12648039Y-14808150D01*
X12648039Y-14808150D02*
X12667087Y-14779579D01*
X12667087Y-14779579D02*
X12676611Y-14760531D01*
X12676611Y-14760531D02*
X12686134Y-14731960D01*
X12686134Y-14731960D02*
X12695658Y-14684341D01*
X12695658Y-14684341D02*
X12695658Y-14646246D01*
X12695658Y-14646246D02*
X12686134Y-14598627D01*
X12686134Y-14598627D02*
X12676611Y-14570055D01*
X12676611Y-14570055D02*
X12667087Y-14551008D01*
X12667087Y-14551008D02*
X12648039Y-14522436D01*
X12648039Y-14522436D02*
X12638515Y-14512912D01*
X5882500Y-14970000D02*
G75*
G02*
X5682500Y-14970000I-100000J0D01*
G01*
X5682500Y-14970000D02*
G75*
G02*
X5882500Y-14970000I100000J0D01*
G01*
X6124229Y-14861484D02*
X6248039Y-14861484D01*
X6248039Y-14861484D02*
X6181372Y-14937674D01*
X6181372Y-14937674D02*
X6209943Y-14937674D01*
X6209943Y-14937674D02*
X6228991Y-14947198D01*
X6228991Y-14947198D02*
X6238515Y-14956722D01*
X6238515Y-14956722D02*
X6248039Y-14975769D01*
X6248039Y-14975769D02*
X6248039Y-15023388D01*
X6248039Y-15023388D02*
X6238515Y-15042436D01*
X6238515Y-15042436D02*
X6228991Y-15051960D01*
X6228991Y-15051960D02*
X6209943Y-15061484D01*
X6209943Y-15061484D02*
X6152801Y-15061484D01*
X6152801Y-15061484D02*
X6133753Y-15051960D01*
X6133753Y-15051960D02*
X6124229Y-15042436D01*
X6333753Y-15042436D02*
X6343277Y-15051960D01*
X6343277Y-15051960D02*
X6333753Y-15061484D01*
X6333753Y-15061484D02*
X6324229Y-15051960D01*
X6324229Y-15051960D02*
X6333753Y-15042436D01*
X6333753Y-15042436D02*
X6333753Y-15061484D01*
X6419467Y-14880531D02*
X6428991Y-14871008D01*
X6428991Y-14871008D02*
X6448039Y-14861484D01*
X6448039Y-14861484D02*
X6495658Y-14861484D01*
X6495658Y-14861484D02*
X6514705Y-14871008D01*
X6514705Y-14871008D02*
X6524229Y-14880531D01*
X6524229Y-14880531D02*
X6533753Y-14899579D01*
X6533753Y-14899579D02*
X6533753Y-14918627D01*
X6533753Y-14918627D02*
X6524229Y-14947198D01*
X6524229Y-14947198D02*
X6409943Y-15061484D01*
X6409943Y-15061484D02*
X6533753Y-15061484D01*
X6657562Y-14861484D02*
X6676610Y-14861484D01*
X6676610Y-14861484D02*
X6695658Y-14871008D01*
X6695658Y-14871008D02*
X6705182Y-14880531D01*
X6705182Y-14880531D02*
X6714705Y-14899579D01*
X6714705Y-14899579D02*
X6724229Y-14937674D01*
X6724229Y-14937674D02*
X6724229Y-14985293D01*
X6724229Y-14985293D02*
X6714705Y-15023388D01*
X6714705Y-15023388D02*
X6705182Y-15042436D01*
X6705182Y-15042436D02*
X6695658Y-15051960D01*
X6695658Y-15051960D02*
X6676610Y-15061484D01*
X6676610Y-15061484D02*
X6657562Y-15061484D01*
X6657562Y-15061484D02*
X6638515Y-15051960D01*
X6638515Y-15051960D02*
X6628991Y-15042436D01*
X6628991Y-15042436D02*
X6619467Y-15023388D01*
X6619467Y-15023388D02*
X6609943Y-14985293D01*
X6609943Y-14985293D02*
X6609943Y-14937674D01*
X6609943Y-14937674D02*
X6619467Y-14899579D01*
X6619467Y-14899579D02*
X6628991Y-14880531D01*
X6628991Y-14880531D02*
X6638515Y-14871008D01*
X6638515Y-14871008D02*
X6657562Y-14861484D01*
X6848039Y-14861484D02*
X6867086Y-14861484D01*
X6867086Y-14861484D02*
X6886134Y-14871008D01*
X6886134Y-14871008D02*
X6895658Y-14880531D01*
X6895658Y-14880531D02*
X6905182Y-14899579D01*
X6905182Y-14899579D02*
X6914705Y-14937674D01*
X6914705Y-14937674D02*
X6914705Y-14985293D01*
X6914705Y-14985293D02*
X6905182Y-15023388D01*
X6905182Y-15023388D02*
X6895658Y-15042436D01*
X6895658Y-15042436D02*
X6886134Y-15051960D01*
X6886134Y-15051960D02*
X6867086Y-15061484D01*
X6867086Y-15061484D02*
X6848039Y-15061484D01*
X6848039Y-15061484D02*
X6828991Y-15051960D01*
X6828991Y-15051960D02*
X6819467Y-15042436D01*
X6819467Y-15042436D02*
X6809943Y-15023388D01*
X6809943Y-15023388D02*
X6800420Y-14985293D01*
X6800420Y-14985293D02*
X6800420Y-14937674D01*
X6800420Y-14937674D02*
X6809943Y-14899579D01*
X6809943Y-14899579D02*
X6819467Y-14880531D01*
X6819467Y-14880531D02*
X6828991Y-14871008D01*
X6828991Y-14871008D02*
X6848039Y-14861484D01*
X7000420Y-15061484D02*
X7000420Y-14928150D01*
X7000420Y-14947198D02*
X7009943Y-14937674D01*
X7009943Y-14937674D02*
X7028991Y-14928150D01*
X7028991Y-14928150D02*
X7057563Y-14928150D01*
X7057563Y-14928150D02*
X7076610Y-14937674D01*
X7076610Y-14937674D02*
X7086134Y-14956722D01*
X7086134Y-14956722D02*
X7086134Y-15061484D01*
X7086134Y-14956722D02*
X7095658Y-14937674D01*
X7095658Y-14937674D02*
X7114705Y-14928150D01*
X7114705Y-14928150D02*
X7143277Y-14928150D01*
X7143277Y-14928150D02*
X7162324Y-14937674D01*
X7162324Y-14937674D02*
X7171848Y-14956722D01*
X7171848Y-14956722D02*
X7171848Y-15061484D01*
X7267086Y-15061484D02*
X7267086Y-14928150D01*
X7267086Y-14947198D02*
X7276610Y-14937674D01*
X7276610Y-14937674D02*
X7295658Y-14928150D01*
X7295658Y-14928150D02*
X7324229Y-14928150D01*
X7324229Y-14928150D02*
X7343277Y-14937674D01*
X7343277Y-14937674D02*
X7352801Y-14956722D01*
X7352801Y-14956722D02*
X7352801Y-15061484D01*
X7352801Y-14956722D02*
X7362324Y-14937674D01*
X7362324Y-14937674D02*
X7381372Y-14928150D01*
X7381372Y-14928150D02*
X7409943Y-14928150D01*
X7409943Y-14928150D02*
X7428991Y-14937674D01*
X7428991Y-14937674D02*
X7438515Y-14956722D01*
X7438515Y-14956722D02*
X7438515Y-15061484D01*
X7828991Y-14851960D02*
X7657563Y-15109103D01*
X8086134Y-14861484D02*
X8105182Y-14861484D01*
X8105182Y-14861484D02*
X8124229Y-14871008D01*
X8124229Y-14871008D02*
X8133753Y-14880531D01*
X8133753Y-14880531D02*
X8143277Y-14899579D01*
X8143277Y-14899579D02*
X8152801Y-14937674D01*
X8152801Y-14937674D02*
X8152801Y-14985293D01*
X8152801Y-14985293D02*
X8143277Y-15023388D01*
X8143277Y-15023388D02*
X8133753Y-15042436D01*
X8133753Y-15042436D02*
X8124229Y-15051960D01*
X8124229Y-15051960D02*
X8105182Y-15061484D01*
X8105182Y-15061484D02*
X8086134Y-15061484D01*
X8086134Y-15061484D02*
X8067086Y-15051960D01*
X8067086Y-15051960D02*
X8057563Y-15042436D01*
X8057563Y-15042436D02*
X8048039Y-15023388D01*
X8048039Y-15023388D02*
X8038515Y-14985293D01*
X8038515Y-14985293D02*
X8038515Y-14937674D01*
X8038515Y-14937674D02*
X8048039Y-14899579D01*
X8048039Y-14899579D02*
X8057563Y-14880531D01*
X8057563Y-14880531D02*
X8067086Y-14871008D01*
X8067086Y-14871008D02*
X8086134Y-14861484D01*
X8238515Y-15042436D02*
X8248039Y-15051960D01*
X8248039Y-15051960D02*
X8238515Y-15061484D01*
X8238515Y-15061484D02*
X8228991Y-15051960D01*
X8228991Y-15051960D02*
X8238515Y-15042436D01*
X8238515Y-15042436D02*
X8238515Y-15061484D01*
X8438515Y-15061484D02*
X8324229Y-15061484D01*
X8381372Y-15061484D02*
X8381372Y-14861484D01*
X8381372Y-14861484D02*
X8362325Y-14890055D01*
X8362325Y-14890055D02*
X8343277Y-14909103D01*
X8343277Y-14909103D02*
X8324229Y-14918627D01*
X8514706Y-14880531D02*
X8524229Y-14871008D01*
X8524229Y-14871008D02*
X8543277Y-14861484D01*
X8543277Y-14861484D02*
X8590896Y-14861484D01*
X8590896Y-14861484D02*
X8609944Y-14871008D01*
X8609944Y-14871008D02*
X8619468Y-14880531D01*
X8619468Y-14880531D02*
X8628991Y-14899579D01*
X8628991Y-14899579D02*
X8628991Y-14918627D01*
X8628991Y-14918627D02*
X8619468Y-14947198D01*
X8619468Y-14947198D02*
X8505182Y-15061484D01*
X8505182Y-15061484D02*
X8628991Y-15061484D01*
X8800420Y-14861484D02*
X8762325Y-14861484D01*
X8762325Y-14861484D02*
X8743277Y-14871008D01*
X8743277Y-14871008D02*
X8733753Y-14880531D01*
X8733753Y-14880531D02*
X8714706Y-14909103D01*
X8714706Y-14909103D02*
X8705182Y-14947198D01*
X8705182Y-14947198D02*
X8705182Y-15023388D01*
X8705182Y-15023388D02*
X8714706Y-15042436D01*
X8714706Y-15042436D02*
X8724229Y-15051960D01*
X8724229Y-15051960D02*
X8743277Y-15061484D01*
X8743277Y-15061484D02*
X8781372Y-15061484D01*
X8781372Y-15061484D02*
X8800420Y-15051960D01*
X8800420Y-15051960D02*
X8809944Y-15042436D01*
X8809944Y-15042436D02*
X8819468Y-15023388D01*
X8819468Y-15023388D02*
X8819468Y-14975769D01*
X8819468Y-14975769D02*
X8809944Y-14956722D01*
X8809944Y-14956722D02*
X8800420Y-14947198D01*
X8800420Y-14947198D02*
X8781372Y-14937674D01*
X8781372Y-14937674D02*
X8743277Y-14937674D01*
X8743277Y-14937674D02*
X8724229Y-14947198D01*
X8724229Y-14947198D02*
X8714706Y-14956722D01*
X8714706Y-14956722D02*
X8705182Y-14975769D01*
X8943277Y-14861484D02*
X8962325Y-14861484D01*
X8962325Y-14861484D02*
X8981372Y-14871008D01*
X8981372Y-14871008D02*
X8990896Y-14880531D01*
X8990896Y-14880531D02*
X9000420Y-14899579D01*
X9000420Y-14899579D02*
X9009944Y-14937674D01*
X9009944Y-14937674D02*
X9009944Y-14985293D01*
X9009944Y-14985293D02*
X9000420Y-15023388D01*
X9000420Y-15023388D02*
X8990896Y-15042436D01*
X8990896Y-15042436D02*
X8981372Y-15051960D01*
X8981372Y-15051960D02*
X8962325Y-15061484D01*
X8962325Y-15061484D02*
X8943277Y-15061484D01*
X8943277Y-15061484D02*
X8924229Y-15051960D01*
X8924229Y-15051960D02*
X8914706Y-15042436D01*
X8914706Y-15042436D02*
X8905182Y-15023388D01*
X8905182Y-15023388D02*
X8895658Y-14985293D01*
X8895658Y-14985293D02*
X8895658Y-14937674D01*
X8895658Y-14937674D02*
X8905182Y-14899579D01*
X8905182Y-14899579D02*
X8914706Y-14880531D01*
X8914706Y-14880531D02*
X8924229Y-14871008D01*
X8924229Y-14871008D02*
X8943277Y-14861484D01*
X9086134Y-14861484D02*
X9086134Y-14899579D01*
X9162325Y-14861484D02*
X9162325Y-14899579D01*
X9457563Y-15137674D02*
X9448039Y-15128150D01*
X9448039Y-15128150D02*
X9428991Y-15099579D01*
X9428991Y-15099579D02*
X9419468Y-15080531D01*
X9419468Y-15080531D02*
X9409944Y-15051960D01*
X9409944Y-15051960D02*
X9400420Y-15004341D01*
X9400420Y-15004341D02*
X9400420Y-14966246D01*
X9400420Y-14966246D02*
X9409944Y-14918627D01*
X9409944Y-14918627D02*
X9419468Y-14890055D01*
X9419468Y-14890055D02*
X9428991Y-14871008D01*
X9428991Y-14871008D02*
X9448039Y-14842436D01*
X9448039Y-14842436D02*
X9457563Y-14832912D01*
X9619468Y-14928150D02*
X9619468Y-15061484D01*
X9571849Y-14851960D02*
X9524230Y-14994817D01*
X9524230Y-14994817D02*
X9648039Y-14994817D01*
X9876611Y-15061484D02*
X9876611Y-14861484D01*
X9962325Y-15061484D02*
X9962325Y-14956722D01*
X9962325Y-14956722D02*
X9952801Y-14937674D01*
X9952801Y-14937674D02*
X9933753Y-14928150D01*
X9933753Y-14928150D02*
X9905182Y-14928150D01*
X9905182Y-14928150D02*
X9886134Y-14937674D01*
X9886134Y-14937674D02*
X9876611Y-14947198D01*
X10086134Y-15061484D02*
X10067087Y-15051960D01*
X10067087Y-15051960D02*
X10057563Y-15042436D01*
X10057563Y-15042436D02*
X10048039Y-15023388D01*
X10048039Y-15023388D02*
X10048039Y-14966246D01*
X10048039Y-14966246D02*
X10057563Y-14947198D01*
X10057563Y-14947198D02*
X10067087Y-14937674D01*
X10067087Y-14937674D02*
X10086134Y-14928150D01*
X10086134Y-14928150D02*
X10114706Y-14928150D01*
X10114706Y-14928150D02*
X10133753Y-14937674D01*
X10133753Y-14937674D02*
X10143277Y-14947198D01*
X10143277Y-14947198D02*
X10152801Y-14966246D01*
X10152801Y-14966246D02*
X10152801Y-15023388D01*
X10152801Y-15023388D02*
X10143277Y-15042436D01*
X10143277Y-15042436D02*
X10133753Y-15051960D01*
X10133753Y-15051960D02*
X10114706Y-15061484D01*
X10114706Y-15061484D02*
X10086134Y-15061484D01*
X10267087Y-15061484D02*
X10248039Y-15051960D01*
X10248039Y-15051960D02*
X10238515Y-15032912D01*
X10238515Y-15032912D02*
X10238515Y-14861484D01*
X10419468Y-15051960D02*
X10400420Y-15061484D01*
X10400420Y-15061484D02*
X10362325Y-15061484D01*
X10362325Y-15061484D02*
X10343277Y-15051960D01*
X10343277Y-15051960D02*
X10333753Y-15032912D01*
X10333753Y-15032912D02*
X10333753Y-14956722D01*
X10333753Y-14956722D02*
X10343277Y-14937674D01*
X10343277Y-14937674D02*
X10362325Y-14928150D01*
X10362325Y-14928150D02*
X10400420Y-14928150D01*
X10400420Y-14928150D02*
X10419468Y-14937674D01*
X10419468Y-14937674D02*
X10428992Y-14956722D01*
X10428992Y-14956722D02*
X10428992Y-14975769D01*
X10428992Y-14975769D02*
X10333753Y-14994817D01*
X10505182Y-15051960D02*
X10524230Y-15061484D01*
X10524230Y-15061484D02*
X10562325Y-15061484D01*
X10562325Y-15061484D02*
X10581373Y-15051960D01*
X10581373Y-15051960D02*
X10590896Y-15032912D01*
X10590896Y-15032912D02*
X10590896Y-15023388D01*
X10590896Y-15023388D02*
X10581373Y-15004341D01*
X10581373Y-15004341D02*
X10562325Y-14994817D01*
X10562325Y-14994817D02*
X10533753Y-14994817D01*
X10533753Y-14994817D02*
X10514706Y-14985293D01*
X10514706Y-14985293D02*
X10505182Y-14966246D01*
X10505182Y-14966246D02*
X10505182Y-14956722D01*
X10505182Y-14956722D02*
X10514706Y-14937674D01*
X10514706Y-14937674D02*
X10533753Y-14928150D01*
X10533753Y-14928150D02*
X10562325Y-14928150D01*
X10562325Y-14928150D02*
X10581373Y-14937674D01*
X10657563Y-15137674D02*
X10667087Y-15128150D01*
X10667087Y-15128150D02*
X10686134Y-15099579D01*
X10686134Y-15099579D02*
X10695658Y-15080531D01*
X10695658Y-15080531D02*
X10705182Y-15051960D01*
X10705182Y-15051960D02*
X10714706Y-15004341D01*
X10714706Y-15004341D02*
X10714706Y-14966246D01*
X10714706Y-14966246D02*
X10705182Y-14918627D01*
X10705182Y-14918627D02*
X10695658Y-14890055D01*
X10695658Y-14890055D02*
X10686134Y-14871008D01*
X10686134Y-14871008D02*
X10667087Y-14842436D01*
X10667087Y-14842436D02*
X10657563Y-14832912D01*
X11019468Y-15137674D02*
X11009944Y-15128150D01*
X11009944Y-15128150D02*
X10990896Y-15099579D01*
X10990896Y-15099579D02*
X10981373Y-15080531D01*
X10981373Y-15080531D02*
X10971849Y-15051960D01*
X10971849Y-15051960D02*
X10962325Y-15004341D01*
X10962325Y-15004341D02*
X10962325Y-14966246D01*
X10962325Y-14966246D02*
X10971849Y-14918627D01*
X10971849Y-14918627D02*
X10981373Y-14890055D01*
X10981373Y-14890055D02*
X10990896Y-14871008D01*
X10990896Y-14871008D02*
X11009944Y-14842436D01*
X11009944Y-14842436D02*
X11019468Y-14832912D01*
X11095658Y-14928150D02*
X11095658Y-15061484D01*
X11095658Y-14947198D02*
X11105182Y-14937674D01*
X11105182Y-14937674D02*
X11124230Y-14928150D01*
X11124230Y-14928150D02*
X11152801Y-14928150D01*
X11152801Y-14928150D02*
X11171849Y-14937674D01*
X11171849Y-14937674D02*
X11181373Y-14956722D01*
X11181373Y-14956722D02*
X11181373Y-15061484D01*
X11305182Y-15061484D02*
X11286134Y-15051960D01*
X11286134Y-15051960D02*
X11276611Y-15042436D01*
X11276611Y-15042436D02*
X11267087Y-15023388D01*
X11267087Y-15023388D02*
X11267087Y-14966246D01*
X11267087Y-14966246D02*
X11276611Y-14947198D01*
X11276611Y-14947198D02*
X11286134Y-14937674D01*
X11286134Y-14937674D02*
X11305182Y-14928150D01*
X11305182Y-14928150D02*
X11333753Y-14928150D01*
X11333753Y-14928150D02*
X11352801Y-14937674D01*
X11352801Y-14937674D02*
X11362325Y-14947198D01*
X11362325Y-14947198D02*
X11371849Y-14966246D01*
X11371849Y-14966246D02*
X11371849Y-15023388D01*
X11371849Y-15023388D02*
X11362325Y-15042436D01*
X11362325Y-15042436D02*
X11352801Y-15051960D01*
X11352801Y-15051960D02*
X11333753Y-15061484D01*
X11333753Y-15061484D02*
X11305182Y-15061484D01*
X11428992Y-14928150D02*
X11505182Y-14928150D01*
X11457563Y-14861484D02*
X11457563Y-15032912D01*
X11457563Y-15032912D02*
X11467087Y-15051960D01*
X11467087Y-15051960D02*
X11486134Y-15061484D01*
X11486134Y-15061484D02*
X11505182Y-15061484D01*
X11724230Y-14928150D02*
X11724230Y-15128150D01*
X11724230Y-14937674D02*
X11743277Y-14928150D01*
X11743277Y-14928150D02*
X11781373Y-14928150D01*
X11781373Y-14928150D02*
X11800420Y-14937674D01*
X11800420Y-14937674D02*
X11809944Y-14947198D01*
X11809944Y-14947198D02*
X11819468Y-14966246D01*
X11819468Y-14966246D02*
X11819468Y-15023388D01*
X11819468Y-15023388D02*
X11809944Y-15042436D01*
X11809944Y-15042436D02*
X11800420Y-15051960D01*
X11800420Y-15051960D02*
X11781373Y-15061484D01*
X11781373Y-15061484D02*
X11743277Y-15061484D01*
X11743277Y-15061484D02*
X11724230Y-15051960D01*
X11933753Y-15061484D02*
X11914706Y-15051960D01*
X11914706Y-15051960D02*
X11905182Y-15032912D01*
X11905182Y-15032912D02*
X11905182Y-14861484D01*
X12095658Y-15061484D02*
X12095658Y-14956722D01*
X12095658Y-14956722D02*
X12086134Y-14937674D01*
X12086134Y-14937674D02*
X12067087Y-14928150D01*
X12067087Y-14928150D02*
X12028992Y-14928150D01*
X12028992Y-14928150D02*
X12009944Y-14937674D01*
X12095658Y-15051960D02*
X12076611Y-15061484D01*
X12076611Y-15061484D02*
X12028992Y-15061484D01*
X12028992Y-15061484D02*
X12009944Y-15051960D01*
X12009944Y-15051960D02*
X12000420Y-15032912D01*
X12000420Y-15032912D02*
X12000420Y-15013865D01*
X12000420Y-15013865D02*
X12009944Y-14994817D01*
X12009944Y-14994817D02*
X12028992Y-14985293D01*
X12028992Y-14985293D02*
X12076611Y-14985293D01*
X12076611Y-14985293D02*
X12095658Y-14975769D01*
X12162325Y-14928150D02*
X12238515Y-14928150D01*
X12190896Y-14861484D02*
X12190896Y-15032912D01*
X12190896Y-15032912D02*
X12200420Y-15051960D01*
X12200420Y-15051960D02*
X12219468Y-15061484D01*
X12219468Y-15061484D02*
X12238515Y-15061484D01*
X12381373Y-15051960D02*
X12362325Y-15061484D01*
X12362325Y-15061484D02*
X12324230Y-15061484D01*
X12324230Y-15061484D02*
X12305182Y-15051960D01*
X12305182Y-15051960D02*
X12295658Y-15032912D01*
X12295658Y-15032912D02*
X12295658Y-14956722D01*
X12295658Y-14956722D02*
X12305182Y-14937674D01*
X12305182Y-14937674D02*
X12324230Y-14928150D01*
X12324230Y-14928150D02*
X12362325Y-14928150D01*
X12362325Y-14928150D02*
X12381373Y-14937674D01*
X12381373Y-14937674D02*
X12390896Y-14956722D01*
X12390896Y-14956722D02*
X12390896Y-14975769D01*
X12390896Y-14975769D02*
X12295658Y-14994817D01*
X12562325Y-15061484D02*
X12562325Y-14861484D01*
X12562325Y-15051960D02*
X12543277Y-15061484D01*
X12543277Y-15061484D02*
X12505182Y-15061484D01*
X12505182Y-15061484D02*
X12486134Y-15051960D01*
X12486134Y-15051960D02*
X12476611Y-15042436D01*
X12476611Y-15042436D02*
X12467087Y-15023388D01*
X12467087Y-15023388D02*
X12467087Y-14966246D01*
X12467087Y-14966246D02*
X12476611Y-14947198D01*
X12476611Y-14947198D02*
X12486134Y-14937674D01*
X12486134Y-14937674D02*
X12505182Y-14928150D01*
X12505182Y-14928150D02*
X12543277Y-14928150D01*
X12543277Y-14928150D02*
X12562325Y-14937674D01*
X12638515Y-15137674D02*
X12648039Y-15128150D01*
X12648039Y-15128150D02*
X12667087Y-15099579D01*
X12667087Y-15099579D02*
X12676611Y-15080531D01*
X12676611Y-15080531D02*
X12686134Y-15051960D01*
X12686134Y-15051960D02*
X12695658Y-15004341D01*
X12695658Y-15004341D02*
X12695658Y-14966246D01*
X12695658Y-14966246D02*
X12686134Y-14918627D01*
X12686134Y-14918627D02*
X12676611Y-14890055D01*
X12676611Y-14890055D02*
X12667087Y-14871008D01*
X12667087Y-14871008D02*
X12648039Y-14842436D01*
X12648039Y-14842436D02*
X12638515Y-14832912D01*
X5782500Y-15190000D02*
X5782500Y-15390000D01*
X5682500Y-15290000D02*
X5882500Y-15290000D01*
X6124229Y-15181484D02*
X6248039Y-15181484D01*
X6248039Y-15181484D02*
X6181372Y-15257674D01*
X6181372Y-15257674D02*
X6209943Y-15257674D01*
X6209943Y-15257674D02*
X6228991Y-15267198D01*
X6228991Y-15267198D02*
X6238515Y-15276722D01*
X6238515Y-15276722D02*
X6248039Y-15295769D01*
X6248039Y-15295769D02*
X6248039Y-15343388D01*
X6248039Y-15343388D02*
X6238515Y-15362436D01*
X6238515Y-15362436D02*
X6228991Y-15371960D01*
X6228991Y-15371960D02*
X6209943Y-15381484D01*
X6209943Y-15381484D02*
X6152801Y-15381484D01*
X6152801Y-15381484D02*
X6133753Y-15371960D01*
X6133753Y-15371960D02*
X6124229Y-15362436D01*
X6333753Y-15362436D02*
X6343277Y-15371960D01*
X6343277Y-15371960D02*
X6333753Y-15381484D01*
X6333753Y-15381484D02*
X6324229Y-15371960D01*
X6324229Y-15371960D02*
X6333753Y-15362436D01*
X6333753Y-15362436D02*
X6333753Y-15381484D01*
X6514705Y-15181484D02*
X6476610Y-15181484D01*
X6476610Y-15181484D02*
X6457562Y-15191008D01*
X6457562Y-15191008D02*
X6448039Y-15200531D01*
X6448039Y-15200531D02*
X6428991Y-15229103D01*
X6428991Y-15229103D02*
X6419467Y-15267198D01*
X6419467Y-15267198D02*
X6419467Y-15343388D01*
X6419467Y-15343388D02*
X6428991Y-15362436D01*
X6428991Y-15362436D02*
X6438515Y-15371960D01*
X6438515Y-15371960D02*
X6457562Y-15381484D01*
X6457562Y-15381484D02*
X6495658Y-15381484D01*
X6495658Y-15381484D02*
X6514705Y-15371960D01*
X6514705Y-15371960D02*
X6524229Y-15362436D01*
X6524229Y-15362436D02*
X6533753Y-15343388D01*
X6533753Y-15343388D02*
X6533753Y-15295769D01*
X6533753Y-15295769D02*
X6524229Y-15276722D01*
X6524229Y-15276722D02*
X6514705Y-15267198D01*
X6514705Y-15267198D02*
X6495658Y-15257674D01*
X6495658Y-15257674D02*
X6457562Y-15257674D01*
X6457562Y-15257674D02*
X6438515Y-15267198D01*
X6438515Y-15267198D02*
X6428991Y-15276722D01*
X6428991Y-15276722D02*
X6419467Y-15295769D01*
X6657562Y-15181484D02*
X6676610Y-15181484D01*
X6676610Y-15181484D02*
X6695658Y-15191008D01*
X6695658Y-15191008D02*
X6705182Y-15200531D01*
X6705182Y-15200531D02*
X6714705Y-15219579D01*
X6714705Y-15219579D02*
X6724229Y-15257674D01*
X6724229Y-15257674D02*
X6724229Y-15305293D01*
X6724229Y-15305293D02*
X6714705Y-15343388D01*
X6714705Y-15343388D02*
X6705182Y-15362436D01*
X6705182Y-15362436D02*
X6695658Y-15371960D01*
X6695658Y-15371960D02*
X6676610Y-15381484D01*
X6676610Y-15381484D02*
X6657562Y-15381484D01*
X6657562Y-15381484D02*
X6638515Y-15371960D01*
X6638515Y-15371960D02*
X6628991Y-15362436D01*
X6628991Y-15362436D02*
X6619467Y-15343388D01*
X6619467Y-15343388D02*
X6609943Y-15305293D01*
X6609943Y-15305293D02*
X6609943Y-15257674D01*
X6609943Y-15257674D02*
X6619467Y-15219579D01*
X6619467Y-15219579D02*
X6628991Y-15200531D01*
X6628991Y-15200531D02*
X6638515Y-15191008D01*
X6638515Y-15191008D02*
X6657562Y-15181484D01*
X6848039Y-15181484D02*
X6867086Y-15181484D01*
X6867086Y-15181484D02*
X6886134Y-15191008D01*
X6886134Y-15191008D02*
X6895658Y-15200531D01*
X6895658Y-15200531D02*
X6905182Y-15219579D01*
X6905182Y-15219579D02*
X6914705Y-15257674D01*
X6914705Y-15257674D02*
X6914705Y-15305293D01*
X6914705Y-15305293D02*
X6905182Y-15343388D01*
X6905182Y-15343388D02*
X6895658Y-15362436D01*
X6895658Y-15362436D02*
X6886134Y-15371960D01*
X6886134Y-15371960D02*
X6867086Y-15381484D01*
X6867086Y-15381484D02*
X6848039Y-15381484D01*
X6848039Y-15381484D02*
X6828991Y-15371960D01*
X6828991Y-15371960D02*
X6819467Y-15362436D01*
X6819467Y-15362436D02*
X6809943Y-15343388D01*
X6809943Y-15343388D02*
X6800420Y-15305293D01*
X6800420Y-15305293D02*
X6800420Y-15257674D01*
X6800420Y-15257674D02*
X6809943Y-15219579D01*
X6809943Y-15219579D02*
X6819467Y-15200531D01*
X6819467Y-15200531D02*
X6828991Y-15191008D01*
X6828991Y-15191008D02*
X6848039Y-15181484D01*
X7000420Y-15381484D02*
X7000420Y-15248150D01*
X7000420Y-15267198D02*
X7009943Y-15257674D01*
X7009943Y-15257674D02*
X7028991Y-15248150D01*
X7028991Y-15248150D02*
X7057563Y-15248150D01*
X7057563Y-15248150D02*
X7076610Y-15257674D01*
X7076610Y-15257674D02*
X7086134Y-15276722D01*
X7086134Y-15276722D02*
X7086134Y-15381484D01*
X7086134Y-15276722D02*
X7095658Y-15257674D01*
X7095658Y-15257674D02*
X7114705Y-15248150D01*
X7114705Y-15248150D02*
X7143277Y-15248150D01*
X7143277Y-15248150D02*
X7162324Y-15257674D01*
X7162324Y-15257674D02*
X7171848Y-15276722D01*
X7171848Y-15276722D02*
X7171848Y-15381484D01*
X7267086Y-15381484D02*
X7267086Y-15248150D01*
X7267086Y-15267198D02*
X7276610Y-15257674D01*
X7276610Y-15257674D02*
X7295658Y-15248150D01*
X7295658Y-15248150D02*
X7324229Y-15248150D01*
X7324229Y-15248150D02*
X7343277Y-15257674D01*
X7343277Y-15257674D02*
X7352801Y-15276722D01*
X7352801Y-15276722D02*
X7352801Y-15381484D01*
X7352801Y-15276722D02*
X7362324Y-15257674D01*
X7362324Y-15257674D02*
X7381372Y-15248150D01*
X7381372Y-15248150D02*
X7409943Y-15248150D01*
X7409943Y-15248150D02*
X7428991Y-15257674D01*
X7428991Y-15257674D02*
X7438515Y-15276722D01*
X7438515Y-15276722D02*
X7438515Y-15381484D01*
X7828991Y-15171960D02*
X7657563Y-15429103D01*
X8086134Y-15181484D02*
X8105182Y-15181484D01*
X8105182Y-15181484D02*
X8124229Y-15191008D01*
X8124229Y-15191008D02*
X8133753Y-15200531D01*
X8133753Y-15200531D02*
X8143277Y-15219579D01*
X8143277Y-15219579D02*
X8152801Y-15257674D01*
X8152801Y-15257674D02*
X8152801Y-15305293D01*
X8152801Y-15305293D02*
X8143277Y-15343388D01*
X8143277Y-15343388D02*
X8133753Y-15362436D01*
X8133753Y-15362436D02*
X8124229Y-15371960D01*
X8124229Y-15371960D02*
X8105182Y-15381484D01*
X8105182Y-15381484D02*
X8086134Y-15381484D01*
X8086134Y-15381484D02*
X8067086Y-15371960D01*
X8067086Y-15371960D02*
X8057563Y-15362436D01*
X8057563Y-15362436D02*
X8048039Y-15343388D01*
X8048039Y-15343388D02*
X8038515Y-15305293D01*
X8038515Y-15305293D02*
X8038515Y-15257674D01*
X8038515Y-15257674D02*
X8048039Y-15219579D01*
X8048039Y-15219579D02*
X8057563Y-15200531D01*
X8057563Y-15200531D02*
X8067086Y-15191008D01*
X8067086Y-15191008D02*
X8086134Y-15181484D01*
X8238515Y-15362436D02*
X8248039Y-15371960D01*
X8248039Y-15371960D02*
X8238515Y-15381484D01*
X8238515Y-15381484D02*
X8228991Y-15371960D01*
X8228991Y-15371960D02*
X8238515Y-15362436D01*
X8238515Y-15362436D02*
X8238515Y-15381484D01*
X8438515Y-15381484D02*
X8324229Y-15381484D01*
X8381372Y-15381484D02*
X8381372Y-15181484D01*
X8381372Y-15181484D02*
X8362325Y-15210055D01*
X8362325Y-15210055D02*
X8343277Y-15229103D01*
X8343277Y-15229103D02*
X8324229Y-15238627D01*
X8609944Y-15248150D02*
X8609944Y-15381484D01*
X8562325Y-15171960D02*
X8514706Y-15314817D01*
X8514706Y-15314817D02*
X8638515Y-15314817D01*
X8819468Y-15381484D02*
X8705182Y-15381484D01*
X8762325Y-15381484D02*
X8762325Y-15181484D01*
X8762325Y-15181484D02*
X8743277Y-15210055D01*
X8743277Y-15210055D02*
X8724229Y-15229103D01*
X8724229Y-15229103D02*
X8705182Y-15238627D01*
X8886134Y-15181484D02*
X9019468Y-15181484D01*
X9019468Y-15181484D02*
X8933753Y-15381484D01*
X9086134Y-15181484D02*
X9086134Y-15219579D01*
X9162325Y-15181484D02*
X9162325Y-15219579D01*
X9457563Y-15457674D02*
X9448039Y-15448150D01*
X9448039Y-15448150D02*
X9428991Y-15419579D01*
X9428991Y-15419579D02*
X9419468Y-15400531D01*
X9419468Y-15400531D02*
X9409944Y-15371960D01*
X9409944Y-15371960D02*
X9400420Y-15324341D01*
X9400420Y-15324341D02*
X9400420Y-15286246D01*
X9400420Y-15286246D02*
X9409944Y-15238627D01*
X9409944Y-15238627D02*
X9419468Y-15210055D01*
X9419468Y-15210055D02*
X9428991Y-15191008D01*
X9428991Y-15191008D02*
X9448039Y-15162436D01*
X9448039Y-15162436D02*
X9457563Y-15152912D01*
X9638515Y-15381484D02*
X9524230Y-15381484D01*
X9581372Y-15381484D02*
X9581372Y-15181484D01*
X9581372Y-15181484D02*
X9562325Y-15210055D01*
X9562325Y-15210055D02*
X9543277Y-15229103D01*
X9543277Y-15229103D02*
X9524230Y-15238627D01*
X9876611Y-15381484D02*
X9876611Y-15181484D01*
X9962325Y-15381484D02*
X9962325Y-15276722D01*
X9962325Y-15276722D02*
X9952801Y-15257674D01*
X9952801Y-15257674D02*
X9933753Y-15248150D01*
X9933753Y-15248150D02*
X9905182Y-15248150D01*
X9905182Y-15248150D02*
X9886134Y-15257674D01*
X9886134Y-15257674D02*
X9876611Y-15267198D01*
X10086134Y-15381484D02*
X10067087Y-15371960D01*
X10067087Y-15371960D02*
X10057563Y-15362436D01*
X10057563Y-15362436D02*
X10048039Y-15343388D01*
X10048039Y-15343388D02*
X10048039Y-15286246D01*
X10048039Y-15286246D02*
X10057563Y-15267198D01*
X10057563Y-15267198D02*
X10067087Y-15257674D01*
X10067087Y-15257674D02*
X10086134Y-15248150D01*
X10086134Y-15248150D02*
X10114706Y-15248150D01*
X10114706Y-15248150D02*
X10133753Y-15257674D01*
X10133753Y-15257674D02*
X10143277Y-15267198D01*
X10143277Y-15267198D02*
X10152801Y-15286246D01*
X10152801Y-15286246D02*
X10152801Y-15343388D01*
X10152801Y-15343388D02*
X10143277Y-15362436D01*
X10143277Y-15362436D02*
X10133753Y-15371960D01*
X10133753Y-15371960D02*
X10114706Y-15381484D01*
X10114706Y-15381484D02*
X10086134Y-15381484D01*
X10267087Y-15381484D02*
X10248039Y-15371960D01*
X10248039Y-15371960D02*
X10238515Y-15352912D01*
X10238515Y-15352912D02*
X10238515Y-15181484D01*
X10419468Y-15371960D02*
X10400420Y-15381484D01*
X10400420Y-15381484D02*
X10362325Y-15381484D01*
X10362325Y-15381484D02*
X10343277Y-15371960D01*
X10343277Y-15371960D02*
X10333753Y-15352912D01*
X10333753Y-15352912D02*
X10333753Y-15276722D01*
X10333753Y-15276722D02*
X10343277Y-15257674D01*
X10343277Y-15257674D02*
X10362325Y-15248150D01*
X10362325Y-15248150D02*
X10400420Y-15248150D01*
X10400420Y-15248150D02*
X10419468Y-15257674D01*
X10419468Y-15257674D02*
X10428992Y-15276722D01*
X10428992Y-15276722D02*
X10428992Y-15295769D01*
X10428992Y-15295769D02*
X10333753Y-15314817D01*
X10495658Y-15457674D02*
X10505182Y-15448150D01*
X10505182Y-15448150D02*
X10524230Y-15419579D01*
X10524230Y-15419579D02*
X10533753Y-15400531D01*
X10533753Y-15400531D02*
X10543277Y-15371960D01*
X10543277Y-15371960D02*
X10552801Y-15324341D01*
X10552801Y-15324341D02*
X10552801Y-15286246D01*
X10552801Y-15286246D02*
X10543277Y-15238627D01*
X10543277Y-15238627D02*
X10533753Y-15210055D01*
X10533753Y-15210055D02*
X10524230Y-15191008D01*
X10524230Y-15191008D02*
X10505182Y-15162436D01*
X10505182Y-15162436D02*
X10495658Y-15152912D01*
X10857563Y-15457674D02*
X10848039Y-15448150D01*
X10848039Y-15448150D02*
X10828992Y-15419579D01*
X10828992Y-15419579D02*
X10819468Y-15400531D01*
X10819468Y-15400531D02*
X10809944Y-15371960D01*
X10809944Y-15371960D02*
X10800420Y-15324341D01*
X10800420Y-15324341D02*
X10800420Y-15286246D01*
X10800420Y-15286246D02*
X10809944Y-15238627D01*
X10809944Y-15238627D02*
X10819468Y-15210055D01*
X10819468Y-15210055D02*
X10828992Y-15191008D01*
X10828992Y-15191008D02*
X10848039Y-15162436D01*
X10848039Y-15162436D02*
X10857563Y-15152912D01*
X10933753Y-15248150D02*
X10933753Y-15381484D01*
X10933753Y-15267198D02*
X10943277Y-15257674D01*
X10943277Y-15257674D02*
X10962325Y-15248150D01*
X10962325Y-15248150D02*
X10990896Y-15248150D01*
X10990896Y-15248150D02*
X11009944Y-15257674D01*
X11009944Y-15257674D02*
X11019468Y-15276722D01*
X11019468Y-15276722D02*
X11019468Y-15381484D01*
X11143277Y-15381484D02*
X11124230Y-15371960D01*
X11124230Y-15371960D02*
X11114706Y-15362436D01*
X11114706Y-15362436D02*
X11105182Y-15343388D01*
X11105182Y-15343388D02*
X11105182Y-15286246D01*
X11105182Y-15286246D02*
X11114706Y-15267198D01*
X11114706Y-15267198D02*
X11124230Y-15257674D01*
X11124230Y-15257674D02*
X11143277Y-15248150D01*
X11143277Y-15248150D02*
X11171849Y-15248150D01*
X11171849Y-15248150D02*
X11190896Y-15257674D01*
X11190896Y-15257674D02*
X11200420Y-15267198D01*
X11200420Y-15267198D02*
X11209944Y-15286246D01*
X11209944Y-15286246D02*
X11209944Y-15343388D01*
X11209944Y-15343388D02*
X11200420Y-15362436D01*
X11200420Y-15362436D02*
X11190896Y-15371960D01*
X11190896Y-15371960D02*
X11171849Y-15381484D01*
X11171849Y-15381484D02*
X11143277Y-15381484D01*
X11267087Y-15248150D02*
X11343277Y-15248150D01*
X11295658Y-15181484D02*
X11295658Y-15352912D01*
X11295658Y-15352912D02*
X11305182Y-15371960D01*
X11305182Y-15371960D02*
X11324230Y-15381484D01*
X11324230Y-15381484D02*
X11343277Y-15381484D01*
X11562325Y-15248150D02*
X11562325Y-15448150D01*
X11562325Y-15257674D02*
X11581372Y-15248150D01*
X11581372Y-15248150D02*
X11619468Y-15248150D01*
X11619468Y-15248150D02*
X11638515Y-15257674D01*
X11638515Y-15257674D02*
X11648039Y-15267198D01*
X11648039Y-15267198D02*
X11657563Y-15286246D01*
X11657563Y-15286246D02*
X11657563Y-15343388D01*
X11657563Y-15343388D02*
X11648039Y-15362436D01*
X11648039Y-15362436D02*
X11638515Y-15371960D01*
X11638515Y-15371960D02*
X11619468Y-15381484D01*
X11619468Y-15381484D02*
X11581372Y-15381484D01*
X11581372Y-15381484D02*
X11562325Y-15371960D01*
X11771849Y-15381484D02*
X11752801Y-15371960D01*
X11752801Y-15371960D02*
X11743277Y-15352912D01*
X11743277Y-15352912D02*
X11743277Y-15181484D01*
X11933753Y-15381484D02*
X11933753Y-15276722D01*
X11933753Y-15276722D02*
X11924230Y-15257674D01*
X11924230Y-15257674D02*
X11905182Y-15248150D01*
X11905182Y-15248150D02*
X11867087Y-15248150D01*
X11867087Y-15248150D02*
X11848039Y-15257674D01*
X11933753Y-15371960D02*
X11914706Y-15381484D01*
X11914706Y-15381484D02*
X11867087Y-15381484D01*
X11867087Y-15381484D02*
X11848039Y-15371960D01*
X11848039Y-15371960D02*
X11838515Y-15352912D01*
X11838515Y-15352912D02*
X11838515Y-15333865D01*
X11838515Y-15333865D02*
X11848039Y-15314817D01*
X11848039Y-15314817D02*
X11867087Y-15305293D01*
X11867087Y-15305293D02*
X11914706Y-15305293D01*
X11914706Y-15305293D02*
X11933753Y-15295769D01*
X12000420Y-15248150D02*
X12076611Y-15248150D01*
X12028992Y-15181484D02*
X12028992Y-15352912D01*
X12028992Y-15352912D02*
X12038515Y-15371960D01*
X12038515Y-15371960D02*
X12057563Y-15381484D01*
X12057563Y-15381484D02*
X12076611Y-15381484D01*
X12219468Y-15371960D02*
X12200420Y-15381484D01*
X12200420Y-15381484D02*
X12162325Y-15381484D01*
X12162325Y-15381484D02*
X12143277Y-15371960D01*
X12143277Y-15371960D02*
X12133753Y-15352912D01*
X12133753Y-15352912D02*
X12133753Y-15276722D01*
X12133753Y-15276722D02*
X12143277Y-15257674D01*
X12143277Y-15257674D02*
X12162325Y-15248150D01*
X12162325Y-15248150D02*
X12200420Y-15248150D01*
X12200420Y-15248150D02*
X12219468Y-15257674D01*
X12219468Y-15257674D02*
X12228992Y-15276722D01*
X12228992Y-15276722D02*
X12228992Y-15295769D01*
X12228992Y-15295769D02*
X12133753Y-15314817D01*
X12400420Y-15381484D02*
X12400420Y-15181484D01*
X12400420Y-15371960D02*
X12381373Y-15381484D01*
X12381373Y-15381484D02*
X12343277Y-15381484D01*
X12343277Y-15381484D02*
X12324230Y-15371960D01*
X12324230Y-15371960D02*
X12314706Y-15362436D01*
X12314706Y-15362436D02*
X12305182Y-15343388D01*
X12305182Y-15343388D02*
X12305182Y-15286246D01*
X12305182Y-15286246D02*
X12314706Y-15267198D01*
X12314706Y-15267198D02*
X12324230Y-15257674D01*
X12324230Y-15257674D02*
X12343277Y-15248150D01*
X12343277Y-15248150D02*
X12381373Y-15248150D01*
X12381373Y-15248150D02*
X12400420Y-15257674D01*
X12476611Y-15457674D02*
X12486134Y-15448150D01*
X12486134Y-15448150D02*
X12505182Y-15419579D01*
X12505182Y-15419579D02*
X12514706Y-15400531D01*
X12514706Y-15400531D02*
X12524230Y-15371960D01*
X12524230Y-15371960D02*
X12533753Y-15324341D01*
X12533753Y-15324341D02*
X12533753Y-15286246D01*
X12533753Y-15286246D02*
X12524230Y-15238627D01*
X12524230Y-15238627D02*
X12514706Y-15210055D01*
X12514706Y-15210055D02*
X12505182Y-15191008D01*
X12505182Y-15191008D02*
X12486134Y-15162436D01*
X12486134Y-15162436D02*
X12476611Y-15152912D01*
M02*
