G04 #@! TF.GenerationSoftware,KiCad,Pcbnew,9.0.7*
G04 #@! TF.CreationDate,2026-02-11T10:04:32-05:00*
G04 #@! TF.ProjectId,BitCrusher,42697443-7275-4736-9865-722e6b696361,0.1*
G04 #@! TF.SameCoordinates,Original*
G04 #@! TF.FileFunction,Copper,L2,Bot*
G04 #@! TF.FilePolarity,Positive*
%FSLAX46Y46*%
G04 Gerber Fmt 4.6, Leading zero omitted, Abs format (unit mm)*
G04 Created by KiCad (PCBNEW 9.0.7) date 2026-02-11 10:04:32*
%MOMM*%
%LPD*%
G01*
G04 APERTURE LIST*
G04 Aperture macros list*
%AMRoundRect*
0 Rectangle with rounded corners*
0 $1 Rounding radius*
0 $2 $3 $4 $5 $6 $7 $8 $9 X,Y pos of 4 corners*
0 Add a 4 corners polygon primitive as box body*
4,1,4,$2,$3,$4,$5,$6,$7,$8,$9,$2,$3,0*
0 Add four circle primitives for the rounded corners*
1,1,$1+$1,$2,$3*
1,1,$1+$1,$4,$5*
1,1,$1+$1,$6,$7*
1,1,$1+$1,$8,$9*
0 Add four rect primitives between the rounded corners*
20,1,$1+$1,$2,$3,$4,$5,0*
20,1,$1+$1,$4,$5,$6,$7,0*
20,1,$1+$1,$6,$7,$8,$9,0*
20,1,$1+$1,$8,$9,$2,$3,0*%
G04 Aperture macros list end*
G04 #@! TA.AperFunction,ComponentPad*
%ADD10R,2.500000X4.500000*%
G04 #@! TD*
G04 #@! TA.AperFunction,ComponentPad*
%ADD11O,2.500000X4.500000*%
G04 #@! TD*
G04 #@! TA.AperFunction,ComponentPad*
%ADD12O,1.498600X3.505200*%
G04 #@! TD*
G04 #@! TA.AperFunction,ComponentPad*
%ADD13O,3.505200X1.498600*%
G04 #@! TD*
G04 #@! TA.AperFunction,ComponentPad*
%ADD14C,0.600000*%
G04 #@! TD*
G04 #@! TA.AperFunction,SMDPad,CuDef*
%ADD15R,2.950000X4.900000*%
G04 #@! TD*
G04 #@! TA.AperFunction,ComponentPad*
%ADD16R,1.700000X1.700000*%
G04 #@! TD*
G04 #@! TA.AperFunction,ComponentPad*
%ADD17C,1.700000*%
G04 #@! TD*
G04 #@! TA.AperFunction,ComponentPad*
%ADD18RoundRect,0.250000X1.350000X1.350000X-1.350000X1.350000X-1.350000X-1.350000X1.350000X-1.350000X0*%
G04 #@! TD*
G04 #@! TA.AperFunction,ComponentPad*
%ADD19C,3.200000*%
G04 #@! TD*
G04 #@! TA.AperFunction,ComponentPad*
%ADD20R,1.400000X1.400000*%
G04 #@! TD*
G04 #@! TA.AperFunction,ComponentPad*
%ADD21C,1.400000*%
G04 #@! TD*
G04 #@! TA.AperFunction,ComponentPad*
%ADD22RoundRect,0.249999X-0.850001X0.850001X-0.850001X-0.850001X0.850001X-0.850001X0.850001X0.850001X0*%
G04 #@! TD*
G04 #@! TA.AperFunction,ComponentPad*
%ADD23C,2.200000*%
G04 #@! TD*
G04 #@! TA.AperFunction,ComponentPad*
%ADD24RoundRect,0.200100X0.949900X-0.949900X0.949900X0.949900X-0.949900X0.949900X-0.949900X-0.949900X0*%
G04 #@! TD*
G04 #@! TA.AperFunction,ComponentPad*
%ADD25O,0.700000X0.550000*%
G04 #@! TD*
G04 #@! TA.AperFunction,ComponentPad*
%ADD26O,1.900000X0.900000*%
G04 #@! TD*
G04 #@! TA.AperFunction,ComponentPad*
%ADD27RoundRect,0.200100X-0.949900X0.949900X-0.949900X-0.949900X0.949900X-0.949900X0.949900X0.949900X0*%
G04 #@! TD*
G04 #@! TA.AperFunction,ViaPad*
%ADD28C,0.700000*%
G04 #@! TD*
G04 #@! TA.AperFunction,ViaPad*
%ADD29C,1.000000*%
G04 #@! TD*
G04 #@! TA.AperFunction,ViaPad*
%ADD30C,1.500000*%
G04 #@! TD*
G04 #@! TA.AperFunction,Conductor*
%ADD31C,1.300000*%
G04 #@! TD*
G04 #@! TA.AperFunction,Conductor*
%ADD32C,0.300000*%
G04 #@! TD*
G04 #@! TA.AperFunction,Conductor*
%ADD33C,0.500000*%
G04 #@! TD*
G04 #@! TA.AperFunction,Conductor*
%ADD34C,0.200000*%
G04 #@! TD*
G04 #@! TA.AperFunction,Conductor*
%ADD35C,1.000000*%
G04 #@! TD*
G04 #@! TA.AperFunction,Conductor*
%ADD36C,0.700000*%
G04 #@! TD*
G04 #@! TA.AperFunction,Conductor*
%ADD37C,1.500000*%
G04 #@! TD*
G04 APERTURE END LIST*
D10*
G04 #@! TO.P,RP_LIM1,1*
G04 #@! TO.N,/High Voltage Switching/HVSW+*
X207550000Y-84860000D03*
D11*
G04 #@! TO.P,RP_LIM1,2*
G04 #@! TO.N,Probe+*
X218450000Y-84860000D03*
G04 #@! TD*
D12*
G04 #@! TO.P,J10,1*
G04 #@! TO.N,/Primary Power/+24V*
X68601180Y-128023250D03*
G04 #@! TO.P,J10,2*
G04 #@! TO.N,GND*
X62601179Y-128023250D03*
D13*
G04 #@! TO.P,J10,3*
G04 #@! TO.N,N/C*
X65601180Y-132723251D03*
G04 #@! TD*
D14*
G04 #@! TO.P,U7,9,GND*
G04 #@! TO.N,GND*
X117551180Y-123225000D03*
X117551180Y-124525000D03*
X117551180Y-125825000D03*
X117551180Y-127125000D03*
D15*
X118201180Y-125175000D03*
D14*
X118851180Y-123225000D03*
X118851180Y-124525000D03*
X118851180Y-125825000D03*
X118851180Y-127125000D03*
G04 #@! TD*
D16*
G04 #@! TO.P,J6,1,Pin_1*
G04 #@! TO.N,USART1_TX*
X86135000Y-108730000D03*
D17*
G04 #@! TO.P,J6,2,Pin_2*
G04 #@! TO.N,TX_IN*
X88675000Y-108730000D03*
G04 #@! TO.P,J6,3,Pin_3*
G04 #@! TO.N,RX_IN*
X91215000Y-108730000D03*
G04 #@! TO.P,J6,4,Pin_4*
G04 #@! TO.N,USART1_RX*
X93755000Y-108730000D03*
G04 #@! TD*
D14*
G04 #@! TO.P,U6,9,GND*
G04 #@! TO.N,GND*
X87875000Y-123400000D03*
X87875000Y-124700000D03*
X87875000Y-126000000D03*
X87875000Y-127300000D03*
D15*
X88525000Y-125350000D03*
D14*
X89175000Y-123400000D03*
X89175000Y-124700000D03*
X89175000Y-126000000D03*
X89175000Y-127300000D03*
G04 #@! TD*
D18*
G04 #@! TO.P,D6,1,K*
G04 #@! TO.N,Net-(D6-K)*
X180275000Y-69500000D03*
D19*
G04 #@! TO.P,D6,2,A*
G04 #@! TO.N,+6V*
X167575000Y-69500000D03*
G04 #@! TD*
D16*
G04 #@! TO.P,J7,1,Pin_1*
G04 #@! TO.N,Debug1*
X98505000Y-87730000D03*
D17*
G04 #@! TO.P,J7,2,Pin_2*
G04 #@! TO.N,Debug2*
X95965000Y-87730000D03*
G04 #@! TO.P,J7,3,Pin_3*
G04 #@! TO.N,Debug3*
X93425000Y-87730000D03*
G04 #@! TO.P,J7,4,Pin_4*
G04 #@! TO.N,Debug4*
X90885000Y-87730000D03*
G04 #@! TD*
D20*
G04 #@! TO.P,J1,1,In*
G04 #@! TO.N,HWTrig+*
X75225000Y-84500000D03*
D21*
G04 #@! TO.P,J1,2,Ext*
G04 #@! TO.N,GND*
X75225000Y-82000000D03*
G04 #@! TD*
D16*
G04 #@! TO.P,J8,1,Pin_1*
G04 #@! TO.N,+3V3*
X81675000Y-82730000D03*
D17*
G04 #@! TO.P,J8,2,Pin_2*
G04 #@! TO.N,RST*
X81675000Y-85270000D03*
G04 #@! TO.P,J8,3,Pin_3*
G04 #@! TO.N,GND*
X81675000Y-87810000D03*
G04 #@! TD*
D22*
G04 #@! TO.P,D8,1,K*
G04 #@! TO.N,/High Voltage Switching/HVSW+*
X204250000Y-84690000D03*
D23*
G04 #@! TO.P,D8,2,A*
G04 #@! TO.N,Net-(D8-A)*
X204250000Y-92310000D03*
G04 #@! TD*
D24*
G04 #@! TO.P,J3,1,In*
G04 #@! TO.N,PulseVS+*
X217175000Y-116540000D03*
D23*
G04 #@! TO.P,J3,2,Ext*
G04 #@! TO.N,PulseCS-*
X214635000Y-119080000D03*
X219715000Y-119080000D03*
X214635000Y-114000000D03*
X219715000Y-114000000D03*
G04 #@! TD*
D16*
G04 #@! TO.P,J9,1,Pin_1*
G04 #@! TO.N,+3V3*
X85925000Y-82750000D03*
D17*
G04 #@! TO.P,J9,2,Pin_2*
G04 #@! TO.N,BOOTSEL*
X85925000Y-85290000D03*
G04 #@! TO.P,J9,3,Pin_3*
G04 #@! TO.N,GND*
X85925000Y-87830000D03*
G04 #@! TD*
D25*
G04 #@! TO.P,J5,A1,GND*
G04 #@! TO.N,GND*
X61925000Y-97750000D03*
G04 #@! TO.P,J5,A4,VBUS*
G04 #@! TO.N,/Control/VBUS*
X62825000Y-97750000D03*
G04 #@! TO.P,J5,A5,CC1*
G04 #@! TO.N,Net-(J5-CC1)*
X63725000Y-97750000D03*
G04 #@! TO.P,J5,A6,D+*
G04 #@! TO.N,Net-(J5-D+-PadA6)*
X64625000Y-97750000D03*
G04 #@! TO.P,J5,A7,D-*
G04 #@! TO.N,Net-(J5-D--PadA7)*
X65525000Y-97750000D03*
G04 #@! TO.P,J5,A9,VBUS*
G04 #@! TO.N,/Control/VBUS*
X66875000Y-97750000D03*
G04 #@! TO.P,J5,A12,GND*
G04 #@! TO.N,GND*
X67775000Y-97750000D03*
G04 #@! TO.P,J5,B1,GND*
X67775000Y-98500000D03*
G04 #@! TO.P,J5,B4,VBUS*
G04 #@! TO.N,/Control/VBUS*
X66875000Y-98500000D03*
G04 #@! TO.P,J5,B5,CC2*
G04 #@! TO.N,Net-(J5-CC2)*
X65975000Y-98500000D03*
G04 #@! TO.P,J5,B6,D+*
G04 #@! TO.N,Net-(J5-D+-PadA6)*
X65075000Y-98500000D03*
G04 #@! TO.P,J5,B7,D-*
G04 #@! TO.N,Net-(J5-D--PadA7)*
X64175000Y-98500000D03*
G04 #@! TO.P,J5,B9,VBUS*
G04 #@! TO.N,/Control/VBUS*
X62825000Y-98500000D03*
G04 #@! TO.P,J5,B12,GND*
G04 #@! TO.N,GND*
X61925000Y-98500000D03*
D26*
G04 #@! TO.P,J5,S1,SHIELD*
X67275500Y-96695000D03*
X62475000Y-96695000D03*
X67275500Y-99555000D03*
X62475000Y-99555000D03*
G04 #@! TD*
D22*
G04 #@! TO.P,D9,1,K*
G04 #@! TO.N,Probe+*
X221750000Y-84690000D03*
D23*
G04 #@! TO.P,D9,2,A*
G04 #@! TO.N,Net-(D9-A)*
X221750000Y-92310000D03*
G04 #@! TD*
D18*
G04 #@! TO.P,D3,1,K*
G04 #@! TO.N,Net-(D3-K)*
X137970000Y-107250000D03*
D19*
G04 #@! TO.P,D3,2,A*
G04 #@! TO.N,+22V*
X125270000Y-107250000D03*
G04 #@! TD*
D24*
G04 #@! TO.P,J4,1,In*
G04 #@! TO.N,PulseCS+*
X217175000Y-107470000D03*
D23*
G04 #@! TO.P,J4,2,Ext*
G04 #@! TO.N,PulseCS-*
X214635000Y-110010000D03*
X219715000Y-110010000D03*
X214635000Y-104930000D03*
X219715000Y-104930000D03*
G04 #@! TD*
D27*
G04 #@! TO.P,J2,1,In*
G04 #@! TO.N,Probe+*
X235825000Y-84750000D03*
D23*
G04 #@! TO.P,J2,2,Ext*
G04 #@! TO.N,Probe-*
X238375000Y-82200000D03*
X233275000Y-82200000D03*
X238375000Y-87300000D03*
X233275000Y-87300000D03*
G04 #@! TD*
D28*
G04 #@! TO.N,Probe+*
X233750000Y-107500000D03*
G04 #@! TO.N,+3V3*
X98675000Y-99000000D03*
X98675000Y-95570162D03*
X98015352Y-102674000D03*
X98675000Y-101250000D03*
X91925000Y-102750000D03*
X90675000Y-95500000D03*
G04 #@! TO.N,RST*
X84875000Y-92250000D03*
X76984067Y-105195201D03*
X80175000Y-105250000D03*
G04 #@! TO.N,+5V*
X95925000Y-111250000D03*
X81175000Y-111250000D03*
X109175000Y-73000000D03*
X105525000Y-76250000D03*
X75804525Y-105130525D03*
X76925000Y-111250000D03*
X100925000Y-111250000D03*
G04 #@! TO.N,Net-(U3-3V3OUT)*
X65675000Y-111500000D03*
X64017597Y-106135325D03*
G04 #@! TO.N,+6V*
X108175000Y-111250000D03*
X113101180Y-119475000D03*
X109425000Y-113500000D03*
X122351180Y-133975000D03*
G04 #@! TO.N,Net-(U6-VCC)*
X87175000Y-130750000D03*
X93425000Y-126000000D03*
G04 #@! TO.N,Net-(U7-VCC)*
X116918090Y-131743090D03*
X122851180Y-125810000D03*
G04 #@! TO.N,HVVS-*
X107425000Y-108750000D03*
X102675000Y-102250000D03*
X92050140Y-101385190D03*
X102675000Y-101250000D03*
G04 #@! TO.N,HVVS+*
X107425000Y-107500000D03*
X102689363Y-99897986D03*
X91425000Y-100500000D03*
X103575003Y-102250000D03*
D29*
G04 #@! TO.N,+22V*
X82425000Y-120500000D03*
X90851180Y-133541104D03*
X110675000Y-107250000D03*
X109351180Y-129700000D03*
D28*
G04 #@! TO.N,Net-(D6-K)*
X198618750Y-67943750D03*
X196850000Y-74462500D03*
D30*
G04 #@! TO.N,PulseCS-*
X221925000Y-98212500D03*
X155675000Y-77000000D03*
X174425000Y-77000000D03*
X161925000Y-77000000D03*
X204712500Y-98212500D03*
X168175000Y-77000000D03*
X213250000Y-98212500D03*
X180675000Y-77000000D03*
D28*
G04 #@! TO.N,HVCS*
X103925000Y-97250000D03*
X107675000Y-93500000D03*
G04 #@! TO.N,HWTrig+*
X79675000Y-90250000D03*
X83475000Y-98000000D03*
X83525000Y-102000000D03*
G04 #@! TO.N,/Control/VBUS*
X65525000Y-96100000D03*
X67675000Y-102000000D03*
G04 #@! TO.N,Net-(J5-D--PadA7)*
X65910459Y-95286719D03*
X70425000Y-102500000D03*
G04 #@! TO.N,Net-(J5-CC2)*
X63925000Y-101500000D03*
G04 #@! TO.N,TX_IN*
X64577844Y-106986985D03*
G04 #@! TO.N,RX_IN*
X67625000Y-104100000D03*
G04 #@! TO.N,BOOTSEL*
X76625001Y-106450001D03*
X79390394Y-105853817D03*
X85925000Y-90980000D03*
G04 #@! TO.N,Net-(U1-BOOT0)*
X89425000Y-92000000D03*
X93175000Y-91480000D03*
G04 #@! TO.N,/Primary Power/6V_PG*
X108425000Y-116800000D03*
X115501180Y-128250000D03*
G04 #@! TO.N,IntTrigP*
X103675000Y-74750000D03*
X107936397Y-73261397D03*
G04 #@! TO.N,HVPWM*
X107925000Y-105000000D03*
X104425000Y-105000000D03*
G04 #@! TO.N,PulseEN*
X107922511Y-74161293D03*
X104175000Y-75750000D03*
G04 #@! TO.N,Net-(U3-USBDP)*
X65175000Y-109750000D03*
X74675000Y-105051000D03*
G04 #@! TO.N,Net-(U3-USBDM)*
X74151389Y-105783009D03*
X65723741Y-110463364D03*
G04 #@! TO.N,GNDFLY*
X129192500Y-94180000D03*
X119692500Y-93180000D03*
X114247500Y-78805000D03*
G04 #@! TO.N,GND*
X76425000Y-99750000D03*
X90175000Y-105750000D03*
X188755000Y-73117500D03*
X62925000Y-104500000D03*
D29*
X64925000Y-125500000D03*
D28*
X62675000Y-108250000D03*
X186350000Y-68750000D03*
X65175000Y-92500000D03*
X70775000Y-99750000D03*
D29*
X71925000Y-125000000D03*
X127675000Y-122250000D03*
D28*
X91425000Y-89980000D03*
X104675000Y-117000000D03*
X100675000Y-117000000D03*
X85675000Y-99000000D03*
D29*
X97925000Y-128500000D03*
D28*
X129175000Y-100500000D03*
X103175000Y-95730000D03*
X158425000Y-105750000D03*
D29*
X127675000Y-129250000D03*
X97925000Y-123250000D03*
D28*
X96925000Y-107250000D03*
X109425000Y-117750000D03*
X71675000Y-103000000D03*
D29*
X62925000Y-124500000D03*
X74675000Y-126750000D03*
D28*
X69925000Y-111250000D03*
G04 #@! TD*
D31*
G04 #@! TO.N,Probe+*
X235825000Y-84750000D02*
X232500000Y-84750000D01*
X232500000Y-84750000D02*
X229500000Y-87750000D01*
X232500000Y-107500000D02*
X233750000Y-107500000D01*
X229500000Y-87750000D02*
X229500000Y-104500000D01*
X229500000Y-104500000D02*
X232500000Y-107500000D01*
D32*
G04 #@! TO.N,+3V3*
X91925000Y-102250000D02*
X90675000Y-101000000D01*
X91925000Y-102750000D02*
X91925000Y-102250000D01*
X98675000Y-102000000D02*
X98675000Y-101250000D01*
X93675000Y-102000000D02*
X97425000Y-102000000D01*
X97425000Y-102000000D02*
X98015352Y-102590352D01*
X92925000Y-102750000D02*
X93675000Y-102000000D01*
X98675000Y-95570162D02*
X98675000Y-99000000D01*
X91925000Y-102750000D02*
X92925000Y-102750000D01*
X98015352Y-102659648D02*
X98675000Y-102000000D01*
X98015352Y-102590352D02*
X98015352Y-102674000D01*
X90675000Y-101000000D02*
X90675000Y-95500000D01*
X98015352Y-102674000D02*
X98015352Y-102659648D01*
G04 #@! TO.N,RST*
X83425000Y-90000000D02*
X83425000Y-87020000D01*
X84797648Y-91372648D02*
X83425000Y-90000000D01*
X84797648Y-92172648D02*
X84797648Y-91372648D01*
X77038866Y-105250000D02*
X79002847Y-105250000D01*
X84875000Y-92250000D02*
X84797648Y-92172648D01*
X83425000Y-87020000D02*
X81675000Y-85270000D01*
X79002847Y-105250000D02*
X79100030Y-105152817D01*
X79777941Y-105250000D02*
X80175000Y-105250000D01*
X79680758Y-105152817D02*
X79777941Y-105250000D01*
X79100030Y-105152817D02*
X79680758Y-105152817D01*
X76984067Y-105195201D02*
X77038866Y-105250000D01*
D33*
G04 #@! TO.N,+5V*
X107716590Y-75500000D02*
X109175000Y-74041590D01*
X105625000Y-75700000D02*
X105825000Y-75500000D01*
X75804525Y-105130525D02*
X75675000Y-105260050D01*
X75675000Y-105260050D02*
X75675000Y-110000000D01*
X105525000Y-76250000D02*
X105625000Y-76150000D01*
X109175000Y-74041590D02*
X109175000Y-73000000D01*
X100925000Y-111250000D02*
X95925000Y-111250000D01*
X75675000Y-110000000D02*
X76925000Y-111250000D01*
X81175000Y-111250000D02*
X76925000Y-111250000D01*
X105625000Y-76150000D02*
X105625000Y-75700000D01*
X105825000Y-75500000D02*
X107716590Y-75500000D01*
D34*
G04 #@! TO.N,Net-(U3-3V3OUT)*
X64425000Y-110250000D02*
X65675000Y-111500000D01*
X64017597Y-106626578D02*
X63926844Y-106717331D01*
X64425000Y-107750000D02*
X64425000Y-110250000D01*
X64425000Y-107750000D02*
X64420205Y-107750000D01*
X64420205Y-107750000D02*
X63926844Y-107256639D01*
X64017597Y-106135325D02*
X64017597Y-106626578D01*
X63926844Y-106717331D02*
X63926844Y-107256639D01*
D33*
G04 #@! TO.N,+6V*
X113101180Y-119475000D02*
X113101180Y-130975000D01*
X108175000Y-111250000D02*
X109425000Y-112500000D01*
X109425000Y-112500000D02*
X109425000Y-113500000D01*
X113101180Y-130975000D02*
X116101180Y-133975000D01*
X116101180Y-133975000D02*
X122351180Y-133975000D01*
G04 #@! TO.N,Net-(U6-VCC)*
X87175000Y-130750000D02*
X88675000Y-130750000D01*
X88675000Y-130750000D02*
X93425000Y-126000000D01*
G04 #@! TO.N,Net-(U7-VCC)*
X116918090Y-131743090D02*
X122851180Y-125810000D01*
G04 #@! TO.N,HVVS-*
X104925000Y-108250000D02*
X106925000Y-108250000D01*
X102675000Y-106000000D02*
X104925000Y-108250000D01*
X106925000Y-108250000D02*
X107425000Y-108750000D01*
D34*
X92440165Y-100995165D02*
X92050140Y-101385190D01*
X92969999Y-100455001D02*
X92440165Y-100984835D01*
D33*
X102675000Y-102250000D02*
X102675000Y-106000000D01*
D34*
X102675000Y-100775654D02*
X102354347Y-100455001D01*
X102354347Y-100455001D02*
X92969999Y-100455001D01*
X102675000Y-101250000D02*
X102675000Y-100775654D01*
X92440165Y-100984835D02*
X92440165Y-100995165D01*
G04 #@! TO.N,HVVS+*
X102689363Y-99897986D02*
X102632014Y-99897986D01*
D33*
X103575003Y-105650003D02*
X105425000Y-107500000D01*
X105425000Y-107500000D02*
X107425000Y-107500000D01*
X103575003Y-102250000D02*
X103476000Y-102250000D01*
D34*
X91920001Y-100004999D02*
X91425000Y-100500000D01*
X102632014Y-99897986D02*
X102525001Y-100004999D01*
D33*
X103575003Y-105349997D02*
X103575003Y-105650003D01*
X103575003Y-105349997D02*
X103575003Y-102250000D01*
D34*
X102525001Y-100004999D02*
X91920001Y-100004999D01*
D35*
G04 #@! TO.N,+22V*
X106376000Y-111549000D02*
X106376000Y-132675180D01*
X85925000Y-134000000D02*
X82425000Y-130500000D01*
X106376000Y-132675180D02*
X105510076Y-133541104D01*
X89967284Y-134000000D02*
X85925000Y-134000000D01*
X110675000Y-107250000D02*
X106376000Y-111549000D01*
X82425000Y-130500000D02*
X82425000Y-120500000D01*
X90426180Y-133541104D02*
X89967284Y-134000000D01*
X105510076Y-133541104D02*
X109351180Y-129700000D01*
X90851180Y-133541104D02*
X105510076Y-133541104D01*
X90851180Y-133541104D02*
X90426180Y-133541104D01*
D36*
G04 #@! TO.N,Net-(D6-K)*
X196850000Y-69712500D02*
X196850000Y-74462500D01*
X198618750Y-67943750D02*
X196850000Y-69712500D01*
D31*
G04 #@! TO.N,PulseCS-*
X219715000Y-114000000D02*
X214635000Y-114000000D01*
X214835000Y-104930000D02*
X214835000Y-110010000D01*
X214635000Y-114000000D02*
X214635000Y-119080000D01*
X219915000Y-104930000D02*
X214835000Y-104930000D01*
X214635000Y-119080000D02*
X219715000Y-119080000D01*
X214835000Y-110010000D02*
X219915000Y-110010000D01*
D36*
G04 #@! TO.N,HVCS*
X103925000Y-97250000D02*
X107675000Y-93500000D01*
D33*
G04 #@! TO.N,HWTrig+*
X83525000Y-98050000D02*
X83475000Y-98000000D01*
X75225000Y-84500000D02*
X75225000Y-85800000D01*
X75225000Y-85800000D02*
X79675000Y-90250000D01*
X83525000Y-102000000D02*
X83525000Y-98050000D01*
D37*
G04 #@! TO.N,Probe-*
X238375000Y-82200000D02*
X238375000Y-87300000D01*
X233275000Y-87300000D02*
X238375000Y-87300000D01*
X238375000Y-82200000D02*
X233275000Y-82200000D01*
D34*
G04 #@! TO.N,/Control/VBUS*
X65681000Y-95944000D02*
X69051900Y-95944000D01*
X69051900Y-95944000D02*
X69274000Y-96166100D01*
X65525000Y-96100000D02*
X65681000Y-95944000D01*
X69274000Y-100401000D02*
X67675000Y-102000000D01*
X69274000Y-96166100D02*
X69274000Y-100401000D01*
G04 #@! TO.N,Net-(J5-D--PadA7)*
X69675000Y-96000000D02*
X69675000Y-101750000D01*
X69675000Y-101750000D02*
X70425000Y-102500000D01*
X66123740Y-95500000D02*
X69175000Y-95500000D01*
X69175000Y-95500000D02*
X69675000Y-96000000D01*
X65910459Y-95286719D02*
X66123740Y-95500000D01*
G04 #@! TO.N,Net-(J5-CC2)*
X65175000Y-100750000D02*
X65175000Y-99500000D01*
X64425000Y-101500000D02*
X65175000Y-100750000D01*
X65175000Y-99500000D02*
X65975000Y-98700000D01*
X65975000Y-98700000D02*
X65975000Y-98500000D01*
X63925000Y-101500000D02*
X64425000Y-101500000D01*
G04 #@! TO.N,Net-(J5-D+-PadA6)*
X64625000Y-98050000D02*
X65075000Y-98500000D01*
X64625000Y-97750000D02*
X64625000Y-98050000D01*
G04 #@! TO.N,TX_IN*
X74944654Y-104400000D02*
X75045654Y-104501000D01*
X75534871Y-104479525D02*
X76074179Y-104479525D01*
X64577844Y-106986985D02*
X64577844Y-106847156D01*
X88675000Y-106757100D02*
X88675000Y-108730000D01*
X76095654Y-104501000D02*
X86418900Y-104501000D01*
X76074179Y-104479525D02*
X76095654Y-104501000D01*
X68760327Y-104750000D02*
X69009327Y-104501000D01*
X66675000Y-104750000D02*
X68760327Y-104750000D01*
X75513396Y-104501000D02*
X75534871Y-104479525D01*
X74304346Y-104501000D02*
X74405346Y-104400000D01*
X86418900Y-104501000D02*
X88675000Y-106757100D01*
X75045654Y-104501000D02*
X75513396Y-104501000D01*
X64577844Y-106847156D02*
X66675000Y-104750000D01*
X74405346Y-104400000D02*
X74944654Y-104400000D01*
X69009327Y-104501000D02*
X74304346Y-104501000D01*
G04 #@! TO.N,RX_IN*
X67625000Y-104100000D02*
X67725000Y-104000000D01*
X86485000Y-104000000D02*
X91215000Y-108730000D01*
X67725000Y-104000000D02*
X86485000Y-104000000D01*
D32*
G04 #@! TO.N,BOOTSEL*
X77221186Y-105853817D02*
X79390394Y-105853817D01*
X85016648Y-90821648D02*
X83926000Y-89731000D01*
X85925000Y-90980000D02*
X85184232Y-90980000D01*
X83926000Y-87289000D02*
X85925000Y-85290000D01*
X85025880Y-90821648D02*
X85016648Y-90821648D01*
X85184232Y-90980000D02*
X85025880Y-90821648D01*
X76625001Y-106450001D02*
X77221186Y-105853817D01*
X83926000Y-89731000D02*
X83926000Y-87289000D01*
D34*
G04 #@! TO.N,Net-(U1-BOOT0)*
X93155000Y-91500000D02*
X93175000Y-91480000D01*
D32*
X89925000Y-91500000D02*
X93155000Y-91500000D01*
X89425000Y-92000000D02*
X89925000Y-91500000D01*
G04 #@! TO.N,/Primary Power/6V_PG*
X110755000Y-116080000D02*
X109355050Y-116080000D01*
X115501180Y-128250000D02*
X115501180Y-120826180D01*
X109355050Y-116080000D02*
X108635050Y-116800000D01*
X108635050Y-116800000D02*
X108425000Y-116800000D01*
X115501180Y-120826180D02*
X110755000Y-116080000D01*
G04 #@! TO.N,IntTrigP*
X103675000Y-74750000D02*
X104425000Y-74750000D01*
X105913603Y-73261397D02*
X107936397Y-73261397D01*
X104425000Y-74750000D02*
X105913603Y-73261397D01*
G04 #@! TO.N,HVPWM*
X104425000Y-105000000D02*
X107925000Y-105000000D01*
G04 #@! TO.N,PulseEN*
X107833804Y-74250000D02*
X107922511Y-74161293D01*
X105675000Y-74250000D02*
X107833804Y-74250000D01*
X104175000Y-75750000D02*
X105675000Y-74250000D01*
D34*
G04 #@! TO.N,Net-(U3-USBDP)*
X65175000Y-109750000D02*
X67425000Y-109750000D01*
X70066477Y-108400002D02*
X73415479Y-105051000D01*
X73415479Y-105051000D02*
X74675000Y-105051000D01*
X68774998Y-108400002D02*
X70066477Y-108400002D01*
X67425000Y-109750000D02*
X68774998Y-108400002D01*
G04 #@! TO.N,Net-(U3-USBDM)*
X74151389Y-105783009D02*
X73391991Y-105783009D01*
X73391991Y-105783009D02*
X69384186Y-109790814D01*
X67450313Y-110463364D02*
X65723741Y-110463364D01*
X69384186Y-109790814D02*
X68122863Y-109790814D01*
X68122863Y-109790814D02*
X67450313Y-110463364D01*
D36*
G04 #@! TO.N,GNDFLY*
X129192500Y-94180000D02*
X128192500Y-93180000D01*
X128192500Y-93180000D02*
X119692500Y-93180000D01*
D33*
G04 #@! TO.N,GND*
X186350000Y-69962500D02*
X186350000Y-68750000D01*
X61925000Y-97750000D02*
X61925000Y-98500000D01*
X188600000Y-72962500D02*
X188600000Y-72212500D01*
X188600000Y-72212500D02*
X186350000Y-69962500D01*
X67775000Y-97750000D02*
X67775000Y-98500000D01*
X188755000Y-73117500D02*
X188600000Y-72962500D01*
G04 #@! TD*
G04 #@! TA.AperFunction,Conductor*
G04 #@! TO.N,GNDFLY*
G36*
X128764161Y-76046506D02*
G01*
X128783603Y-76061956D01*
X129709981Y-76963487D01*
X129744297Y-77024349D01*
X129747500Y-77052352D01*
X129747500Y-94848412D01*
X129727815Y-94915451D01*
X129675011Y-94961206D01*
X129624093Y-94972411D01*
X118372093Y-95026225D01*
X118304960Y-95006861D01*
X118258953Y-94954276D01*
X118247500Y-94902226D01*
X118247500Y-82276821D01*
X117247500Y-81276821D01*
X113798862Y-81276821D01*
X113731823Y-81257136D01*
X113711181Y-81240502D01*
X112783819Y-80313140D01*
X112750334Y-80251817D01*
X112747500Y-80225459D01*
X112747500Y-77294237D01*
X112767185Y-77227198D01*
X112775499Y-77215752D01*
X112909086Y-77052352D01*
X113710290Y-76072336D01*
X113767962Y-76032894D01*
X113806291Y-76026821D01*
X128697122Y-76026821D01*
X128764161Y-76046506D01*
G37*
G04 #@! TD.AperFunction*
G04 #@! TD*
G04 #@! TA.AperFunction,Conductor*
G04 #@! TO.N,PulseCS-*
G36*
X187690094Y-75769685D02*
G01*
X187711435Y-75787023D01*
X202920197Y-91241088D01*
X202953190Y-91302677D01*
X202947648Y-91372327D01*
X202932136Y-91400949D01*
X202881130Y-91471154D01*
X202881129Y-91471156D01*
X202766760Y-91695616D01*
X202688910Y-91935214D01*
X202649500Y-92184038D01*
X202649500Y-92435961D01*
X202688910Y-92684785D01*
X202766760Y-92924383D01*
X202881132Y-93148848D01*
X203029201Y-93352649D01*
X203029205Y-93352654D01*
X203207345Y-93530794D01*
X203207350Y-93530798D01*
X203385117Y-93659952D01*
X203411155Y-93678870D01*
X203554184Y-93751747D01*
X203635616Y-93793239D01*
X203635618Y-93793239D01*
X203635621Y-93793241D01*
X203875215Y-93871090D01*
X204124038Y-93910500D01*
X204124039Y-93910500D01*
X204375961Y-93910500D01*
X204375962Y-93910500D01*
X204624785Y-93871090D01*
X204864379Y-93793241D01*
X205088845Y-93678870D01*
X205292656Y-93530793D01*
X205470793Y-93352656D01*
X205618870Y-93148845D01*
X205733241Y-92924379D01*
X205811090Y-92684785D01*
X205850500Y-92435962D01*
X205850500Y-92184038D01*
X205811090Y-91935215D01*
X205733241Y-91695621D01*
X205733238Y-91695617D01*
X205733238Y-91695614D01*
X205725433Y-91680296D01*
X205712536Y-91611626D01*
X205738812Y-91546886D01*
X205795918Y-91506628D01*
X205835917Y-91500000D01*
X220164083Y-91500000D01*
X220231122Y-91519685D01*
X220276877Y-91572489D01*
X220286821Y-91641647D01*
X220274567Y-91680296D01*
X220266761Y-91695614D01*
X220188910Y-91935214D01*
X220149500Y-92184038D01*
X220149500Y-92435961D01*
X220188910Y-92684785D01*
X220266760Y-92924383D01*
X220381132Y-93148848D01*
X220529201Y-93352649D01*
X220529205Y-93352654D01*
X220707345Y-93530794D01*
X220707350Y-93530798D01*
X220885117Y-93659952D01*
X220911155Y-93678870D01*
X221054184Y-93751747D01*
X221135616Y-93793239D01*
X221135618Y-93793239D01*
X221135621Y-93793241D01*
X221375215Y-93871090D01*
X221624038Y-93910500D01*
X221624039Y-93910500D01*
X221875961Y-93910500D01*
X221875962Y-93910500D01*
X222124785Y-93871090D01*
X222364379Y-93793241D01*
X222588845Y-93678870D01*
X222792656Y-93530793D01*
X222970793Y-93352656D01*
X223118870Y-93148845D01*
X223233241Y-92924379D01*
X223311090Y-92684785D01*
X223350500Y-92435962D01*
X223350500Y-92184038D01*
X223311090Y-91935215D01*
X223233241Y-91695621D01*
X223233238Y-91695617D01*
X223233238Y-91695614D01*
X223225433Y-91680296D01*
X223212536Y-91611626D01*
X223238812Y-91546886D01*
X223295918Y-91506628D01*
X223335917Y-91500000D01*
X225373638Y-91500000D01*
X225440677Y-91519685D01*
X225461319Y-91536319D01*
X228313181Y-94388181D01*
X228346666Y-94449504D01*
X228349500Y-94475862D01*
X228349500Y-104405038D01*
X228349499Y-104405053D01*
X228349499Y-104590544D01*
X228377829Y-104769410D01*
X228433787Y-104941636D01*
X228433788Y-104941639D01*
X228489664Y-105051300D01*
X228509064Y-105089374D01*
X228516006Y-105102997D01*
X228622440Y-105249493D01*
X228622444Y-105249497D01*
X228622447Y-105249501D01*
X228720083Y-105347137D01*
X228754829Y-105381883D01*
X228754840Y-105381893D01*
X230123447Y-106750500D01*
X230388681Y-107015733D01*
X230422166Y-107077056D01*
X230425000Y-107103414D01*
X230425000Y-114694601D01*
X230405315Y-114761640D01*
X230352511Y-114807395D01*
X230283353Y-114817339D01*
X230253547Y-114809162D01*
X230096104Y-114743947D01*
X229932093Y-114700000D01*
X229861789Y-114681162D01*
X229861788Y-114681161D01*
X229861785Y-114681161D01*
X229621289Y-114649500D01*
X229621288Y-114649500D01*
X229378712Y-114649500D01*
X229378711Y-114649500D01*
X229138214Y-114681161D01*
X228903895Y-114743947D01*
X228679794Y-114836773D01*
X228679785Y-114836777D01*
X228499792Y-114940697D01*
X228489689Y-114946530D01*
X228469706Y-114958067D01*
X228277263Y-115105733D01*
X228277256Y-115105739D01*
X228105739Y-115277256D01*
X228105733Y-115277263D01*
X227958067Y-115469706D01*
X227836777Y-115679785D01*
X227836773Y-115679794D01*
X227743947Y-115903895D01*
X227681161Y-116138214D01*
X227649500Y-116378711D01*
X227649500Y-116621288D01*
X227681161Y-116861785D01*
X227743947Y-117096104D01*
X227807601Y-117249778D01*
X227836776Y-117320212D01*
X227958064Y-117530289D01*
X227958066Y-117530292D01*
X227958067Y-117530293D01*
X228105733Y-117722736D01*
X228105739Y-117722743D01*
X228277256Y-117894260D01*
X228277262Y-117894265D01*
X228469711Y-118041936D01*
X228679788Y-118163224D01*
X228761640Y-118197128D01*
X228903892Y-118256051D01*
X228903894Y-118256051D01*
X228903900Y-118256054D01*
X228905467Y-118256473D01*
X228905883Y-118256727D01*
X228907738Y-118257357D01*
X228907597Y-118257771D01*
X228965129Y-118292830D01*
X228995666Y-118355673D01*
X228987379Y-118425050D01*
X228961066Y-118463932D01*
X225461319Y-121963681D01*
X225399996Y-121997166D01*
X225373638Y-122000000D01*
X206976362Y-122000000D01*
X206909323Y-121980315D01*
X206888681Y-121963681D01*
X198799071Y-113874071D01*
X213035000Y-113874071D01*
X213035000Y-114125928D01*
X213074397Y-114374669D01*
X213152219Y-114614184D01*
X213266557Y-114838583D01*
X213340748Y-114940697D01*
X213340748Y-114940698D01*
X213995690Y-114285756D01*
X214014668Y-114331574D01*
X214091274Y-114446224D01*
X214188776Y-114543726D01*
X214303426Y-114620332D01*
X214349242Y-114639309D01*
X213694300Y-115294250D01*
X213796416Y-115368442D01*
X214020815Y-115482780D01*
X214260330Y-115560602D01*
X214509072Y-115600000D01*
X214760928Y-115600000D01*
X215009669Y-115560602D01*
X215249186Y-115482779D01*
X215344204Y-115434365D01*
X215412873Y-115421468D01*
X215477614Y-115447744D01*
X215517871Y-115504850D01*
X215524500Y-115544849D01*
X215524500Y-117535150D01*
X215504815Y-117602189D01*
X215452011Y-117647944D01*
X215382853Y-117657888D01*
X215344205Y-117645635D01*
X215249184Y-117597219D01*
X215009669Y-117519397D01*
X214760928Y-117480000D01*
X214509072Y-117480000D01*
X214260330Y-117519397D01*
X214020815Y-117597219D01*
X213796413Y-117711559D01*
X213694301Y-117785747D01*
X213694300Y-117785748D01*
X214349243Y-118440690D01*
X214303426Y-118459668D01*
X214188776Y-118536274D01*
X214091274Y-118633776D01*
X214014668Y-118748426D01*
X213995690Y-118794242D01*
X213340748Y-118139300D01*
X213340747Y-118139301D01*
X213266559Y-118241413D01*
X213152219Y-118465815D01*
X213074397Y-118705330D01*
X213035000Y-118954071D01*
X213035000Y-119205928D01*
X213074397Y-119454669D01*
X213152219Y-119694184D01*
X213266557Y-119918583D01*
X213340748Y-120020697D01*
X213340748Y-120020698D01*
X213995690Y-119365756D01*
X214014668Y-119411574D01*
X214091274Y-119526224D01*
X214188776Y-119623726D01*
X214303426Y-119700332D01*
X214349242Y-119719309D01*
X213694300Y-120374250D01*
X213796416Y-120448442D01*
X214020815Y-120562780D01*
X214260330Y-120640602D01*
X214509072Y-120680000D01*
X214760928Y-120680000D01*
X215009669Y-120640602D01*
X215249184Y-120562780D01*
X215473575Y-120448446D01*
X215473581Y-120448442D01*
X215575697Y-120374250D01*
X215575698Y-120374250D01*
X214920757Y-119719309D01*
X214966574Y-119700332D01*
X215081224Y-119623726D01*
X215178726Y-119526224D01*
X215255332Y-119411574D01*
X215274309Y-119365756D01*
X215929250Y-120020698D01*
X215929250Y-120020697D01*
X216003442Y-119918581D01*
X216003446Y-119918575D01*
X216117780Y-119694184D01*
X216195602Y-119454669D01*
X216235000Y-119205928D01*
X216235000Y-118954071D01*
X216195602Y-118705330D01*
X216117780Y-118465815D01*
X216069365Y-118370795D01*
X216056469Y-118302126D01*
X216082745Y-118237385D01*
X216139852Y-118197128D01*
X216179850Y-118190500D01*
X218170150Y-118190500D01*
X218237189Y-118210185D01*
X218282944Y-118262989D01*
X218292888Y-118332147D01*
X218280635Y-118370795D01*
X218232219Y-118465815D01*
X218154397Y-118705330D01*
X218115000Y-118954071D01*
X218115000Y-119205928D01*
X218154397Y-119454669D01*
X218232219Y-119694184D01*
X218346557Y-119918583D01*
X218420748Y-120020697D01*
X218420748Y-120020698D01*
X219075689Y-119365756D01*
X219094668Y-119411574D01*
X219171274Y-119526224D01*
X219268776Y-119623726D01*
X219383426Y-119700332D01*
X219429242Y-119719309D01*
X218774300Y-120374250D01*
X218876416Y-120448442D01*
X219100815Y-120562780D01*
X219340330Y-120640602D01*
X219589072Y-120680000D01*
X219840928Y-120680000D01*
X220089669Y-120640602D01*
X220329184Y-120562780D01*
X220553575Y-120448446D01*
X220553581Y-120448442D01*
X220655697Y-120374250D01*
X220655698Y-120374250D01*
X220000757Y-119719309D01*
X220046574Y-119700332D01*
X220161224Y-119623726D01*
X220258726Y-119526224D01*
X220335332Y-119411574D01*
X220354309Y-119365757D01*
X221009250Y-120020698D01*
X221009250Y-120020697D01*
X221083442Y-119918581D01*
X221083446Y-119918575D01*
X221197780Y-119694184D01*
X221275602Y-119454669D01*
X221315000Y-119205928D01*
X221315000Y-118954071D01*
X221275602Y-118705330D01*
X221197780Y-118465815D01*
X221083442Y-118241416D01*
X221009250Y-118139301D01*
X221009250Y-118139300D01*
X220354309Y-118794241D01*
X220335332Y-118748426D01*
X220258726Y-118633776D01*
X220161224Y-118536274D01*
X220046574Y-118459668D01*
X220000756Y-118440689D01*
X220655698Y-117785748D01*
X220553583Y-117711557D01*
X220329184Y-117597219D01*
X220089669Y-117519397D01*
X219840928Y-117480000D01*
X219589072Y-117480000D01*
X219340330Y-117519397D01*
X219100815Y-117597219D01*
X219005795Y-117645635D01*
X218937126Y-117658531D01*
X218872385Y-117632255D01*
X218832128Y-117575148D01*
X218825500Y-117535150D01*
X218825500Y-115544849D01*
X218845185Y-115477810D01*
X218897989Y-115432055D01*
X218967147Y-115422111D01*
X219005796Y-115434365D01*
X219100813Y-115482779D01*
X219340330Y-115560602D01*
X219589072Y-115600000D01*
X219840928Y-115600000D01*
X220089669Y-115560602D01*
X220329184Y-115482780D01*
X220553575Y-115368446D01*
X220553581Y-115368442D01*
X220655697Y-115294250D01*
X220655698Y-115294250D01*
X220000756Y-114639309D01*
X220046574Y-114620332D01*
X220161224Y-114543726D01*
X220258726Y-114446224D01*
X220335332Y-114331574D01*
X220354309Y-114285757D01*
X221009250Y-114940698D01*
X221009250Y-114940697D01*
X221083442Y-114838581D01*
X221083446Y-114838575D01*
X221197780Y-114614184D01*
X221275602Y-114374669D01*
X221315000Y-114125928D01*
X221315000Y-113874071D01*
X221275602Y-113625330D01*
X221197780Y-113385815D01*
X221083442Y-113161416D01*
X221009250Y-113059301D01*
X221009250Y-113059300D01*
X220354309Y-113714241D01*
X220335332Y-113668426D01*
X220258726Y-113553776D01*
X220161224Y-113456274D01*
X220046574Y-113379668D01*
X220000755Y-113360689D01*
X220655698Y-112705748D01*
X220553583Y-112631557D01*
X220329184Y-112517219D01*
X220089669Y-112439397D01*
X219840928Y-112400000D01*
X219589072Y-112400000D01*
X219340330Y-112439397D01*
X219100815Y-112517219D01*
X218876413Y-112631559D01*
X218774301Y-112705747D01*
X218774300Y-112705748D01*
X219429242Y-113360690D01*
X219383426Y-113379668D01*
X219268776Y-113456274D01*
X219171274Y-113553776D01*
X219094668Y-113668426D01*
X219075690Y-113714243D01*
X218420748Y-113059300D01*
X218420747Y-113059301D01*
X218346559Y-113161413D01*
X218232219Y-113385815D01*
X218154397Y-113625330D01*
X218115000Y-113874071D01*
X218115000Y-114125928D01*
X218154397Y-114374669D01*
X218232219Y-114614184D01*
X218280635Y-114709205D01*
X218293531Y-114777874D01*
X218267255Y-114842615D01*
X218210148Y-114882872D01*
X218170150Y-114889500D01*
X216179850Y-114889500D01*
X216112811Y-114869815D01*
X216067056Y-114817011D01*
X216057112Y-114747853D01*
X216069365Y-114709205D01*
X216117780Y-114614184D01*
X216195602Y-114374669D01*
X216235000Y-114125928D01*
X216235000Y-113874071D01*
X216195602Y-113625330D01*
X216117780Y-113385815D01*
X216003442Y-113161416D01*
X215929250Y-113059301D01*
X215929250Y-113059300D01*
X215274309Y-113714242D01*
X215255332Y-113668426D01*
X215178726Y-113553776D01*
X215081224Y-113456274D01*
X214966574Y-113379668D01*
X214920755Y-113360689D01*
X215575698Y-112705748D01*
X215473583Y-112631557D01*
X215249184Y-112517219D01*
X215009669Y-112439397D01*
X214760928Y-112400000D01*
X214509072Y-112400000D01*
X214260330Y-112439397D01*
X214020815Y-112517219D01*
X213796413Y-112631559D01*
X213694301Y-112705747D01*
X213694300Y-112705748D01*
X214349242Y-113360690D01*
X214303426Y-113379668D01*
X214188776Y-113456274D01*
X214091274Y-113553776D01*
X214014668Y-113668426D01*
X213995690Y-113714242D01*
X213340748Y-113059300D01*
X213340747Y-113059301D01*
X213266559Y-113161413D01*
X213152219Y-113385815D01*
X213074397Y-113625330D01*
X213035000Y-113874071D01*
X198799071Y-113874071D01*
X189729071Y-104804071D01*
X213035000Y-104804071D01*
X213035000Y-105055928D01*
X213074397Y-105304669D01*
X213152219Y-105544184D01*
X213266557Y-105768583D01*
X213340748Y-105870697D01*
X213340748Y-105870698D01*
X213995690Y-105215756D01*
X214014668Y-105261574D01*
X214091274Y-105376224D01*
X214188776Y-105473726D01*
X214303426Y-105550332D01*
X214349242Y-105569309D01*
X213694300Y-106224250D01*
X213796416Y-106298442D01*
X214020815Y-106412780D01*
X214260330Y-106490602D01*
X214509072Y-106530000D01*
X214760928Y-106530000D01*
X215009669Y-106490602D01*
X215249186Y-106412779D01*
X215344204Y-106364365D01*
X215412873Y-106351468D01*
X215477614Y-106377744D01*
X215517871Y-106434850D01*
X215524500Y-106474849D01*
X215524500Y-108465150D01*
X215504815Y-108532189D01*
X215452011Y-108577944D01*
X215382853Y-108587888D01*
X215344205Y-108575635D01*
X215249184Y-108527219D01*
X215009669Y-108449397D01*
X214760928Y-108410000D01*
X214509072Y-108410000D01*
X214260330Y-108449397D01*
X214020815Y-108527219D01*
X213796413Y-108641559D01*
X213694301Y-108715747D01*
X213694300Y-108715748D01*
X214349243Y-109370690D01*
X214303426Y-109389668D01*
X214188776Y-109466274D01*
X214091274Y-109563776D01*
X214014668Y-109678426D01*
X213995690Y-109724242D01*
X213340748Y-109069300D01*
X213340747Y-109069301D01*
X213266559Y-109171413D01*
X213152219Y-109395815D01*
X213074397Y-109635330D01*
X213035000Y-109884071D01*
X213035000Y-110135928D01*
X213074397Y-110384669D01*
X213152219Y-110624184D01*
X213266557Y-110848583D01*
X213340748Y-110950697D01*
X213340748Y-110950698D01*
X213995690Y-110295756D01*
X214014668Y-110341574D01*
X214091274Y-110456224D01*
X214188776Y-110553726D01*
X214303426Y-110630332D01*
X214349242Y-110649309D01*
X213694300Y-111304250D01*
X213796416Y-111378442D01*
X214020815Y-111492780D01*
X214260330Y-111570602D01*
X214509072Y-111610000D01*
X214760928Y-111610000D01*
X215009669Y-111570602D01*
X215249184Y-111492780D01*
X215473575Y-111378446D01*
X215473581Y-111378442D01*
X215575697Y-111304250D01*
X215575698Y-111304250D01*
X214920757Y-110649309D01*
X214966574Y-110630332D01*
X215081224Y-110553726D01*
X215178726Y-110456224D01*
X215255332Y-110341574D01*
X215274309Y-110295756D01*
X215929250Y-110950698D01*
X215929250Y-110950697D01*
X216003442Y-110848581D01*
X216003446Y-110848575D01*
X216117780Y-110624184D01*
X216195602Y-110384669D01*
X216235000Y-110135928D01*
X216235000Y-109884071D01*
X216195602Y-109635330D01*
X216117780Y-109395815D01*
X216069365Y-109300795D01*
X216056469Y-109232126D01*
X216082745Y-109167385D01*
X216139852Y-109127128D01*
X216179850Y-109120500D01*
X218170150Y-109120500D01*
X218237189Y-109140185D01*
X218282944Y-109192989D01*
X218292888Y-109262147D01*
X218280635Y-109300795D01*
X218232219Y-109395815D01*
X218154397Y-109635330D01*
X218115000Y-109884071D01*
X218115000Y-110135928D01*
X218154397Y-110384669D01*
X218232219Y-110624184D01*
X218346557Y-110848583D01*
X218420748Y-110950697D01*
X218420748Y-110950698D01*
X219075689Y-110295756D01*
X219094668Y-110341574D01*
X219171274Y-110456224D01*
X219268776Y-110553726D01*
X219383426Y-110630332D01*
X219429242Y-110649309D01*
X218774300Y-111304250D01*
X218876416Y-111378442D01*
X219100815Y-111492780D01*
X219340330Y-111570602D01*
X219589072Y-111610000D01*
X219840928Y-111610000D01*
X220089669Y-111570602D01*
X220329184Y-111492780D01*
X220553575Y-111378446D01*
X220553581Y-111378442D01*
X220655697Y-111304250D01*
X220655698Y-111304250D01*
X220000757Y-110649309D01*
X220046574Y-110630332D01*
X220161224Y-110553726D01*
X220258726Y-110456224D01*
X220335332Y-110341574D01*
X220354309Y-110295757D01*
X221009250Y-110950698D01*
X221009250Y-110950697D01*
X221083442Y-110848581D01*
X221083446Y-110848575D01*
X221197780Y-110624184D01*
X221275602Y-110384669D01*
X221315000Y-110135928D01*
X221315000Y-109884071D01*
X221275602Y-109635330D01*
X221197780Y-109395815D01*
X221083442Y-109171416D01*
X221009250Y-109069301D01*
X221009250Y-109069300D01*
X220354309Y-109724241D01*
X220335332Y-109678426D01*
X220258726Y-109563776D01*
X220161224Y-109466274D01*
X220046574Y-109389668D01*
X220000756Y-109370689D01*
X220655698Y-108715748D01*
X220553583Y-108641557D01*
X220329184Y-108527219D01*
X220089669Y-108449397D01*
X219840928Y-108410000D01*
X219589072Y-108410000D01*
X219340330Y-108449397D01*
X219100815Y-108527219D01*
X219005795Y-108575635D01*
X218937126Y-108588531D01*
X218872385Y-108562255D01*
X218832128Y-108505148D01*
X218825500Y-108465150D01*
X218825500Y-106474849D01*
X218845185Y-106407810D01*
X218897989Y-106362055D01*
X218967147Y-106352111D01*
X219005796Y-106364365D01*
X219100813Y-106412779D01*
X219340330Y-106490602D01*
X219589072Y-106530000D01*
X219840928Y-106530000D01*
X220089669Y-106490602D01*
X220329184Y-106412780D01*
X220553575Y-106298446D01*
X220553581Y-106298442D01*
X220655697Y-106224250D01*
X220655698Y-106224250D01*
X220000756Y-105569309D01*
X220046574Y-105550332D01*
X220161224Y-105473726D01*
X220258726Y-105376224D01*
X220335332Y-105261574D01*
X220354309Y-105215757D01*
X221009250Y-105870698D01*
X221009250Y-105870697D01*
X221083442Y-105768581D01*
X221083446Y-105768575D01*
X221197780Y-105544184D01*
X221275602Y-105304669D01*
X221315000Y-105055928D01*
X221315000Y-104804071D01*
X221275602Y-104555330D01*
X221197780Y-104315815D01*
X221083442Y-104091416D01*
X221009250Y-103989301D01*
X221009250Y-103989300D01*
X220354309Y-104644241D01*
X220335332Y-104598426D01*
X220258726Y-104483776D01*
X220161224Y-104386274D01*
X220046574Y-104309668D01*
X220000755Y-104290689D01*
X220655698Y-103635748D01*
X220553583Y-103561557D01*
X220329184Y-103447219D01*
X220089669Y-103369397D01*
X219840928Y-103330000D01*
X219589072Y-103330000D01*
X219340330Y-103369397D01*
X219100815Y-103447219D01*
X218876413Y-103561559D01*
X218774301Y-103635747D01*
X218774300Y-103635748D01*
X219429242Y-104290690D01*
X219383426Y-104309668D01*
X219268776Y-104386274D01*
X219171274Y-104483776D01*
X219094668Y-104598426D01*
X219075690Y-104644243D01*
X218420748Y-103989300D01*
X218420747Y-103989301D01*
X218346559Y-104091413D01*
X218232219Y-104315815D01*
X218154397Y-104555330D01*
X218115000Y-104804071D01*
X218115000Y-105055928D01*
X218154397Y-105304669D01*
X218232219Y-105544184D01*
X218280635Y-105639205D01*
X218293531Y-105707874D01*
X218267255Y-105772615D01*
X218210148Y-105812872D01*
X218170150Y-105819500D01*
X216179850Y-105819500D01*
X216112811Y-105799815D01*
X216067056Y-105747011D01*
X216057112Y-105677853D01*
X216069365Y-105639205D01*
X216117780Y-105544184D01*
X216195602Y-105304669D01*
X216235000Y-105055928D01*
X216235000Y-104804071D01*
X216195602Y-104555330D01*
X216117780Y-104315815D01*
X216003442Y-104091416D01*
X215929250Y-103989301D01*
X215929250Y-103989300D01*
X215274309Y-104644242D01*
X215255332Y-104598426D01*
X215178726Y-104483776D01*
X215081224Y-104386274D01*
X214966574Y-104309668D01*
X214920755Y-104290689D01*
X215575698Y-103635748D01*
X215473583Y-103561557D01*
X215249184Y-103447219D01*
X215009669Y-103369397D01*
X214760928Y-103330000D01*
X214509072Y-103330000D01*
X214260330Y-103369397D01*
X214020815Y-103447219D01*
X213796413Y-103561559D01*
X213694301Y-103635747D01*
X213694300Y-103635748D01*
X214349242Y-104290690D01*
X214303426Y-104309668D01*
X214188776Y-104386274D01*
X214091274Y-104483776D01*
X214014668Y-104598426D01*
X213995690Y-104644242D01*
X213340748Y-103989300D01*
X213340747Y-103989301D01*
X213266559Y-104091413D01*
X213152219Y-104315815D01*
X213074397Y-104555330D01*
X213035000Y-104804071D01*
X189729071Y-104804071D01*
X173925000Y-89000000D01*
X150851362Y-89000000D01*
X150784323Y-88980315D01*
X150763681Y-88963681D01*
X147711319Y-85911319D01*
X147677834Y-85849996D01*
X147675000Y-85823638D01*
X147675000Y-76551362D01*
X147694685Y-76484323D01*
X147711319Y-76463681D01*
X148388681Y-75786319D01*
X148450004Y-75752834D01*
X148476362Y-75750000D01*
X187623055Y-75750000D01*
X187690094Y-75769685D01*
G37*
G04 #@! TD.AperFunction*
G04 #@! TD*
G04 #@! TA.AperFunction,Conductor*
G04 #@! TO.N,GND*
G36*
X188315677Y-63769685D02*
G01*
X188336319Y-63786319D01*
X190138681Y-65588681D01*
X190172166Y-65650004D01*
X190175000Y-65676362D01*
X190175000Y-69792388D01*
X190155315Y-69859427D01*
X190138681Y-69880069D01*
X188805069Y-71213681D01*
X188743746Y-71247166D01*
X188717388Y-71250000D01*
X182454804Y-71250000D01*
X182387765Y-71230315D01*
X182342010Y-71177511D01*
X182332066Y-71108353D01*
X182337098Y-71086996D01*
X182337098Y-71086995D01*
X182364999Y-71002797D01*
X182375500Y-70900009D01*
X182375499Y-68099992D01*
X182364999Y-67997203D01*
X182309814Y-67830666D01*
X182217712Y-67681344D01*
X182093656Y-67557288D01*
X181944334Y-67465186D01*
X181777797Y-67410001D01*
X181777795Y-67410000D01*
X181675010Y-67399500D01*
X178874998Y-67399500D01*
X178874981Y-67399501D01*
X178772203Y-67410000D01*
X178772200Y-67410001D01*
X178605668Y-67465185D01*
X178605663Y-67465187D01*
X178456342Y-67557289D01*
X178332289Y-67681342D01*
X178240187Y-67830663D01*
X178240186Y-67830666D01*
X178185001Y-67997203D01*
X178185001Y-67997204D01*
X178185000Y-67997204D01*
X178174500Y-68099983D01*
X178174500Y-70900001D01*
X178174501Y-70900018D01*
X178185000Y-71002796D01*
X178196772Y-71038319D01*
X178211454Y-71082628D01*
X178212902Y-71086995D01*
X178215304Y-71156824D01*
X178179572Y-71216866D01*
X178117052Y-71248059D01*
X178095196Y-71250000D01*
X169094919Y-71250000D01*
X169027880Y-71230315D01*
X168982125Y-71177511D01*
X168972181Y-71108353D01*
X169001206Y-71044797D01*
X169007238Y-71038319D01*
X169157623Y-70887933D01*
X169157628Y-70887928D01*
X169325249Y-70669479D01*
X169462923Y-70431021D01*
X169568295Y-70176632D01*
X169639560Y-69910666D01*
X169675500Y-69637674D01*
X169675500Y-69362326D01*
X169639560Y-69089334D01*
X169568295Y-68823368D01*
X169462923Y-68568979D01*
X169462921Y-68568976D01*
X169462919Y-68568971D01*
X169413732Y-68483778D01*
X169325249Y-68330521D01*
X169157628Y-68112072D01*
X169157623Y-68112066D01*
X168962933Y-67917376D01*
X168962926Y-67917370D01*
X168744483Y-67749754D01*
X168744482Y-67749753D01*
X168744479Y-67749751D01*
X168625995Y-67681344D01*
X168506028Y-67612080D01*
X168506017Y-67612075D01*
X168251630Y-67506704D01*
X168096676Y-67465185D01*
X167985666Y-67435440D01*
X167985660Y-67435439D01*
X167985655Y-67435438D01*
X167712684Y-67399501D01*
X167712679Y-67399500D01*
X167712674Y-67399500D01*
X167437326Y-67399500D01*
X167437320Y-67399500D01*
X167437315Y-67399501D01*
X167164344Y-67435438D01*
X167164337Y-67435439D01*
X167164334Y-67435440D01*
X167108125Y-67450500D01*
X166898369Y-67506704D01*
X166643982Y-67612075D01*
X166643971Y-67612080D01*
X166405516Y-67749754D01*
X166187073Y-67917370D01*
X166187066Y-67917376D01*
X165992376Y-68112066D01*
X165992370Y-68112073D01*
X165824754Y-68330516D01*
X165687080Y-68568971D01*
X165687075Y-68568982D01*
X165581704Y-68823369D01*
X165510441Y-69089331D01*
X165510438Y-69089344D01*
X165474501Y-69362315D01*
X165474500Y-69362332D01*
X165474500Y-69637667D01*
X165474501Y-69637684D01*
X165510438Y-69910655D01*
X165510439Y-69910660D01*
X165510440Y-69910666D01*
X165510441Y-69910668D01*
X165581704Y-70176630D01*
X165687075Y-70431017D01*
X165687080Y-70431028D01*
X165769861Y-70574407D01*
X165824751Y-70669479D01*
X165824753Y-70669482D01*
X165824754Y-70669483D01*
X165992370Y-70887926D01*
X165992376Y-70887933D01*
X166142762Y-71038319D01*
X166176247Y-71099642D01*
X166171263Y-71169334D01*
X166129391Y-71225267D01*
X166063927Y-71249684D01*
X166055081Y-71250000D01*
X106675000Y-71250000D01*
X106675000Y-72486897D01*
X106655315Y-72553936D01*
X106602511Y-72599691D01*
X106551000Y-72610897D01*
X105849532Y-72610897D01*
X105723864Y-72635894D01*
X105723854Y-72635897D01*
X105674823Y-72656207D01*
X105605484Y-72684927D01*
X105605466Y-72684937D01*
X105498935Y-72756118D01*
X105498928Y-72756124D01*
X104258258Y-73996794D01*
X104196935Y-74030279D01*
X104127243Y-74025295D01*
X104101687Y-74012216D01*
X104077863Y-73996297D01*
X104077860Y-73996295D01*
X104077859Y-73996295D01*
X103923082Y-73932184D01*
X103923074Y-73932182D01*
X103758771Y-73899500D01*
X103758767Y-73899500D01*
X103591233Y-73899500D01*
X103591228Y-73899500D01*
X103426925Y-73932182D01*
X103426917Y-73932184D01*
X103272139Y-73996295D01*
X103132837Y-74089373D01*
X103014373Y-74207837D01*
X102921295Y-74347139D01*
X102857184Y-74501917D01*
X102857182Y-74501925D01*
X102824500Y-74666228D01*
X102824500Y-74833771D01*
X102857182Y-74998074D01*
X102857184Y-74998082D01*
X102921295Y-75152860D01*
X103014373Y-75292162D01*
X103132834Y-75410623D01*
X103132838Y-75410626D01*
X103277202Y-75507088D01*
X103275734Y-75509284D01*
X103317411Y-75550201D01*
X103332891Y-75618335D01*
X103330748Y-75634819D01*
X103324500Y-75666228D01*
X103324500Y-75833771D01*
X103357182Y-75998074D01*
X103357184Y-75998082D01*
X103421295Y-76152860D01*
X103514373Y-76292162D01*
X103632837Y-76410626D01*
X103721652Y-76469970D01*
X103772137Y-76503703D01*
X103772138Y-76503703D01*
X103772139Y-76503704D01*
X103807201Y-76518227D01*
X103926918Y-76567816D01*
X104091228Y-76600499D01*
X104091232Y-76600500D01*
X104091233Y-76600500D01*
X104258768Y-76600500D01*
X104258769Y-76600499D01*
X104423082Y-76567816D01*
X104575674Y-76504609D01*
X104645140Y-76497141D01*
X104707619Y-76528415D01*
X104737685Y-76571718D01*
X104771295Y-76652860D01*
X104864373Y-76792162D01*
X104982837Y-76910626D01*
X105012011Y-76930119D01*
X105122137Y-77003703D01*
X105276918Y-77067816D01*
X105430761Y-77098417D01*
X105441228Y-77100499D01*
X105441232Y-77100500D01*
X105441233Y-77100500D01*
X105608768Y-77100500D01*
X105608769Y-77100499D01*
X105773082Y-77067816D01*
X105927863Y-77003703D01*
X106067162Y-76910626D01*
X106185626Y-76792162D01*
X106278703Y-76652863D01*
X106342816Y-76498082D01*
X106372210Y-76350309D01*
X106386924Y-76322178D01*
X106400114Y-76293297D01*
X106403002Y-76291440D01*
X106404594Y-76288398D01*
X106432181Y-76272688D01*
X106458892Y-76255523D01*
X106463486Y-76254862D01*
X106465310Y-76253824D01*
X106493827Y-76250500D01*
X106551000Y-76250500D01*
X106618039Y-76270185D01*
X106663794Y-76322989D01*
X106675000Y-76374500D01*
X106675000Y-93245848D01*
X106655315Y-93312887D01*
X106638681Y-93333529D01*
X103264375Y-96707834D01*
X103264372Y-96707838D01*
X103171299Y-96847130D01*
X103171292Y-96847143D01*
X103128482Y-96950499D01*
X103107185Y-97001913D01*
X103107182Y-97001925D01*
X103074500Y-97166228D01*
X103074500Y-97333771D01*
X103107182Y-97498074D01*
X103107184Y-97498082D01*
X103116919Y-97521584D01*
X103116919Y-97521585D01*
X103171292Y-97652856D01*
X103171299Y-97652869D01*
X103264372Y-97792161D01*
X103264375Y-97792165D01*
X103382834Y-97910624D01*
X103382838Y-97910627D01*
X103522137Y-98003704D01*
X103522139Y-98003705D01*
X103522143Y-98003707D01*
X103604222Y-98037703D01*
X103631584Y-98049037D01*
X103676918Y-98067816D01*
X103757110Y-98083767D01*
X103841228Y-98100499D01*
X103841232Y-98100500D01*
X103841233Y-98100500D01*
X104008768Y-98100500D01*
X104008769Y-98100499D01*
X104063538Y-98089605D01*
X104173074Y-98067818D01*
X104173078Y-98067816D01*
X104173082Y-98067816D01*
X104218415Y-98049037D01*
X104327863Y-98003704D01*
X104467162Y-97910627D01*
X106463319Y-95914470D01*
X106524642Y-95880985D01*
X106594334Y-95885969D01*
X106650267Y-95927841D01*
X106674684Y-95993305D01*
X106675000Y-96002151D01*
X106675000Y-99000000D01*
X141876766Y-99000000D01*
X141943805Y-99019685D01*
X141960556Y-99032593D01*
X144925000Y-101750000D01*
X156311138Y-101750000D01*
X156378177Y-101769685D01*
X156398819Y-101786319D01*
X160138681Y-105526181D01*
X160172166Y-105587504D01*
X160175000Y-105613862D01*
X160175000Y-133698730D01*
X160155315Y-133765769D01*
X160138793Y-133786299D01*
X155211218Y-138726460D01*
X155149938Y-138760023D01*
X155123755Y-138762891D01*
X66054487Y-138999855D01*
X65987395Y-138980348D01*
X65963044Y-138959965D01*
X60115277Y-132624884D01*
X63348080Y-132624884D01*
X63348080Y-132821617D01*
X63378853Y-133015913D01*
X63439646Y-133203012D01*
X63528955Y-133378289D01*
X63644586Y-133537441D01*
X63783690Y-133676545D01*
X63942842Y-133792176D01*
X64022842Y-133832938D01*
X64118118Y-133881484D01*
X64118120Y-133881484D01*
X64118123Y-133881486D01*
X64218410Y-133914071D01*
X64305217Y-133942277D01*
X64499514Y-133973051D01*
X64499519Y-133973051D01*
X66702846Y-133973051D01*
X66897142Y-133942277D01*
X67084237Y-133881486D01*
X67259518Y-133792176D01*
X67418670Y-133676545D01*
X67557774Y-133537441D01*
X67673405Y-133378289D01*
X67762715Y-133203008D01*
X67823506Y-133015913D01*
X67841339Y-132903322D01*
X67854280Y-132821617D01*
X67854280Y-132624884D01*
X67823506Y-132430588D01*
X67773418Y-132276435D01*
X67762715Y-132243494D01*
X67762713Y-132243491D01*
X67762713Y-132243489D01*
X67673404Y-132068212D01*
X67557774Y-131909061D01*
X67418670Y-131769957D01*
X67259518Y-131654326D01*
X67084241Y-131565017D01*
X66897142Y-131504224D01*
X66702846Y-131473451D01*
X66702841Y-131473451D01*
X64499519Y-131473451D01*
X64499514Y-131473451D01*
X64305217Y-131504224D01*
X64118118Y-131565017D01*
X63942841Y-131654326D01*
X63852039Y-131720298D01*
X63783690Y-131769957D01*
X63783688Y-131769959D01*
X63783687Y-131769959D01*
X63644588Y-131909058D01*
X63644588Y-131909059D01*
X63644586Y-131909061D01*
X63603221Y-131965995D01*
X63528955Y-132068212D01*
X63439646Y-132243489D01*
X63378853Y-132430588D01*
X63348080Y-132624884D01*
X60115277Y-132624884D01*
X60032646Y-132535367D01*
X60001640Y-132472755D01*
X59999764Y-132451875D01*
X59990707Y-130598543D01*
X81424499Y-130598543D01*
X81462947Y-130791829D01*
X81462950Y-130791839D01*
X81538364Y-130973907D01*
X81538371Y-130973920D01*
X81647859Y-131137780D01*
X81647860Y-131137781D01*
X81647861Y-131137782D01*
X81787218Y-131277139D01*
X81787219Y-131277139D01*
X81794286Y-131284206D01*
X81794285Y-131284206D01*
X81794288Y-131284208D01*
X85147860Y-134637781D01*
X85147861Y-134637782D01*
X85229842Y-134719763D01*
X85287219Y-134777140D01*
X85359594Y-134825499D01*
X85451086Y-134886632D01*
X85557745Y-134930811D01*
X85633164Y-134962051D01*
X85826454Y-135000499D01*
X85826457Y-135000500D01*
X85826459Y-135000500D01*
X90065826Y-135000500D01*
X90096850Y-134994328D01*
X90162472Y-134981275D01*
X90259120Y-134962051D01*
X90312449Y-134939961D01*
X90441198Y-134886632D01*
X90453053Y-134878711D01*
X152149500Y-134878711D01*
X152149500Y-135121288D01*
X152181161Y-135361785D01*
X152243947Y-135596104D01*
X152336773Y-135820205D01*
X152336776Y-135820212D01*
X152458064Y-136030289D01*
X152458066Y-136030292D01*
X152458067Y-136030293D01*
X152605733Y-136222736D01*
X152605739Y-136222743D01*
X152777256Y-136394260D01*
X152777262Y-136394265D01*
X152969711Y-136541936D01*
X153179788Y-136663224D01*
X153403900Y-136756054D01*
X153638211Y-136818838D01*
X153818586Y-136842584D01*
X153878711Y-136850500D01*
X153878712Y-136850500D01*
X154121289Y-136850500D01*
X154169388Y-136844167D01*
X154361789Y-136818838D01*
X154596100Y-136756054D01*
X154820212Y-136663224D01*
X155030289Y-136541936D01*
X155222738Y-136394265D01*
X155394265Y-136222738D01*
X155541936Y-136030289D01*
X155663224Y-135820212D01*
X155756054Y-135596100D01*
X155818838Y-135361789D01*
X155850500Y-135121288D01*
X155850500Y-134878712D01*
X155843494Y-134825499D01*
X155830751Y-134728703D01*
X155818838Y-134638211D01*
X155756054Y-134403900D01*
X155663224Y-134179788D01*
X155541936Y-133969711D01*
X155405708Y-133792175D01*
X155394266Y-133777263D01*
X155394260Y-133777256D01*
X155222743Y-133605739D01*
X155222736Y-133605733D01*
X155030293Y-133458067D01*
X155030292Y-133458066D01*
X155030289Y-133458064D01*
X154820212Y-133336776D01*
X154766129Y-133314374D01*
X154596104Y-133243947D01*
X154361785Y-133181161D01*
X154121289Y-133149500D01*
X154121288Y-133149500D01*
X153878712Y-133149500D01*
X153878711Y-133149500D01*
X153638214Y-133181161D01*
X153403895Y-133243947D01*
X153179794Y-133336773D01*
X153179785Y-133336777D01*
X152969706Y-133458067D01*
X152777263Y-133605733D01*
X152777256Y-133605739D01*
X152605739Y-133777256D01*
X152605733Y-133777263D01*
X152458067Y-133969706D01*
X152336777Y-134179785D01*
X152336773Y-134179794D01*
X152243947Y-134403895D01*
X152181161Y-134638214D01*
X152149500Y-134878711D01*
X90453053Y-134878711D01*
X90605066Y-134777139D01*
X90744423Y-134637782D01*
X90744424Y-134637779D01*
X90751490Y-134630714D01*
X90751491Y-134630711D01*
X90804283Y-134577921D01*
X90865607Y-134544437D01*
X90891963Y-134541604D01*
X105608619Y-134541604D01*
X105651110Y-134533151D01*
X105731494Y-134517162D01*
X105801912Y-134503155D01*
X105855241Y-134481065D01*
X105983990Y-134427736D01*
X106147858Y-134318243D01*
X106287215Y-134178886D01*
X106287216Y-134178883D01*
X106633161Y-133832939D01*
X107153139Y-133312962D01*
X107153139Y-133312960D01*
X107163343Y-133302757D01*
X107163346Y-133302752D01*
X110128319Y-130337782D01*
X110146938Y-130309916D01*
X110237812Y-130173914D01*
X110270302Y-130095475D01*
X110281991Y-130067256D01*
X110281991Y-130067255D01*
X110310056Y-129999500D01*
X110313231Y-129991836D01*
X110351680Y-129798541D01*
X110351680Y-129601460D01*
X110351680Y-129601457D01*
X110351679Y-129601455D01*
X110335844Y-129521850D01*
X110313231Y-129408165D01*
X110291767Y-129356347D01*
X110276385Y-129319212D01*
X110237815Y-129226093D01*
X110237814Y-129226092D01*
X110237812Y-129226086D01*
X110232228Y-129217729D01*
X110128319Y-129062217D01*
X109988965Y-128922863D01*
X109988961Y-128922860D01*
X109825100Y-128813371D01*
X109825087Y-128813364D01*
X109643019Y-128737950D01*
X109643009Y-128737947D01*
X109449723Y-128699500D01*
X109449721Y-128699500D01*
X109449720Y-128699500D01*
X109252639Y-128699500D01*
X109252636Y-128699500D01*
X109059351Y-128737946D01*
X109059347Y-128737948D01*
X109059345Y-128737948D01*
X109059344Y-128737949D01*
X109059342Y-128737950D01*
X108983923Y-128769189D01*
X108877269Y-128813366D01*
X108877259Y-128813371D01*
X108746865Y-128900499D01*
X108713396Y-128922862D01*
X108713392Y-128922865D01*
X107588181Y-130048077D01*
X107526858Y-130081562D01*
X107457166Y-130076578D01*
X107401233Y-130034706D01*
X107376816Y-129969242D01*
X107376500Y-129960396D01*
X107376500Y-117114551D01*
X107396185Y-117047512D01*
X107448989Y-117001757D01*
X107518147Y-116991813D01*
X107581703Y-117020838D01*
X107615061Y-117067098D01*
X107671295Y-117202860D01*
X107764373Y-117342162D01*
X107882837Y-117460626D01*
X107975494Y-117522537D01*
X108022137Y-117553703D01*
X108176918Y-117617816D01*
X108341228Y-117650499D01*
X108341232Y-117650500D01*
X108341233Y-117650500D01*
X108508768Y-117650500D01*
X108508769Y-117650499D01*
X108673082Y-117617816D01*
X108827863Y-117553703D01*
X108967162Y-117460626D01*
X109085626Y-117342162D01*
X109178703Y-117202863D01*
X109188052Y-117180290D01*
X109214929Y-117140065D01*
X109588177Y-116766819D01*
X109649500Y-116733334D01*
X109675858Y-116730500D01*
X110434192Y-116730500D01*
X110501231Y-116750185D01*
X110521873Y-116766819D01*
X112476541Y-118721487D01*
X112510026Y-118782810D01*
X112505042Y-118852502D01*
X112476542Y-118896848D01*
X112440553Y-118932837D01*
X112347475Y-119072139D01*
X112283364Y-119226917D01*
X112283362Y-119226925D01*
X112250680Y-119391228D01*
X112250680Y-119558771D01*
X112283362Y-119723074D01*
X112283364Y-119723082D01*
X112341241Y-119862808D01*
X112350680Y-119910261D01*
X112350680Y-131048918D01*
X112350680Y-131048920D01*
X112350679Y-131048920D01*
X112379520Y-131193907D01*
X112379522Y-131193913D01*
X112436096Y-131330495D01*
X112437739Y-131332954D01*
X112437744Y-131332961D01*
X112518231Y-131453420D01*
X112518232Y-131453421D01*
X115518229Y-134453416D01*
X115622764Y-134557951D01*
X115622767Y-134557953D01*
X115622768Y-134557954D01*
X115745683Y-134640083D01*
X115745686Y-134640085D01*
X115795845Y-134660861D01*
X115802260Y-134663518D01*
X115882268Y-134696659D01*
X115998421Y-134719763D01*
X116021560Y-134724365D01*
X116027261Y-134725500D01*
X116027262Y-134725500D01*
X116027263Y-134725500D01*
X116175098Y-134725500D01*
X121915919Y-134725500D01*
X121963371Y-134734938D01*
X122103098Y-134792816D01*
X122267408Y-134825499D01*
X122267412Y-134825500D01*
X122267413Y-134825500D01*
X122434948Y-134825500D01*
X122434949Y-134825499D01*
X122599262Y-134792816D01*
X122754043Y-134728703D01*
X122893342Y-134635626D01*
X123011806Y-134517162D01*
X123104883Y-134377863D01*
X123168996Y-134223082D01*
X123201680Y-134058767D01*
X123201680Y-133891233D01*
X123168996Y-133726918D01*
X123104883Y-133572137D01*
X123028662Y-133458064D01*
X123011806Y-133432837D01*
X122893342Y-133314373D01*
X122754040Y-133221295D01*
X122599262Y-133157184D01*
X122599254Y-133157182D01*
X122434951Y-133124500D01*
X122434947Y-133124500D01*
X122267413Y-133124500D01*
X122267408Y-133124500D01*
X122103105Y-133157182D01*
X122103097Y-133157184D01*
X121963372Y-133215061D01*
X121915919Y-133224500D01*
X116463409Y-133224500D01*
X116396370Y-133204815D01*
X116375728Y-133188181D01*
X114928460Y-131740912D01*
X114846866Y-131659318D01*
X116067590Y-131659318D01*
X116067590Y-131826861D01*
X116100272Y-131991164D01*
X116100274Y-131991172D01*
X116164385Y-132145950D01*
X116257463Y-132285252D01*
X116375927Y-132403716D01*
X116416146Y-132430589D01*
X116515227Y-132496793D01*
X116670008Y-132560906D01*
X116816677Y-132590080D01*
X116834318Y-132593589D01*
X116834322Y-132593590D01*
X116834323Y-132593590D01*
X117001858Y-132593590D01*
X117001859Y-132593589D01*
X117166172Y-132560906D01*
X117320953Y-132496793D01*
X117460252Y-132403716D01*
X117578716Y-132285252D01*
X117671793Y-132145953D01*
X117729672Y-132006220D01*
X117756548Y-131965998D01*
X123074088Y-126648458D01*
X123114310Y-126621582D01*
X123254043Y-126563703D01*
X123393342Y-126470626D01*
X123511806Y-126352162D01*
X123604883Y-126212863D01*
X123668996Y-126058082D01*
X123701680Y-125893767D01*
X123701680Y-125726233D01*
X123668996Y-125561918D01*
X123604883Y-125407137D01*
X123559605Y-125339374D01*
X123511806Y-125267837D01*
X123393342Y-125149373D01*
X123254040Y-125056295D01*
X123099262Y-124992184D01*
X123099254Y-124992182D01*
X122934951Y-124959500D01*
X122934947Y-124959500D01*
X122767413Y-124959500D01*
X122767408Y-124959500D01*
X122603105Y-124992182D01*
X122603097Y-124992184D01*
X122448319Y-125056295D01*
X122309017Y-125149373D01*
X122190553Y-125267837D01*
X122097476Y-125407137D01*
X122039599Y-125546864D01*
X122012719Y-125587091D01*
X120387861Y-127211950D01*
X120326538Y-127245435D01*
X120256846Y-127240451D01*
X120200913Y-127198579D01*
X120176496Y-127133115D01*
X120176180Y-127124269D01*
X120176180Y-125425000D01*
X119604732Y-125425000D01*
X119204733Y-125825000D01*
X119597884Y-126218151D01*
X119631369Y-126279474D01*
X119626385Y-126349166D01*
X119597884Y-126393513D01*
X119516398Y-126474999D01*
X119597884Y-126556485D01*
X119631369Y-126617808D01*
X119626385Y-126687500D01*
X119597884Y-126731848D01*
X119027957Y-127301777D01*
X118451180Y-127878552D01*
X118451180Y-128125000D01*
X119175449Y-128125000D01*
X119242488Y-128144685D01*
X119288243Y-128197489D01*
X119298187Y-128266647D01*
X119269162Y-128330203D01*
X119263130Y-128336681D01*
X116695180Y-130904630D01*
X116654952Y-130931510D01*
X116515229Y-130989385D01*
X116375927Y-131082463D01*
X116257463Y-131200927D01*
X116164385Y-131340229D01*
X116100274Y-131495007D01*
X116100272Y-131495015D01*
X116067590Y-131659318D01*
X114846866Y-131659318D01*
X113887999Y-130700451D01*
X113854514Y-130639128D01*
X113851680Y-130612770D01*
X113851680Y-120395987D01*
X113871365Y-120328948D01*
X113924169Y-120283193D01*
X113993327Y-120273249D01*
X114056883Y-120302274D01*
X114063361Y-120308306D01*
X114814361Y-121059306D01*
X114847846Y-121120629D01*
X114850680Y-121146987D01*
X114850680Y-127655068D01*
X114830995Y-127722107D01*
X114829782Y-127723959D01*
X114747475Y-127847139D01*
X114683364Y-128001917D01*
X114683362Y-128001925D01*
X114650680Y-128166228D01*
X114650680Y-128333771D01*
X114683362Y-128498074D01*
X114683364Y-128498082D01*
X114747475Y-128652860D01*
X114840553Y-128792162D01*
X114959017Y-128910626D01*
X115051674Y-128972537D01*
X115098317Y-129003703D01*
X115253098Y-129067816D01*
X115373459Y-129091757D01*
X115417408Y-129100499D01*
X115417412Y-129100500D01*
X115417413Y-129100500D01*
X115584948Y-129100500D01*
X115584949Y-129100499D01*
X115749262Y-129067816D01*
X115904043Y-129003703D01*
X116043342Y-128910626D01*
X116161806Y-128792162D01*
X116254883Y-128652863D01*
X116318996Y-128498082D01*
X116351680Y-128333767D01*
X116351680Y-128197560D01*
X116371365Y-128130521D01*
X116424169Y-128084766D01*
X116493327Y-128074822D01*
X116519014Y-128081378D01*
X116618803Y-128118597D01*
X116618807Y-128118598D01*
X116678335Y-128124999D01*
X116678352Y-128125000D01*
X117951180Y-128125000D01*
X117951180Y-127878553D01*
X117951179Y-127878552D01*
X117374403Y-127301777D01*
X117167789Y-127095163D01*
X117401180Y-127095163D01*
X117401180Y-127154837D01*
X117424016Y-127209968D01*
X117466212Y-127252164D01*
X117521343Y-127275000D01*
X117581017Y-127275000D01*
X117636148Y-127252164D01*
X117678344Y-127209968D01*
X117701180Y-127154837D01*
X117701180Y-127125000D01*
X117904733Y-127125000D01*
X117951179Y-127171446D01*
X117951180Y-127171446D01*
X118451180Y-127171446D01*
X118497626Y-127125001D01*
X118497626Y-127124999D01*
X118467790Y-127095163D01*
X118701180Y-127095163D01*
X118701180Y-127154837D01*
X118724016Y-127209968D01*
X118766212Y-127252164D01*
X118821343Y-127275000D01*
X118881017Y-127275000D01*
X118936148Y-127252164D01*
X118978344Y-127209968D01*
X119001180Y-127154837D01*
X119001180Y-127095163D01*
X118978344Y-127040032D01*
X118936148Y-126997836D01*
X118881017Y-126975000D01*
X118821343Y-126975000D01*
X118766212Y-126997836D01*
X118724016Y-127040032D01*
X118701180Y-127095163D01*
X118467790Y-127095163D01*
X118451180Y-127078553D01*
X118451180Y-127171446D01*
X117951180Y-127171446D01*
X117951180Y-127078553D01*
X117904733Y-127125000D01*
X117701180Y-127125000D01*
X117701180Y-127095163D01*
X117678344Y-127040032D01*
X117636148Y-126997836D01*
X117581017Y-126975000D01*
X117521343Y-126975000D01*
X117466212Y-126997836D01*
X117424016Y-127040032D01*
X117401180Y-127095163D01*
X117167789Y-127095163D01*
X116804474Y-126731848D01*
X116770989Y-126670525D01*
X116775973Y-126600833D01*
X116804474Y-126556485D01*
X116885959Y-126475000D01*
X117254733Y-126475000D01*
X117551180Y-126771446D01*
X117551181Y-126771446D01*
X117847626Y-126475001D01*
X117847626Y-126475000D01*
X118554733Y-126475000D01*
X118851180Y-126771446D01*
X118851181Y-126771446D01*
X119147626Y-126475001D01*
X119147626Y-126474999D01*
X118851181Y-126178553D01*
X118851180Y-126178553D01*
X118554733Y-126475000D01*
X117847626Y-126475000D01*
X117847626Y-126474999D01*
X117551181Y-126178553D01*
X117551180Y-126178553D01*
X117254733Y-126475000D01*
X116885959Y-126475000D01*
X116885960Y-126474999D01*
X116804474Y-126393513D01*
X116770989Y-126332190D01*
X116775973Y-126262498D01*
X116804474Y-126218151D01*
X117197625Y-125824999D01*
X117167789Y-125795163D01*
X117401180Y-125795163D01*
X117401180Y-125854837D01*
X117424016Y-125909968D01*
X117466212Y-125952164D01*
X117521343Y-125975000D01*
X117581017Y-125975000D01*
X117636148Y-125952164D01*
X117678344Y-125909968D01*
X117701180Y-125854837D01*
X117701180Y-125825000D01*
X117904733Y-125825000D01*
X117951179Y-125871446D01*
X117951180Y-125871446D01*
X118451180Y-125871446D01*
X118497626Y-125825001D01*
X118497626Y-125824999D01*
X118467790Y-125795163D01*
X118701180Y-125795163D01*
X118701180Y-125854837D01*
X118724016Y-125909968D01*
X118766212Y-125952164D01*
X118821343Y-125975000D01*
X118881017Y-125975000D01*
X118936148Y-125952164D01*
X118978344Y-125909968D01*
X119001180Y-125854837D01*
X119001180Y-125795163D01*
X118978344Y-125740032D01*
X118936148Y-125697836D01*
X118881017Y-125675000D01*
X118821343Y-125675000D01*
X118766212Y-125697836D01*
X118724016Y-125740032D01*
X118701180Y-125795163D01*
X118467790Y-125795163D01*
X118451180Y-125778553D01*
X118451180Y-125871446D01*
X117951180Y-125871446D01*
X117951180Y-125778553D01*
X117904733Y-125825000D01*
X117701180Y-125825000D01*
X117701180Y-125795163D01*
X117678344Y-125740032D01*
X117636148Y-125697836D01*
X117581017Y-125675000D01*
X117521343Y-125675000D01*
X117466212Y-125697836D01*
X117424016Y-125740032D01*
X117401180Y-125795163D01*
X117167789Y-125795163D01*
X116804474Y-125431848D01*
X116770989Y-125370525D01*
X116775973Y-125300833D01*
X116804474Y-125256485D01*
X116885959Y-125175000D01*
X117254732Y-125175000D01*
X117551180Y-125471446D01*
X117551181Y-125471446D01*
X117597627Y-125425000D01*
X118804734Y-125425000D01*
X118851180Y-125471445D01*
X118897626Y-125425000D01*
X118804734Y-125425000D01*
X117597627Y-125425000D01*
X117847626Y-125175001D01*
X117847626Y-125174999D01*
X117656219Y-124983592D01*
X117656214Y-124983588D01*
X117597626Y-124924999D01*
X118804733Y-124924999D01*
X118804734Y-124925000D01*
X118897626Y-124925000D01*
X118897626Y-124924999D01*
X118851180Y-124878553D01*
X118804733Y-124924999D01*
X117597626Y-124924999D01*
X117551180Y-124878553D01*
X117254732Y-125175000D01*
X116885959Y-125175000D01*
X116885960Y-125174999D01*
X116804474Y-125093513D01*
X116770989Y-125032190D01*
X116775973Y-124962498D01*
X116804474Y-124918151D01*
X117197625Y-124524999D01*
X117167789Y-124495163D01*
X117401180Y-124495163D01*
X117401180Y-124554837D01*
X117424016Y-124609968D01*
X117466212Y-124652164D01*
X117521343Y-124675000D01*
X117581017Y-124675000D01*
X117636148Y-124652164D01*
X117678344Y-124609968D01*
X117701180Y-124554837D01*
X117701180Y-124525000D01*
X117904733Y-124525000D01*
X117951179Y-124571446D01*
X117951180Y-124571446D01*
X118451180Y-124571446D01*
X118497626Y-124525001D01*
X118497626Y-124524999D01*
X118467790Y-124495163D01*
X118701180Y-124495163D01*
X118701180Y-124554837D01*
X118724016Y-124609968D01*
X118766212Y-124652164D01*
X118821343Y-124675000D01*
X118881017Y-124675000D01*
X118936148Y-124652164D01*
X118978344Y-124609968D01*
X119001180Y-124554837D01*
X119001180Y-124495163D01*
X118978344Y-124440032D01*
X118936148Y-124397836D01*
X118881017Y-124375000D01*
X118821343Y-124375000D01*
X118766212Y-124397836D01*
X118724016Y-124440032D01*
X118701180Y-124495163D01*
X118467790Y-124495163D01*
X118451180Y-124478553D01*
X118451180Y-124571446D01*
X117951180Y-124571446D01*
X117951180Y-124478553D01*
X117904733Y-124525000D01*
X117701180Y-124525000D01*
X117701180Y-124495163D01*
X117678344Y-124440032D01*
X117636148Y-124397836D01*
X117581017Y-124375000D01*
X117521343Y-124375000D01*
X117466212Y-124397836D01*
X117424016Y-124440032D01*
X117401180Y-124495163D01*
X117167789Y-124495163D01*
X116804474Y-124131848D01*
X116770989Y-124070525D01*
X116775973Y-124000833D01*
X116804474Y-123956485D01*
X116885959Y-123875000D01*
X117254733Y-123875000D01*
X117551180Y-124171446D01*
X117551181Y-124171446D01*
X117847626Y-123875001D01*
X117847626Y-123875000D01*
X118554733Y-123875000D01*
X118851180Y-124171446D01*
X118851181Y-124171446D01*
X119147626Y-123875001D01*
X119147626Y-123874999D01*
X118851181Y-123578553D01*
X118851180Y-123578553D01*
X118554733Y-123875000D01*
X117847626Y-123875000D01*
X117847626Y-123874999D01*
X117551181Y-123578553D01*
X117551180Y-123578553D01*
X117254733Y-123875000D01*
X116885959Y-123875000D01*
X116885960Y-123874999D01*
X116804474Y-123793513D01*
X116770989Y-123732190D01*
X116775973Y-123662498D01*
X116804474Y-123618151D01*
X117227463Y-123195163D01*
X117401180Y-123195163D01*
X117401180Y-123254837D01*
X117424016Y-123309968D01*
X117466212Y-123352164D01*
X117521343Y-123375000D01*
X117581017Y-123375000D01*
X117636148Y-123352164D01*
X117678344Y-123309968D01*
X117701180Y-123254837D01*
X117701180Y-123225000D01*
X117904733Y-123225000D01*
X117951179Y-123271446D01*
X117951180Y-123271446D01*
X118451180Y-123271446D01*
X118497626Y-123225001D01*
X118497626Y-123224999D01*
X118467790Y-123195163D01*
X118701180Y-123195163D01*
X118701180Y-123254837D01*
X118724016Y-123309968D01*
X118766212Y-123352164D01*
X118821343Y-123375000D01*
X118881017Y-123375000D01*
X118936148Y-123352164D01*
X118978344Y-123309968D01*
X119001180Y-123254837D01*
X119001180Y-123195163D01*
X118978344Y-123140032D01*
X118936148Y-123097836D01*
X118881017Y-123075000D01*
X118821343Y-123075000D01*
X118766212Y-123097836D01*
X118724016Y-123140032D01*
X118701180Y-123195163D01*
X118467790Y-123195163D01*
X118451180Y-123178553D01*
X118451180Y-123271446D01*
X117951180Y-123271446D01*
X117951180Y-123178553D01*
X117904733Y-123225000D01*
X117701180Y-123225000D01*
X117701180Y-123195163D01*
X117678344Y-123140032D01*
X117636148Y-123097836D01*
X117581017Y-123075000D01*
X117521343Y-123075000D01*
X117466212Y-123097836D01*
X117424016Y-123140032D01*
X117401180Y-123195163D01*
X117227463Y-123195163D01*
X117336669Y-123085957D01*
X117374403Y-123048223D01*
X117951179Y-122471446D01*
X118451180Y-122471446D01*
X119027957Y-123048223D01*
X119597884Y-123618151D01*
X119631369Y-123679474D01*
X119626385Y-123749166D01*
X119597884Y-123793513D01*
X119516398Y-123874999D01*
X119597884Y-123956485D01*
X119631369Y-124017808D01*
X119626385Y-124087500D01*
X119597884Y-124131848D01*
X119204733Y-124524999D01*
X119204733Y-124525000D01*
X119604733Y-124925000D01*
X120176180Y-124925000D01*
X120176180Y-122677172D01*
X120176179Y-122677155D01*
X120169778Y-122617627D01*
X120169776Y-122617620D01*
X120119534Y-122482913D01*
X120119530Y-122482906D01*
X120033370Y-122367812D01*
X120033367Y-122367809D01*
X119918273Y-122281649D01*
X119918266Y-122281645D01*
X119783559Y-122231403D01*
X119783552Y-122231401D01*
X119724024Y-122225000D01*
X118451180Y-122225000D01*
X118451180Y-122471446D01*
X117951179Y-122471446D01*
X117951180Y-122471445D01*
X117951180Y-122225000D01*
X116678335Y-122225000D01*
X116618807Y-122231401D01*
X116618800Y-122231403D01*
X116484093Y-122281645D01*
X116484086Y-122281649D01*
X116368992Y-122367809D01*
X116363361Y-122373441D01*
X116302038Y-122406926D01*
X116232346Y-122401942D01*
X116176413Y-122360070D01*
X116151996Y-122294606D01*
X116151680Y-122285760D01*
X116151680Y-120762108D01*
X116126682Y-120636441D01*
X116126681Y-120636440D01*
X116126681Y-120636436D01*
X116077645Y-120518053D01*
X116077644Y-120518052D01*
X116077641Y-120518046D01*
X116006457Y-120411512D01*
X115990932Y-120395987D01*
X115915849Y-120320904D01*
X114821862Y-119226917D01*
X111169674Y-115574727D01*
X111169673Y-115574726D01*
X111169669Y-115574723D01*
X111063127Y-115503535D01*
X110944744Y-115454499D01*
X110944738Y-115454497D01*
X110819071Y-115429500D01*
X110819069Y-115429500D01*
X109290981Y-115429500D01*
X109290979Y-115429500D01*
X109165311Y-115454497D01*
X109165305Y-115454499D01*
X109046924Y-115503534D01*
X108940379Y-115574724D01*
X108601922Y-115913181D01*
X108540599Y-115946666D01*
X108514241Y-115949500D01*
X108341228Y-115949500D01*
X108176925Y-115982182D01*
X108176917Y-115982184D01*
X108022139Y-116046295D01*
X107882837Y-116139373D01*
X107764373Y-116257837D01*
X107671295Y-116397139D01*
X107615061Y-116532901D01*
X107571220Y-116587304D01*
X107504925Y-116609369D01*
X107437226Y-116592090D01*
X107389616Y-116540952D01*
X107376500Y-116485448D01*
X107376500Y-112014782D01*
X107385144Y-111985342D01*
X107391667Y-111955357D01*
X107395422Y-111950339D01*
X107396185Y-111947743D01*
X107412812Y-111927107D01*
X107443386Y-111896533D01*
X107504705Y-111863050D01*
X107574397Y-111868034D01*
X107618746Y-111896535D01*
X107632837Y-111910626D01*
X107688387Y-111947743D01*
X107772137Y-112003703D01*
X107772138Y-112003703D01*
X107772139Y-112003704D01*
X107772141Y-112003705D01*
X107815305Y-112021584D01*
X107911864Y-112061580D01*
X107952091Y-112088459D01*
X108638181Y-112774549D01*
X108652884Y-112801476D01*
X108669477Y-112827295D01*
X108670368Y-112833495D01*
X108671666Y-112835872D01*
X108674500Y-112862230D01*
X108674500Y-113064739D01*
X108665061Y-113112192D01*
X108607184Y-113251917D01*
X108607182Y-113251925D01*
X108574500Y-113416228D01*
X108574500Y-113583771D01*
X108607182Y-113748074D01*
X108607184Y-113748082D01*
X108671295Y-113902860D01*
X108764373Y-114042162D01*
X108882837Y-114160626D01*
X108975494Y-114222537D01*
X109022137Y-114253703D01*
X109176918Y-114317816D01*
X109341228Y-114350499D01*
X109341232Y-114350500D01*
X109341233Y-114350500D01*
X109508768Y-114350500D01*
X109508769Y-114350499D01*
X109673082Y-114317816D01*
X109827863Y-114253703D01*
X109967162Y-114160626D01*
X110085626Y-114042162D01*
X110178703Y-113902863D01*
X110242816Y-113748082D01*
X110275500Y-113583767D01*
X110275500Y-113416233D01*
X110242816Y-113251918D01*
X110184938Y-113112191D01*
X110175500Y-113064739D01*
X110175500Y-112426079D01*
X110146659Y-112281092D01*
X110146658Y-112281091D01*
X110146658Y-112281087D01*
X110090084Y-112144505D01*
X110057186Y-112095270D01*
X110057185Y-112095268D01*
X110007956Y-112021589D01*
X110007952Y-112021584D01*
X109013459Y-111027091D01*
X108986580Y-110986864D01*
X108928703Y-110847137D01*
X108855506Y-110737590D01*
X108835626Y-110707837D01*
X108821535Y-110693746D01*
X108788050Y-110632423D01*
X108793034Y-110562731D01*
X108821533Y-110518386D01*
X111312778Y-108027141D01*
X111312782Y-108027139D01*
X111452139Y-107887782D01*
X111561632Y-107723914D01*
X111637051Y-107541835D01*
X111640170Y-107526154D01*
X111641751Y-107518212D01*
X111668987Y-107381284D01*
X111668987Y-107381282D01*
X111669342Y-107379501D01*
X111675500Y-107348541D01*
X111675500Y-107151459D01*
X111675500Y-107151456D01*
X111671721Y-107132459D01*
X111667717Y-107112332D01*
X123169500Y-107112332D01*
X123169500Y-107387667D01*
X123169501Y-107387684D01*
X123205438Y-107660655D01*
X123205439Y-107660660D01*
X123205440Y-107660666D01*
X123227829Y-107744224D01*
X123276704Y-107926630D01*
X123382075Y-108181017D01*
X123382080Y-108181028D01*
X123432496Y-108268349D01*
X123519751Y-108419479D01*
X123519753Y-108419482D01*
X123519754Y-108419483D01*
X123687370Y-108637926D01*
X123687376Y-108637933D01*
X123882066Y-108832623D01*
X123882073Y-108832629D01*
X123969222Y-108899500D01*
X124100521Y-109000249D01*
X124233541Y-109077048D01*
X124338971Y-109137919D01*
X124338976Y-109137921D01*
X124338979Y-109137923D01*
X124593368Y-109243295D01*
X124859334Y-109314560D01*
X125132326Y-109350500D01*
X125132333Y-109350500D01*
X125407667Y-109350500D01*
X125407674Y-109350500D01*
X125680666Y-109314560D01*
X125946632Y-109243295D01*
X126201021Y-109137923D01*
X126439479Y-109000249D01*
X126657928Y-108832628D01*
X126852628Y-108637928D01*
X127020249Y-108419479D01*
X127157923Y-108181021D01*
X127263295Y-107926632D01*
X127334560Y-107660666D01*
X127370500Y-107387674D01*
X127370500Y-107112326D01*
X127334560Y-106839334D01*
X127263295Y-106573368D01*
X127157923Y-106318979D01*
X127157921Y-106318976D01*
X127157919Y-106318971D01*
X127100146Y-106218907D01*
X127020249Y-106080521D01*
X126871942Y-105887243D01*
X126852629Y-105862073D01*
X126852623Y-105862066D01*
X126840540Y-105849983D01*
X135869500Y-105849983D01*
X135869500Y-108650001D01*
X135869501Y-108650018D01*
X135880000Y-108752796D01*
X135880001Y-108752799D01*
X135935185Y-108919331D01*
X135935187Y-108919336D01*
X135967460Y-108971659D01*
X136027288Y-109068656D01*
X136151344Y-109192712D01*
X136300666Y-109284814D01*
X136467203Y-109339999D01*
X136569991Y-109350500D01*
X139370008Y-109350499D01*
X139472797Y-109339999D01*
X139639334Y-109284814D01*
X139788656Y-109192712D01*
X139912712Y-109068656D01*
X140004814Y-108919334D01*
X140059999Y-108752797D01*
X140070500Y-108650009D01*
X140070499Y-105849992D01*
X140064633Y-105792572D01*
X140059999Y-105747203D01*
X140059998Y-105747200D01*
X140043458Y-105697285D01*
X140004814Y-105580666D01*
X139912712Y-105431344D01*
X139788656Y-105307288D01*
X139639334Y-105215186D01*
X139472797Y-105160001D01*
X139472795Y-105160000D01*
X139370010Y-105149500D01*
X136569998Y-105149500D01*
X136569981Y-105149501D01*
X136467203Y-105160000D01*
X136467200Y-105160001D01*
X136300668Y-105215185D01*
X136300663Y-105215187D01*
X136151342Y-105307289D01*
X136027289Y-105431342D01*
X135935187Y-105580663D01*
X135935186Y-105580666D01*
X135880001Y-105747203D01*
X135880001Y-105747204D01*
X135880000Y-105747204D01*
X135869500Y-105849983D01*
X126840540Y-105849983D01*
X126657933Y-105667376D01*
X126657926Y-105667370D01*
X126439483Y-105499754D01*
X126439482Y-105499753D01*
X126439479Y-105499751D01*
X126320995Y-105431344D01*
X126201028Y-105362080D01*
X126201017Y-105362075D01*
X125946630Y-105256704D01*
X125791676Y-105215185D01*
X125680666Y-105185440D01*
X125680660Y-105185439D01*
X125680655Y-105185438D01*
X125407684Y-105149501D01*
X125407679Y-105149500D01*
X125407674Y-105149500D01*
X125132326Y-105149500D01*
X125132320Y-105149500D01*
X125132315Y-105149501D01*
X124859344Y-105185438D01*
X124859337Y-105185439D01*
X124859334Y-105185440D01*
X124803125Y-105200500D01*
X124593369Y-105256704D01*
X124338982Y-105362075D01*
X124338971Y-105362080D01*
X124100516Y-105499754D01*
X123882073Y-105667370D01*
X123882066Y-105667376D01*
X123687376Y-105862066D01*
X123687370Y-105862073D01*
X123519754Y-106080516D01*
X123382080Y-106318971D01*
X123382075Y-106318982D01*
X123276704Y-106573369D01*
X123230369Y-106746297D01*
X123216947Y-106796391D01*
X123205441Y-106839331D01*
X123205438Y-106839344D01*
X123169501Y-107112315D01*
X123169500Y-107112332D01*
X111667717Y-107112332D01*
X111649666Y-107021585D01*
X111649666Y-107021584D01*
X111637051Y-106958164D01*
X111595712Y-106858363D01*
X111594486Y-106855402D01*
X111561635Y-106776092D01*
X111561628Y-106776079D01*
X111452139Y-106612218D01*
X111452136Y-106612214D01*
X111312785Y-106472863D01*
X111312781Y-106472860D01*
X111148920Y-106363371D01*
X111148911Y-106363366D01*
X111055931Y-106324853D01*
X111020165Y-106310038D01*
X110966836Y-106287949D01*
X110868989Y-106268486D01*
X110864402Y-106267573D01*
X110864400Y-106267573D01*
X110773543Y-106249500D01*
X110773541Y-106249500D01*
X110576459Y-106249500D01*
X110576457Y-106249500D01*
X110512827Y-106262157D01*
X110481011Y-106268486D01*
X110383167Y-106287947D01*
X110383159Y-106287950D01*
X110329834Y-106310037D01*
X110329834Y-106310038D01*
X110308249Y-106318979D01*
X110201089Y-106363366D01*
X110201079Y-106363371D01*
X110037219Y-106472859D01*
X109998030Y-106512049D01*
X109897861Y-106612218D01*
X109897858Y-106612221D01*
X108279229Y-108230849D01*
X108217906Y-108264334D01*
X108148214Y-108259350D01*
X108092281Y-108217478D01*
X108088442Y-108212053D01*
X108088131Y-108211588D01*
X108085626Y-108207838D01*
X108085622Y-108207832D01*
X108082205Y-108203669D01*
X108054888Y-108139361D01*
X108066676Y-108070493D01*
X108082205Y-108046331D01*
X108085624Y-108042164D01*
X108085626Y-108042162D01*
X108178703Y-107902863D01*
X108242816Y-107748082D01*
X108275500Y-107583767D01*
X108275500Y-107416233D01*
X108242816Y-107251918D01*
X108178703Y-107097137D01*
X108117697Y-107005835D01*
X108085626Y-106957837D01*
X107967162Y-106839373D01*
X107827860Y-106746295D01*
X107673082Y-106682184D01*
X107673074Y-106682182D01*
X107508771Y-106649500D01*
X107508767Y-106649500D01*
X107341233Y-106649500D01*
X107341228Y-106649500D01*
X107176925Y-106682182D01*
X107176917Y-106682184D01*
X107037192Y-106740061D01*
X106989739Y-106749500D01*
X105787230Y-106749500D01*
X105720191Y-106729815D01*
X105699549Y-106713181D01*
X104882075Y-105895707D01*
X104871978Y-105877216D01*
X104857899Y-105861542D01*
X104855569Y-105847165D01*
X104848590Y-105834384D01*
X104850092Y-105813368D01*
X104846723Y-105792572D01*
X104852535Y-105779219D01*
X104853574Y-105764692D01*
X104866200Y-105747825D01*
X104874609Y-105728508D01*
X104893086Y-105711910D01*
X104895446Y-105708759D01*
X104900846Y-105704936D01*
X104951042Y-105671396D01*
X105017720Y-105650520D01*
X105019932Y-105650500D01*
X107330068Y-105650500D01*
X107397107Y-105670185D01*
X107398959Y-105671398D01*
X107522137Y-105753703D01*
X107522138Y-105753703D01*
X107522139Y-105753704D01*
X107557201Y-105768227D01*
X107676918Y-105817816D01*
X107824467Y-105847165D01*
X107841228Y-105850499D01*
X107841232Y-105850500D01*
X107841233Y-105850500D01*
X108008768Y-105850500D01*
X108008769Y-105850499D01*
X108173082Y-105817816D01*
X108327863Y-105753703D01*
X108467162Y-105660626D01*
X108585626Y-105542162D01*
X108678703Y-105402863D01*
X108742816Y-105248082D01*
X108775500Y-105083767D01*
X108775500Y-104916233D01*
X108742816Y-104751918D01*
X108678703Y-104597137D01*
X108647537Y-104550494D01*
X108585626Y-104457837D01*
X108467162Y-104339373D01*
X108327860Y-104246295D01*
X108173082Y-104182184D01*
X108173074Y-104182182D01*
X108008771Y-104149500D01*
X108008767Y-104149500D01*
X107841233Y-104149500D01*
X107841228Y-104149500D01*
X107676925Y-104182182D01*
X107676917Y-104182184D01*
X107522139Y-104246295D01*
X107398959Y-104328602D01*
X107332281Y-104349480D01*
X107330068Y-104349500D01*
X105019932Y-104349500D01*
X104952893Y-104329815D01*
X104951041Y-104328602D01*
X104827860Y-104246295D01*
X104673082Y-104182184D01*
X104673074Y-104182182D01*
X104508771Y-104149500D01*
X104508767Y-104149500D01*
X104449503Y-104149500D01*
X104382464Y-104129815D01*
X104336709Y-104077011D01*
X104325503Y-104025500D01*
X104325503Y-102685261D01*
X104334942Y-102637808D01*
X104357326Y-102583768D01*
X104392819Y-102498082D01*
X104425503Y-102333767D01*
X104425503Y-102166233D01*
X104392819Y-102001918D01*
X104328706Y-101847137D01*
X104265087Y-101751925D01*
X104235629Y-101707837D01*
X104117165Y-101589373D01*
X103977863Y-101496295D01*
X103823085Y-101432184D01*
X103823077Y-101432182D01*
X103658774Y-101399500D01*
X103658770Y-101399500D01*
X103649500Y-101399500D01*
X103582461Y-101379815D01*
X103536706Y-101327011D01*
X103525500Y-101275500D01*
X103525500Y-101166232D01*
X103525499Y-101166228D01*
X103503474Y-101055501D01*
X103492816Y-101001918D01*
X103428703Y-100847137D01*
X103361324Y-100746297D01*
X103335626Y-100707837D01*
X103335623Y-100707834D01*
X103296644Y-100668856D01*
X103263158Y-100607533D01*
X103268142Y-100537842D01*
X103296643Y-100493493D01*
X103349989Y-100440148D01*
X103443066Y-100300849D01*
X103507179Y-100146068D01*
X103539863Y-99981753D01*
X103539863Y-99814219D01*
X103507179Y-99649904D01*
X103443066Y-99495123D01*
X103409857Y-99445422D01*
X103349989Y-99355823D01*
X103231525Y-99237359D01*
X103092223Y-99144281D01*
X102937445Y-99080170D01*
X102937437Y-99080168D01*
X102773134Y-99047486D01*
X102773130Y-99047486D01*
X102605596Y-99047486D01*
X102605591Y-99047486D01*
X102441288Y-99080168D01*
X102441280Y-99080170D01*
X102286502Y-99144281D01*
X102147200Y-99237359D01*
X102028735Y-99355824D01*
X102025993Y-99359166D01*
X101968246Y-99398499D01*
X101930142Y-99404499D01*
X99612562Y-99404499D01*
X99545523Y-99384814D01*
X99499768Y-99332010D01*
X99489824Y-99262852D01*
X99491772Y-99254085D01*
X99491628Y-99254057D01*
X99525499Y-99083771D01*
X99525500Y-99083768D01*
X99525500Y-98916232D01*
X99525499Y-98916228D01*
X99515774Y-98867337D01*
X99492816Y-98751918D01*
X99428703Y-98597137D01*
X99375750Y-98517887D01*
X99346398Y-98473959D01*
X99325520Y-98407281D01*
X99325500Y-98405068D01*
X99325500Y-96165093D01*
X99345185Y-96098054D01*
X99346398Y-96096202D01*
X99428703Y-95973025D01*
X99492816Y-95818244D01*
X99525500Y-95653929D01*
X99525500Y-95486395D01*
X99492816Y-95322080D01*
X99428703Y-95167299D01*
X99397537Y-95120656D01*
X99335626Y-95027999D01*
X99217162Y-94909535D01*
X99077860Y-94816457D01*
X98923082Y-94752346D01*
X98923074Y-94752344D01*
X98758771Y-94719662D01*
X98758767Y-94719662D01*
X98591233Y-94719662D01*
X98591228Y-94719662D01*
X98426925Y-94752344D01*
X98426917Y-94752346D01*
X98272139Y-94816457D01*
X98132837Y-94909535D01*
X98014373Y-95027999D01*
X97921295Y-95167301D01*
X97857184Y-95322079D01*
X97857182Y-95322087D01*
X97824500Y-95486390D01*
X97824500Y-95653933D01*
X97857182Y-95818236D01*
X97857184Y-95818244D01*
X97921295Y-95973022D01*
X97921296Y-95973024D01*
X97921297Y-95973025D01*
X98002752Y-96094931D01*
X98003602Y-96096202D01*
X98024480Y-96162879D01*
X98024500Y-96165093D01*
X98024500Y-98405068D01*
X98004815Y-98472107D01*
X98003602Y-98473959D01*
X97921295Y-98597139D01*
X97857184Y-98751917D01*
X97857182Y-98751925D01*
X97824500Y-98916228D01*
X97824500Y-99083771D01*
X97858372Y-99254057D01*
X97856185Y-99254491D01*
X97856724Y-99314363D01*
X97819480Y-99373478D01*
X97756188Y-99403073D01*
X97737438Y-99404499D01*
X91999058Y-99404499D01*
X91840944Y-99404499D01*
X91688216Y-99445422D01*
X91688215Y-99445422D01*
X91688213Y-99445423D01*
X91688210Y-99445424D01*
X91641421Y-99472438D01*
X91641405Y-99472448D01*
X91638096Y-99474359D01*
X91551285Y-99524479D01*
X91528385Y-99547378D01*
X91518018Y-99554252D01*
X91496044Y-99561045D01*
X91475858Y-99572068D01*
X91463296Y-99571169D01*
X91451266Y-99574889D01*
X91429109Y-99568724D01*
X91406166Y-99567084D01*
X91396084Y-99559537D01*
X91383953Y-99556162D01*
X91368644Y-99538994D01*
X91350233Y-99525212D01*
X91345832Y-99513413D01*
X91337451Y-99504015D01*
X91333853Y-99481297D01*
X91325816Y-99459748D01*
X91325500Y-99450902D01*
X91325500Y-96094931D01*
X91345185Y-96027892D01*
X91346398Y-96026040D01*
X91352951Y-96016233D01*
X91428703Y-95902863D01*
X91492816Y-95748082D01*
X91525500Y-95583767D01*
X91525500Y-95416233D01*
X91492816Y-95251918D01*
X91428703Y-95097137D01*
X91376814Y-95019480D01*
X91335626Y-94957837D01*
X91217162Y-94839373D01*
X91077860Y-94746295D01*
X90923082Y-94682184D01*
X90923074Y-94682182D01*
X90758771Y-94649500D01*
X90758767Y-94649500D01*
X90591233Y-94649500D01*
X90591228Y-94649500D01*
X90426925Y-94682182D01*
X90426917Y-94682184D01*
X90272139Y-94746295D01*
X90132837Y-94839373D01*
X90014373Y-94957837D01*
X89921295Y-95097139D01*
X89857184Y-95251917D01*
X89857182Y-95251925D01*
X89824500Y-95416228D01*
X89824500Y-95583771D01*
X89857182Y-95748074D01*
X89857184Y-95748082D01*
X89921295Y-95902860D01*
X89921296Y-95902862D01*
X89921297Y-95902863D01*
X89997045Y-96016228D01*
X90003602Y-96026040D01*
X90024480Y-96092717D01*
X90024500Y-96094931D01*
X90024500Y-101064071D01*
X90041493Y-101149497D01*
X90041493Y-101149498D01*
X90049497Y-101189737D01*
X90049498Y-101189741D01*
X90049499Y-101189744D01*
X90098535Y-101308127D01*
X90142883Y-101374499D01*
X90169726Y-101414673D01*
X90169727Y-101414674D01*
X91092469Y-102337415D01*
X91125954Y-102398738D01*
X91120970Y-102468429D01*
X91119349Y-102472548D01*
X91107185Y-102501913D01*
X91107182Y-102501925D01*
X91074500Y-102666228D01*
X91074500Y-102833771D01*
X91107182Y-102998074D01*
X91107184Y-102998082D01*
X91171295Y-103152860D01*
X91264373Y-103292162D01*
X91382837Y-103410626D01*
X91425862Y-103439374D01*
X91522137Y-103503703D01*
X91676918Y-103567816D01*
X91841228Y-103600499D01*
X91841232Y-103600500D01*
X91841233Y-103600500D01*
X92008768Y-103600500D01*
X92008769Y-103600499D01*
X92173082Y-103567816D01*
X92327863Y-103503703D01*
X92451041Y-103421398D01*
X92517719Y-103400520D01*
X92519932Y-103400500D01*
X92989071Y-103400500D01*
X93073615Y-103383682D01*
X93114744Y-103375501D01*
X93233127Y-103326465D01*
X93273482Y-103299501D01*
X93339669Y-103255277D01*
X93908126Y-102686818D01*
X93969449Y-102653334D01*
X93995807Y-102650500D01*
X97041900Y-102650500D01*
X97108939Y-102670185D01*
X97154694Y-102722989D01*
X97162518Y-102752019D01*
X97163663Y-102751792D01*
X97197534Y-102922074D01*
X97197536Y-102922082D01*
X97261647Y-103076860D01*
X97354725Y-103216162D01*
X97473189Y-103334626D01*
X97534365Y-103375502D01*
X97612489Y-103427703D01*
X97612490Y-103427703D01*
X97612491Y-103427704D01*
X97647553Y-103442227D01*
X97767270Y-103491816D01*
X97906343Y-103519479D01*
X97931580Y-103524499D01*
X97931584Y-103524500D01*
X97931585Y-103524500D01*
X98099120Y-103524500D01*
X98099121Y-103524499D01*
X98263434Y-103491816D01*
X98418215Y-103427703D01*
X98557514Y-103334626D01*
X98675978Y-103216162D01*
X98769055Y-103076863D01*
X98833168Y-102922082D01*
X98865634Y-102758865D01*
X98898019Y-102696954D01*
X98899570Y-102695375D01*
X99180273Y-102414672D01*
X99180276Y-102414669D01*
X99251465Y-102308127D01*
X99300501Y-102189744D01*
X99310616Y-102138893D01*
X99319944Y-102091998D01*
X99325500Y-102064070D01*
X99325500Y-101844931D01*
X99345185Y-101777892D01*
X99346398Y-101776040D01*
X99428703Y-101652863D01*
X99492816Y-101498082D01*
X99525500Y-101333767D01*
X99525500Y-101179501D01*
X99545185Y-101112462D01*
X99597989Y-101066707D01*
X99649500Y-101055501D01*
X101700500Y-101055501D01*
X101767539Y-101075186D01*
X101813294Y-101127990D01*
X101824500Y-101179501D01*
X101824500Y-101333771D01*
X101857182Y-101498074D01*
X101857184Y-101498082D01*
X101921295Y-101652859D01*
X101921302Y-101652872D01*
X101940170Y-101681111D01*
X101961047Y-101747789D01*
X101942561Y-101815168D01*
X101940170Y-101818889D01*
X101921302Y-101847127D01*
X101921295Y-101847140D01*
X101857184Y-102001917D01*
X101857182Y-102001925D01*
X101824500Y-102166228D01*
X101824500Y-102333771D01*
X101857182Y-102498074D01*
X101857184Y-102498082D01*
X101915061Y-102637808D01*
X101924500Y-102685261D01*
X101924500Y-106073918D01*
X101924500Y-106073920D01*
X101924499Y-106073920D01*
X101953340Y-106218907D01*
X101953343Y-106218917D01*
X101997355Y-106325171D01*
X102009916Y-106355495D01*
X102015177Y-106363368D01*
X102039988Y-106400502D01*
X102092049Y-106478418D01*
X102092052Y-106478421D01*
X103872983Y-108259350D01*
X104446585Y-108832952D01*
X104487373Y-108860205D01*
X104569505Y-108915084D01*
X104610788Y-108932184D01*
X104706088Y-108971659D01*
X104822241Y-108994763D01*
X104841468Y-108998587D01*
X104851081Y-109000500D01*
X104851082Y-109000500D01*
X104851083Y-109000500D01*
X104998918Y-109000500D01*
X106525332Y-109000500D01*
X106592371Y-109020185D01*
X106638126Y-109072989D01*
X106639893Y-109077048D01*
X106671293Y-109152856D01*
X106671300Y-109152869D01*
X106764373Y-109292161D01*
X106764376Y-109292165D01*
X106882835Y-109410624D01*
X106882838Y-109410626D01*
X106887053Y-109413442D01*
X106931861Y-109467052D01*
X106940572Y-109536377D01*
X106910421Y-109599406D01*
X106905849Y-109604229D01*
X106291172Y-110218907D01*
X105738221Y-110771858D01*
X105738218Y-110771861D01*
X105688214Y-110821865D01*
X105598859Y-110911219D01*
X105489371Y-111075079D01*
X105489364Y-111075092D01*
X105413950Y-111257160D01*
X105413947Y-111257170D01*
X105375500Y-111450456D01*
X105375500Y-132209396D01*
X105355815Y-132276435D01*
X105339182Y-132297077D01*
X105232544Y-132403716D01*
X105131973Y-132504286D01*
X105070653Y-132537770D01*
X105044294Y-132540604D01*
X90327635Y-132540604D01*
X90230992Y-132559828D01*
X90134350Y-132579050D01*
X90134350Y-132579051D01*
X90134346Y-132579052D01*
X90134344Y-132579053D01*
X90107723Y-132590080D01*
X90107721Y-132590081D01*
X90107720Y-132590080D01*
X89952268Y-132654470D01*
X89952259Y-132654475D01*
X89788399Y-132763963D01*
X89750560Y-132801803D01*
X89649041Y-132903322D01*
X89589182Y-132963181D01*
X89527859Y-132996666D01*
X89501501Y-132999500D01*
X86390783Y-132999500D01*
X86323744Y-132979815D01*
X86303102Y-132963181D01*
X84006149Y-130666228D01*
X86324500Y-130666228D01*
X86324500Y-130833771D01*
X86357182Y-130998074D01*
X86357184Y-130998082D01*
X86421295Y-131152860D01*
X86514373Y-131292162D01*
X86632837Y-131410626D01*
X86696877Y-131453416D01*
X86772137Y-131503703D01*
X86772138Y-131503703D01*
X86772139Y-131503704D01*
X86773397Y-131504225D01*
X86926918Y-131567816D01*
X87091228Y-131600499D01*
X87091232Y-131600500D01*
X87091233Y-131600500D01*
X87258768Y-131600500D01*
X87258769Y-131600499D01*
X87423082Y-131567816D01*
X87562808Y-131509938D01*
X87610261Y-131500500D01*
X88748920Y-131500500D01*
X88846462Y-131481096D01*
X88893913Y-131471658D01*
X89030495Y-131415084D01*
X89091422Y-131374374D01*
X89153416Y-131332952D01*
X93647908Y-126838458D01*
X93688130Y-126811582D01*
X93827863Y-126753703D01*
X93967162Y-126660626D01*
X94085626Y-126542162D01*
X94178703Y-126402863D01*
X94242816Y-126248082D01*
X94275500Y-126083767D01*
X94275500Y-125916233D01*
X94242816Y-125751918D01*
X94178703Y-125597137D01*
X94094719Y-125471446D01*
X94085626Y-125457837D01*
X93967162Y-125339373D01*
X93827860Y-125246295D01*
X93673082Y-125182184D01*
X93673074Y-125182182D01*
X93508771Y-125149500D01*
X93508767Y-125149500D01*
X93341233Y-125149500D01*
X93341228Y-125149500D01*
X93176925Y-125182182D01*
X93176917Y-125182184D01*
X93022139Y-125246295D01*
X92882837Y-125339373D01*
X92764373Y-125457837D01*
X92671296Y-125597137D01*
X92613419Y-125736864D01*
X92586539Y-125777091D01*
X90711681Y-127651950D01*
X90650358Y-127685435D01*
X90580666Y-127680451D01*
X90524733Y-127638579D01*
X90500316Y-127573115D01*
X90500000Y-127564269D01*
X90500000Y-125600000D01*
X89928552Y-125600000D01*
X89528553Y-126000000D01*
X89921704Y-126393151D01*
X89955189Y-126454474D01*
X89950205Y-126524166D01*
X89921704Y-126568513D01*
X89840217Y-126649999D01*
X89921704Y-126731485D01*
X89955189Y-126792808D01*
X89950205Y-126862500D01*
X89921704Y-126906848D01*
X89351777Y-127476777D01*
X88775000Y-128053552D01*
X88775000Y-128300000D01*
X89764269Y-128300000D01*
X89831308Y-128319685D01*
X89877063Y-128372489D01*
X89887007Y-128441647D01*
X89857982Y-128505203D01*
X89851950Y-128511681D01*
X88400451Y-129963181D01*
X88339128Y-129996666D01*
X88312770Y-129999500D01*
X87610261Y-129999500D01*
X87562808Y-129990061D01*
X87423082Y-129932184D01*
X87423074Y-129932182D01*
X87258771Y-129899500D01*
X87258767Y-129899500D01*
X87091233Y-129899500D01*
X87091228Y-129899500D01*
X86926925Y-129932182D01*
X86926917Y-129932184D01*
X86772139Y-129996295D01*
X86632837Y-130089373D01*
X86514373Y-130207837D01*
X86421295Y-130347139D01*
X86357184Y-130501917D01*
X86357182Y-130501925D01*
X86324500Y-130666228D01*
X84006149Y-130666228D01*
X83461819Y-130121898D01*
X83428334Y-130060575D01*
X83425500Y-130034217D01*
X83425500Y-127847844D01*
X86550000Y-127847844D01*
X86556401Y-127907372D01*
X86556403Y-127907379D01*
X86606645Y-128042086D01*
X86606649Y-128042093D01*
X86692809Y-128157187D01*
X86692812Y-128157190D01*
X86807906Y-128243350D01*
X86807913Y-128243354D01*
X86942620Y-128293596D01*
X86942627Y-128293598D01*
X87002155Y-128299999D01*
X87002172Y-128300000D01*
X88275000Y-128300000D01*
X88275000Y-128053553D01*
X88274999Y-128053552D01*
X87698223Y-127476777D01*
X87491609Y-127270163D01*
X87725000Y-127270163D01*
X87725000Y-127329837D01*
X87747836Y-127384968D01*
X87790032Y-127427164D01*
X87845163Y-127450000D01*
X87904837Y-127450000D01*
X87959968Y-127427164D01*
X88002164Y-127384968D01*
X88025000Y-127329837D01*
X88025000Y-127300000D01*
X88228553Y-127300000D01*
X88274999Y-127346446D01*
X88275000Y-127346446D01*
X88775000Y-127346446D01*
X88821446Y-127300001D01*
X88821446Y-127299999D01*
X88791610Y-127270163D01*
X89025000Y-127270163D01*
X89025000Y-127329837D01*
X89047836Y-127384968D01*
X89090032Y-127427164D01*
X89145163Y-127450000D01*
X89204837Y-127450000D01*
X89259968Y-127427164D01*
X89302164Y-127384968D01*
X89325000Y-127329837D01*
X89325000Y-127270163D01*
X89302164Y-127215032D01*
X89259968Y-127172836D01*
X89204837Y-127150000D01*
X89145163Y-127150000D01*
X89090032Y-127172836D01*
X89047836Y-127215032D01*
X89025000Y-127270163D01*
X88791610Y-127270163D01*
X88775000Y-127253553D01*
X88775000Y-127346446D01*
X88275000Y-127346446D01*
X88275000Y-127253553D01*
X88228553Y-127300000D01*
X88025000Y-127300000D01*
X88025000Y-127270163D01*
X88002164Y-127215032D01*
X87959968Y-127172836D01*
X87904837Y-127150000D01*
X87845163Y-127150000D01*
X87790032Y-127172836D01*
X87747836Y-127215032D01*
X87725000Y-127270163D01*
X87491609Y-127270163D01*
X87128294Y-126906848D01*
X87094809Y-126845525D01*
X87099793Y-126775833D01*
X87128294Y-126731485D01*
X87209779Y-126650000D01*
X87578553Y-126650000D01*
X87875000Y-126946446D01*
X87875001Y-126946446D01*
X88171446Y-126650001D01*
X88171446Y-126650000D01*
X88878553Y-126650000D01*
X89175000Y-126946446D01*
X89175001Y-126946446D01*
X89471446Y-126650001D01*
X89471446Y-126649999D01*
X89175001Y-126353553D01*
X89175000Y-126353553D01*
X88878553Y-126650000D01*
X88171446Y-126650000D01*
X88171446Y-126649999D01*
X87875001Y-126353553D01*
X87875000Y-126353553D01*
X87578553Y-126650000D01*
X87209779Y-126650000D01*
X87209780Y-126649999D01*
X87128294Y-126568513D01*
X87094809Y-126507190D01*
X87099793Y-126437498D01*
X87128294Y-126393151D01*
X87521446Y-125999999D01*
X87491610Y-125970163D01*
X87725000Y-125970163D01*
X87725000Y-126029837D01*
X87747836Y-126084968D01*
X87790032Y-126127164D01*
X87845163Y-126150000D01*
X87904837Y-126150000D01*
X87959968Y-126127164D01*
X88002164Y-126084968D01*
X88025000Y-126029837D01*
X88025000Y-126000000D01*
X88228553Y-126000000D01*
X88274999Y-126046446D01*
X88275000Y-126046446D01*
X88775000Y-126046446D01*
X88821446Y-126000001D01*
X88821446Y-125999999D01*
X88791610Y-125970163D01*
X89025000Y-125970163D01*
X89025000Y-126029837D01*
X89047836Y-126084968D01*
X89090032Y-126127164D01*
X89145163Y-126150000D01*
X89204837Y-126150000D01*
X89259968Y-126127164D01*
X89302164Y-126084968D01*
X89325000Y-126029837D01*
X89325000Y-125970163D01*
X89302164Y-125915032D01*
X89259968Y-125872836D01*
X89204837Y-125850000D01*
X89145163Y-125850000D01*
X89090032Y-125872836D01*
X89047836Y-125915032D01*
X89025000Y-125970163D01*
X88791610Y-125970163D01*
X88775000Y-125953553D01*
X88775000Y-126046446D01*
X88275000Y-126046446D01*
X88275000Y-125953553D01*
X88228553Y-126000000D01*
X88025000Y-126000000D01*
X88025000Y-125970163D01*
X88002164Y-125915032D01*
X87959968Y-125872836D01*
X87904837Y-125850000D01*
X87845163Y-125850000D01*
X87790032Y-125872836D01*
X87747836Y-125915032D01*
X87725000Y-125970163D01*
X87491610Y-125970163D01*
X87121447Y-125600000D01*
X87828554Y-125600000D01*
X87875000Y-125646445D01*
X87921446Y-125600000D01*
X89128554Y-125600000D01*
X89175000Y-125646445D01*
X89221446Y-125600000D01*
X89128554Y-125600000D01*
X87921446Y-125600000D01*
X87828554Y-125600000D01*
X87121447Y-125600000D01*
X86550000Y-125600000D01*
X86550000Y-127847844D01*
X83425500Y-127847844D01*
X83425500Y-122852155D01*
X86550000Y-122852155D01*
X86550000Y-125100000D01*
X87121447Y-125100000D01*
X87121447Y-125099999D01*
X87828553Y-125099999D01*
X87828554Y-125100000D01*
X87921446Y-125100000D01*
X87921446Y-125099999D01*
X89128553Y-125099999D01*
X89128554Y-125100000D01*
X89221446Y-125100000D01*
X89221446Y-125099999D01*
X89175000Y-125053553D01*
X89128553Y-125099999D01*
X87921446Y-125099999D01*
X87875000Y-125053553D01*
X87828553Y-125099999D01*
X87121447Y-125099999D01*
X87238221Y-124983226D01*
X87521446Y-124700000D01*
X87491609Y-124670163D01*
X87725000Y-124670163D01*
X87725000Y-124729837D01*
X87747836Y-124784968D01*
X87790032Y-124827164D01*
X87845163Y-124850000D01*
X87904837Y-124850000D01*
X87959968Y-124827164D01*
X88002164Y-124784968D01*
X88025000Y-124729837D01*
X88025000Y-124700000D01*
X88228553Y-124700000D01*
X88274999Y-124746446D01*
X88275000Y-124746446D01*
X88775000Y-124746446D01*
X88821446Y-124700001D01*
X88821446Y-124699999D01*
X88791610Y-124670163D01*
X89025000Y-124670163D01*
X89025000Y-124729837D01*
X89047836Y-124784968D01*
X89090032Y-124827164D01*
X89145163Y-124850000D01*
X89204837Y-124850000D01*
X89259968Y-124827164D01*
X89302164Y-124784968D01*
X89325000Y-124729837D01*
X89325000Y-124670163D01*
X89302164Y-124615032D01*
X89259968Y-124572836D01*
X89204837Y-124550000D01*
X89145163Y-124550000D01*
X89090032Y-124572836D01*
X89047836Y-124615032D01*
X89025000Y-124670163D01*
X88791610Y-124670163D01*
X88775000Y-124653553D01*
X88775000Y-124746446D01*
X88275000Y-124746446D01*
X88275000Y-124653553D01*
X88228553Y-124700000D01*
X88025000Y-124700000D01*
X88025000Y-124670163D01*
X88002164Y-124615032D01*
X87959968Y-124572836D01*
X87904837Y-124550000D01*
X87845163Y-124550000D01*
X87790032Y-124572836D01*
X87747836Y-124615032D01*
X87725000Y-124670163D01*
X87491609Y-124670163D01*
X87128294Y-124306848D01*
X87094809Y-124245525D01*
X87099793Y-124175833D01*
X87128294Y-124131485D01*
X87209779Y-124050000D01*
X87578553Y-124050000D01*
X87875000Y-124346446D01*
X87875001Y-124346446D01*
X88171446Y-124050001D01*
X88171446Y-124050000D01*
X88878553Y-124050000D01*
X89175000Y-124346446D01*
X89175001Y-124346446D01*
X89471446Y-124050001D01*
X89471446Y-124049999D01*
X89175001Y-123753553D01*
X89175000Y-123753553D01*
X88878553Y-124050000D01*
X88171446Y-124050000D01*
X88171446Y-124049999D01*
X87875001Y-123753553D01*
X87875000Y-123753553D01*
X87578553Y-124050000D01*
X87209779Y-124050000D01*
X87209780Y-124049999D01*
X87128294Y-123968513D01*
X87094809Y-123907190D01*
X87099793Y-123837498D01*
X87128294Y-123793151D01*
X87551283Y-123370163D01*
X87725000Y-123370163D01*
X87725000Y-123429837D01*
X87747836Y-123484968D01*
X87790032Y-123527164D01*
X87845163Y-123550000D01*
X87904837Y-123550000D01*
X87959968Y-123527164D01*
X88002164Y-123484968D01*
X88025000Y-123429837D01*
X88025000Y-123400000D01*
X88228553Y-123400000D01*
X88274999Y-123446446D01*
X88275000Y-123446446D01*
X88775000Y-123446446D01*
X88821446Y-123400001D01*
X88821446Y-123399999D01*
X88791610Y-123370163D01*
X89025000Y-123370163D01*
X89025000Y-123429837D01*
X89047836Y-123484968D01*
X89090032Y-123527164D01*
X89145163Y-123550000D01*
X89204837Y-123550000D01*
X89259968Y-123527164D01*
X89302164Y-123484968D01*
X89325000Y-123429837D01*
X89325000Y-123370163D01*
X89302164Y-123315032D01*
X89259968Y-123272836D01*
X89204837Y-123250000D01*
X89145163Y-123250000D01*
X89090032Y-123272836D01*
X89047836Y-123315032D01*
X89025000Y-123370163D01*
X88791610Y-123370163D01*
X88775000Y-123353553D01*
X88775000Y-123446446D01*
X88275000Y-123446446D01*
X88275000Y-123353553D01*
X88228553Y-123400000D01*
X88025000Y-123400000D01*
X88025000Y-123370163D01*
X88002164Y-123315032D01*
X87959968Y-123272836D01*
X87904837Y-123250000D01*
X87845163Y-123250000D01*
X87790032Y-123272836D01*
X87747836Y-123315032D01*
X87725000Y-123370163D01*
X87551283Y-123370163D01*
X87660489Y-123260957D01*
X87698223Y-123223223D01*
X88274999Y-122646446D01*
X88775000Y-122646446D01*
X89351777Y-123223223D01*
X89921704Y-123793151D01*
X89955189Y-123854474D01*
X89950205Y-123924166D01*
X89921704Y-123968513D01*
X89840217Y-124049999D01*
X89921704Y-124131485D01*
X89955189Y-124192808D01*
X89950205Y-124262500D01*
X89921704Y-124306848D01*
X89528553Y-124699999D01*
X89528553Y-124700000D01*
X89928553Y-125100000D01*
X90500000Y-125100000D01*
X90500000Y-122852172D01*
X90499999Y-122852155D01*
X90493598Y-122792627D01*
X90493596Y-122792620D01*
X90443354Y-122657913D01*
X90443350Y-122657906D01*
X90357190Y-122542812D01*
X90357187Y-122542809D01*
X90242093Y-122456649D01*
X90242086Y-122456645D01*
X90107379Y-122406403D01*
X90107372Y-122406401D01*
X90047844Y-122400000D01*
X88775000Y-122400000D01*
X88775000Y-122646446D01*
X88274999Y-122646446D01*
X88275000Y-122646445D01*
X88275000Y-122400000D01*
X87002155Y-122400000D01*
X86942627Y-122406401D01*
X86942620Y-122406403D01*
X86807913Y-122456645D01*
X86807906Y-122456649D01*
X86692812Y-122542809D01*
X86692809Y-122542812D01*
X86606649Y-122657906D01*
X86606645Y-122657913D01*
X86556403Y-122792620D01*
X86556401Y-122792627D01*
X86550000Y-122852155D01*
X83425500Y-122852155D01*
X83425500Y-120401456D01*
X83387052Y-120208170D01*
X83387051Y-120208169D01*
X83387051Y-120208165D01*
X83340850Y-120096625D01*
X83311635Y-120026092D01*
X83311628Y-120026079D01*
X83202139Y-119862218D01*
X83202136Y-119862214D01*
X83062785Y-119722863D01*
X83062781Y-119722860D01*
X82898920Y-119613371D01*
X82898907Y-119613364D01*
X82716839Y-119537950D01*
X82716829Y-119537947D01*
X82523543Y-119499500D01*
X82523541Y-119499500D01*
X82326459Y-119499500D01*
X82326457Y-119499500D01*
X82133170Y-119537947D01*
X82133160Y-119537950D01*
X81951092Y-119613364D01*
X81951079Y-119613371D01*
X81787218Y-119722860D01*
X81787214Y-119722863D01*
X81647863Y-119862214D01*
X81647860Y-119862218D01*
X81538371Y-120026079D01*
X81538364Y-120026092D01*
X81462950Y-120208160D01*
X81462947Y-120208170D01*
X81424500Y-120401456D01*
X81424500Y-120401459D01*
X81424500Y-130598541D01*
X81424500Y-130598543D01*
X81424499Y-130598543D01*
X59990707Y-130598543D01*
X59972737Y-126921628D01*
X61351879Y-126921628D01*
X61351879Y-127773250D01*
X62105879Y-127773250D01*
X62105879Y-128273250D01*
X61351879Y-128273250D01*
X61351879Y-129124871D01*
X61382641Y-129319096D01*
X61443405Y-129506112D01*
X61443406Y-129506115D01*
X61532682Y-129681326D01*
X61648268Y-129840416D01*
X61787312Y-129979460D01*
X61946402Y-130095046D01*
X62121613Y-130184322D01*
X62121616Y-130184323D01*
X62308626Y-130245085D01*
X62351179Y-130251825D01*
X62351179Y-129454135D01*
X62410000Y-129488096D01*
X62535972Y-129521850D01*
X62666386Y-129521850D01*
X62792358Y-129488096D01*
X62851179Y-129454135D01*
X62851179Y-130251824D01*
X62893731Y-130245085D01*
X63080741Y-130184323D01*
X63080744Y-130184322D01*
X63255955Y-130095046D01*
X63415045Y-129979460D01*
X63554089Y-129840416D01*
X63669675Y-129681326D01*
X63758951Y-129506115D01*
X63758952Y-129506112D01*
X63819716Y-129319096D01*
X63850479Y-129124871D01*
X63850479Y-128273250D01*
X63096479Y-128273250D01*
X63096479Y-127773250D01*
X63850479Y-127773250D01*
X63850479Y-126921628D01*
X63850472Y-126921583D01*
X67351380Y-126921583D01*
X67351380Y-129124916D01*
X67382153Y-129319212D01*
X67442946Y-129506311D01*
X67532122Y-129681326D01*
X67532255Y-129681588D01*
X67647886Y-129840740D01*
X67786990Y-129979844D01*
X67946142Y-130095475D01*
X67998000Y-130121898D01*
X68121418Y-130184783D01*
X68121420Y-130184783D01*
X68121423Y-130184785D01*
X68192370Y-130207837D01*
X68308517Y-130245576D01*
X68502814Y-130276350D01*
X68502819Y-130276350D01*
X68699546Y-130276350D01*
X68893842Y-130245576D01*
X68895353Y-130245085D01*
X69080937Y-130184785D01*
X69256218Y-130095475D01*
X69415370Y-129979844D01*
X69554474Y-129840740D01*
X69670105Y-129681588D01*
X69759415Y-129506307D01*
X69820206Y-129319212D01*
X69820224Y-129319096D01*
X69850980Y-129124916D01*
X69850980Y-126921583D01*
X69820206Y-126727287D01*
X69788251Y-126628941D01*
X69759415Y-126540193D01*
X69759413Y-126540190D01*
X69759413Y-126540188D01*
X69684493Y-126393151D01*
X69670105Y-126364912D01*
X69554474Y-126205760D01*
X69415370Y-126066656D01*
X69256218Y-125951025D01*
X69080941Y-125861716D01*
X68893842Y-125800923D01*
X68699546Y-125770150D01*
X68699541Y-125770150D01*
X68502819Y-125770150D01*
X68502814Y-125770150D01*
X68308517Y-125800923D01*
X68121418Y-125861716D01*
X67946141Y-125951025D01*
X67913143Y-125975000D01*
X67786990Y-126066656D01*
X67786988Y-126066658D01*
X67786987Y-126066658D01*
X67647888Y-126205757D01*
X67647888Y-126205758D01*
X67647886Y-126205760D01*
X67617143Y-126248074D01*
X67532255Y-126364911D01*
X67442946Y-126540188D01*
X67382153Y-126727287D01*
X67351380Y-126921583D01*
X63850472Y-126921583D01*
X63819716Y-126727403D01*
X63758952Y-126540387D01*
X63758951Y-126540384D01*
X63669675Y-126365173D01*
X63554089Y-126206083D01*
X63415045Y-126067039D01*
X63255955Y-125951453D01*
X63080744Y-125862177D01*
X63080738Y-125862175D01*
X62893722Y-125801411D01*
X62851179Y-125794673D01*
X62851179Y-126592364D01*
X62792358Y-126558404D01*
X62666386Y-126524650D01*
X62535972Y-126524650D01*
X62410000Y-126558404D01*
X62351179Y-126592364D01*
X62351179Y-125794673D01*
X62351178Y-125794673D01*
X62308635Y-125801411D01*
X62121619Y-125862175D01*
X62121613Y-125862177D01*
X61946402Y-125951453D01*
X61787312Y-126067039D01*
X61648268Y-126206083D01*
X61532682Y-126365173D01*
X61443406Y-126540384D01*
X61443405Y-126540387D01*
X61382641Y-126727403D01*
X61351879Y-126921628D01*
X59972737Y-126921628D01*
X59823791Y-96444999D01*
X61056115Y-96444999D01*
X61056116Y-96445000D01*
X61925272Y-96445000D01*
X61833386Y-96483060D01*
X61763060Y-96553386D01*
X61725000Y-96645272D01*
X61725000Y-96744728D01*
X61763060Y-96836614D01*
X61833386Y-96906940D01*
X61925272Y-96945000D01*
X61056116Y-96945000D01*
X61061506Y-96972100D01*
X61061507Y-96972103D01*
X61133119Y-97144991D01*
X61133124Y-97144999D01*
X61181612Y-97217566D01*
X61202490Y-97284243D01*
X61184006Y-97351623D01*
X61181615Y-97355344D01*
X61163207Y-97382895D01*
X61163200Y-97382907D01*
X61114699Y-97499999D01*
X61114700Y-97500000D01*
X61801000Y-97500000D01*
X61868039Y-97519685D01*
X61894307Y-97550000D01*
X61885218Y-97550000D01*
X61811709Y-97580448D01*
X61755448Y-97636709D01*
X61725000Y-97710218D01*
X61725000Y-97789782D01*
X61755448Y-97863291D01*
X61811709Y-97919552D01*
X61885218Y-97950000D01*
X61897282Y-97950000D01*
X61852511Y-97988794D01*
X61801000Y-98000000D01*
X61114699Y-98000000D01*
X61146820Y-98077548D01*
X61154289Y-98147018D01*
X61146820Y-98172452D01*
X61114699Y-98249999D01*
X61114700Y-98250000D01*
X61801000Y-98250000D01*
X61868039Y-98269685D01*
X61894307Y-98300000D01*
X61885218Y-98300000D01*
X61811709Y-98330448D01*
X61755448Y-98386709D01*
X61725000Y-98460218D01*
X61725000Y-98539782D01*
X61755448Y-98613291D01*
X61811709Y-98669552D01*
X61885218Y-98700000D01*
X61897282Y-98700000D01*
X61852511Y-98738794D01*
X61801000Y-98750000D01*
X61114700Y-98750000D01*
X61163200Y-98867092D01*
X61163206Y-98867103D01*
X61181613Y-98894651D01*
X61202490Y-98961329D01*
X61184005Y-99028709D01*
X61181613Y-99032431D01*
X61133123Y-99105001D01*
X61133119Y-99105008D01*
X61061507Y-99277896D01*
X61061506Y-99277899D01*
X61056115Y-99304999D01*
X61056116Y-99305000D01*
X61925272Y-99305000D01*
X61833386Y-99343060D01*
X61763060Y-99413386D01*
X61725000Y-99505272D01*
X61725000Y-99604728D01*
X61763060Y-99696614D01*
X61833386Y-99766940D01*
X61925272Y-99805000D01*
X61056116Y-99805000D01*
X61061506Y-99832100D01*
X61061507Y-99832103D01*
X61133119Y-100004991D01*
X61133124Y-100005000D01*
X61237086Y-100160589D01*
X61237089Y-100160593D01*
X61369406Y-100292910D01*
X61369410Y-100292913D01*
X61524999Y-100396875D01*
X61525008Y-100396880D01*
X61697894Y-100468491D01*
X61697902Y-100468493D01*
X61881428Y-100504999D01*
X61881431Y-100505000D01*
X62225000Y-100505000D01*
X62225000Y-99805000D01*
X62725000Y-99805000D01*
X62725000Y-100505000D01*
X63068569Y-100505000D01*
X63068571Y-100504999D01*
X63252097Y-100468493D01*
X63252105Y-100468491D01*
X63424991Y-100396880D01*
X63425000Y-100396875D01*
X63580589Y-100292913D01*
X63580593Y-100292910D01*
X63712910Y-100160593D01*
X63712913Y-100160589D01*
X63816875Y-100005000D01*
X63816880Y-100004991D01*
X63888492Y-99832103D01*
X63888493Y-99832100D01*
X63893884Y-99805000D01*
X63024728Y-99805000D01*
X63116614Y-99766940D01*
X63186940Y-99696614D01*
X63225000Y-99604728D01*
X63225000Y-99505272D01*
X63186940Y-99413386D01*
X63116614Y-99343060D01*
X63024728Y-99305000D01*
X63900297Y-99305000D01*
X63943496Y-99275573D01*
X64005798Y-99271955D01*
X64023620Y-99275500D01*
X64326381Y-99275500D01*
X64326381Y-99275499D01*
X64392413Y-99262365D01*
X64434057Y-99254082D01*
X64503648Y-99260309D01*
X64558826Y-99303172D01*
X64582070Y-99369062D01*
X64582166Y-99380199D01*
X64581656Y-99394231D01*
X64574499Y-99420943D01*
X64574499Y-99579057D01*
X64574500Y-99579060D01*
X64574500Y-99591300D01*
X64574500Y-100449902D01*
X64554815Y-100516941D01*
X64538181Y-100537583D01*
X64387584Y-100688180D01*
X64326261Y-100721665D01*
X64256569Y-100716681D01*
X64252468Y-100715067D01*
X64173082Y-100682184D01*
X64173074Y-100682182D01*
X64008771Y-100649500D01*
X64008767Y-100649500D01*
X63841233Y-100649500D01*
X63841228Y-100649500D01*
X63676925Y-100682182D01*
X63676917Y-100682184D01*
X63522139Y-100746295D01*
X63382837Y-100839373D01*
X63264373Y-100957837D01*
X63171295Y-101097139D01*
X63107184Y-101251917D01*
X63107182Y-101251925D01*
X63074500Y-101416228D01*
X63074500Y-101583771D01*
X63107182Y-101748074D01*
X63107184Y-101748082D01*
X63171295Y-101902860D01*
X63264373Y-102042162D01*
X63382837Y-102160626D01*
X63475494Y-102222537D01*
X63522137Y-102253703D01*
X63676918Y-102317816D01*
X63775450Y-102337415D01*
X63841228Y-102350499D01*
X63841232Y-102350500D01*
X63841233Y-102350500D01*
X64008768Y-102350500D01*
X64008769Y-102350499D01*
X64173082Y-102317816D01*
X64327863Y-102253703D01*
X64467162Y-102160626D01*
X64512294Y-102115492D01*
X64520703Y-102110022D01*
X64524571Y-102104735D01*
X64542123Y-102096087D01*
X64555359Y-102087478D01*
X64561508Y-102085106D01*
X64656785Y-102059577D01*
X64706904Y-102030639D01*
X64793716Y-101980520D01*
X64905520Y-101868716D01*
X64905520Y-101868714D01*
X64915728Y-101858507D01*
X64915730Y-101858504D01*
X65543713Y-101230521D01*
X65543716Y-101230520D01*
X65655520Y-101118716D01*
X65705639Y-101031904D01*
X65734577Y-100981785D01*
X65775500Y-100829057D01*
X65775500Y-100670943D01*
X65775500Y-100177122D01*
X65795185Y-100110083D01*
X65847989Y-100064328D01*
X65917147Y-100054384D01*
X65980703Y-100083409D01*
X66002603Y-100108232D01*
X66037588Y-100160592D01*
X66169906Y-100292910D01*
X66169910Y-100292913D01*
X66325499Y-100396875D01*
X66325508Y-100396880D01*
X66498394Y-100468491D01*
X66498402Y-100468493D01*
X66681928Y-100504999D01*
X66681931Y-100505000D01*
X67025500Y-100505000D01*
X67025500Y-99805000D01*
X67525500Y-99805000D01*
X67525500Y-100505000D01*
X67869069Y-100505000D01*
X68032003Y-100472590D01*
X68101595Y-100478817D01*
X68156772Y-100521680D01*
X68180017Y-100587570D01*
X68163949Y-100655567D01*
X68143876Y-100681888D01*
X67712584Y-101113181D01*
X67651261Y-101146666D01*
X67624903Y-101149500D01*
X67591228Y-101149500D01*
X67426925Y-101182182D01*
X67426917Y-101182184D01*
X67272139Y-101246295D01*
X67132837Y-101339373D01*
X67014373Y-101457837D01*
X66921295Y-101597139D01*
X66857184Y-101751917D01*
X66857182Y-101751925D01*
X66824500Y-101916228D01*
X66824500Y-102083771D01*
X66857182Y-102248074D01*
X66857184Y-102248082D01*
X66921295Y-102402860D01*
X67014373Y-102542162D01*
X67132837Y-102660626D01*
X67172038Y-102686819D01*
X67272137Y-102753703D01*
X67426918Y-102817816D01*
X67591228Y-102850499D01*
X67591232Y-102850500D01*
X67591233Y-102850500D01*
X67758768Y-102850500D01*
X67758769Y-102850499D01*
X67923082Y-102817816D01*
X68077863Y-102753703D01*
X68217162Y-102660626D01*
X68335626Y-102542162D01*
X68428703Y-102402863D01*
X68492816Y-102248082D01*
X68525500Y-102083767D01*
X68525500Y-102050097D01*
X68545185Y-101983058D01*
X68561819Y-101962416D01*
X68862818Y-101661417D01*
X68924141Y-101627932D01*
X68993833Y-101632916D01*
X69049766Y-101674788D01*
X69074183Y-101740252D01*
X69074499Y-101749098D01*
X69074499Y-101829054D01*
X69074498Y-101829054D01*
X69115083Y-101980519D01*
X69115423Y-101981785D01*
X69143888Y-102031087D01*
X69182022Y-102097137D01*
X69194479Y-102118714D01*
X69194481Y-102118717D01*
X69313349Y-102237585D01*
X69313355Y-102237590D01*
X69538181Y-102462416D01*
X69571666Y-102523739D01*
X69574500Y-102550097D01*
X69574500Y-102583771D01*
X69607182Y-102748074D01*
X69607184Y-102748082D01*
X69671295Y-102902860D01*
X69764373Y-103042162D01*
X69882835Y-103160624D01*
X69882838Y-103160626D01*
X69900455Y-103172397D01*
X69945260Y-103226009D01*
X69953969Y-103295334D01*
X69923814Y-103358362D01*
X69864372Y-103395081D01*
X69831565Y-103399500D01*
X68145102Y-103399500D01*
X68078063Y-103379815D01*
X68076211Y-103378602D01*
X68027868Y-103346300D01*
X68027859Y-103346295D01*
X67873082Y-103282184D01*
X67873074Y-103282182D01*
X67708771Y-103249500D01*
X67708767Y-103249500D01*
X67541233Y-103249500D01*
X67541228Y-103249500D01*
X67376925Y-103282182D01*
X67376917Y-103282184D01*
X67222139Y-103346295D01*
X67082837Y-103439373D01*
X66964373Y-103557837D01*
X66871295Y-103697139D01*
X66807184Y-103851917D01*
X66807182Y-103851925D01*
X66774500Y-104016228D01*
X66774500Y-104025500D01*
X66754815Y-104092539D01*
X66702011Y-104138294D01*
X66650500Y-104149500D01*
X66595940Y-104149500D01*
X66555019Y-104160464D01*
X66555019Y-104160465D01*
X66517751Y-104170451D01*
X66443214Y-104190423D01*
X66443209Y-104190426D01*
X66306290Y-104269475D01*
X66306282Y-104269481D01*
X66194478Y-104381286D01*
X64906979Y-105668784D01*
X64845656Y-105702269D01*
X64775964Y-105697285D01*
X64720031Y-105655413D01*
X64716208Y-105650011D01*
X64678223Y-105593163D01*
X64678222Y-105593162D01*
X64678221Y-105593160D01*
X64559759Y-105474698D01*
X64420457Y-105381620D01*
X64265679Y-105317509D01*
X64265671Y-105317507D01*
X64101368Y-105284825D01*
X64101364Y-105284825D01*
X63933830Y-105284825D01*
X63933825Y-105284825D01*
X63769522Y-105317507D01*
X63769514Y-105317509D01*
X63614736Y-105381620D01*
X63475434Y-105474698D01*
X63356970Y-105593162D01*
X63263892Y-105732464D01*
X63199781Y-105887242D01*
X63199779Y-105887250D01*
X63167097Y-106051553D01*
X63167097Y-106219096D01*
X63199779Y-106383399D01*
X63199781Y-106383407D01*
X63263892Y-106538185D01*
X63263893Y-106538187D01*
X63263894Y-106538188D01*
X63305445Y-106600373D01*
X63311095Y-106618417D01*
X63321320Y-106634327D01*
X63325771Y-106665287D01*
X63326323Y-106667049D01*
X63326343Y-106669262D01*
X63326343Y-106796388D01*
X63326343Y-106796390D01*
X63326344Y-106806384D01*
X63326344Y-107169969D01*
X63326343Y-107169987D01*
X63326343Y-107335693D01*
X63326342Y-107335693D01*
X63367267Y-107488424D01*
X63386914Y-107522454D01*
X63390314Y-107528342D01*
X63422314Y-107583768D01*
X63446323Y-107625353D01*
X63446325Y-107625356D01*
X63565193Y-107744224D01*
X63565199Y-107744229D01*
X63788181Y-107967211D01*
X63821666Y-108028534D01*
X63824500Y-108054892D01*
X63824500Y-110163330D01*
X63824499Y-110163348D01*
X63824499Y-110329054D01*
X63824498Y-110329054D01*
X63865423Y-110481785D01*
X63886553Y-110518384D01*
X63892303Y-110528342D01*
X63927539Y-110589373D01*
X63944479Y-110618714D01*
X63944481Y-110618717D01*
X64063349Y-110737585D01*
X64063355Y-110737590D01*
X64788181Y-111462416D01*
X64821666Y-111523739D01*
X64824500Y-111550097D01*
X64824500Y-111583771D01*
X64857182Y-111748074D01*
X64857184Y-111748082D01*
X64921295Y-111902860D01*
X65014373Y-112042162D01*
X65132837Y-112160626D01*
X65225494Y-112222537D01*
X65272137Y-112253703D01*
X65426918Y-112317816D01*
X65591228Y-112350499D01*
X65591232Y-112350500D01*
X65591233Y-112350500D01*
X65758768Y-112350500D01*
X65758769Y-112350499D01*
X65923082Y-112317816D01*
X66077863Y-112253703D01*
X66217162Y-112160626D01*
X66335626Y-112042162D01*
X66428703Y-111902863D01*
X66492816Y-111748082D01*
X66525500Y-111583767D01*
X66525500Y-111416233D01*
X66492816Y-111251918D01*
X66485939Y-111235317D01*
X66478470Y-111165849D01*
X66509744Y-111103370D01*
X66569832Y-111067716D01*
X66600500Y-111063864D01*
X67363644Y-111063864D01*
X67363660Y-111063865D01*
X67371256Y-111063865D01*
X67529367Y-111063865D01*
X67529370Y-111063865D01*
X67682098Y-111022941D01*
X67732217Y-110994003D01*
X67819029Y-110943884D01*
X67930833Y-110832080D01*
X67930833Y-110832078D01*
X67941041Y-110821871D01*
X67941042Y-110821868D01*
X68335279Y-110427633D01*
X68396602Y-110394148D01*
X68422960Y-110391314D01*
X69297517Y-110391314D01*
X69297533Y-110391315D01*
X69305129Y-110391315D01*
X69463240Y-110391315D01*
X69463243Y-110391315D01*
X69615971Y-110350391D01*
X69666090Y-110321453D01*
X69752902Y-110271334D01*
X69864706Y-110159530D01*
X69864706Y-110159528D01*
X69874914Y-110149321D01*
X69874916Y-110149318D01*
X73520109Y-106504124D01*
X73581430Y-106470641D01*
X73651122Y-106475625D01*
X73676677Y-106488704D01*
X73748526Y-106536712D01*
X73903307Y-106600825D01*
X74067617Y-106633508D01*
X74067621Y-106633509D01*
X74067622Y-106633509D01*
X74235157Y-106633509D01*
X74235158Y-106633508D01*
X74399471Y-106600825D01*
X74554252Y-106536712D01*
X74693551Y-106443635D01*
X74699447Y-106437739D01*
X74712819Y-106424368D01*
X74774142Y-106390883D01*
X74843834Y-106395867D01*
X74899767Y-106437739D01*
X74924184Y-106503203D01*
X74924500Y-106512049D01*
X74924500Y-110073918D01*
X74924500Y-110073920D01*
X74924499Y-110073920D01*
X74953340Y-110218907D01*
X74953343Y-110218917D01*
X75009914Y-110355492D01*
X75033849Y-110391313D01*
X75033850Y-110391316D01*
X75092046Y-110478414D01*
X75092052Y-110478421D01*
X76086539Y-111472907D01*
X76113419Y-111513135D01*
X76171295Y-111652860D01*
X76264373Y-111792162D01*
X76382837Y-111910626D01*
X76438387Y-111947743D01*
X76522137Y-112003703D01*
X76522138Y-112003703D01*
X76522139Y-112003704D01*
X76537192Y-112009939D01*
X76676918Y-112067816D01*
X76814930Y-112095268D01*
X76841228Y-112100499D01*
X76841232Y-112100500D01*
X76841233Y-112100500D01*
X77008768Y-112100500D01*
X77008769Y-112100499D01*
X77173082Y-112067816D01*
X77312808Y-112009938D01*
X77360261Y-112000500D01*
X80739739Y-112000500D01*
X80787191Y-112009938D01*
X80926918Y-112067816D01*
X81064930Y-112095268D01*
X81091228Y-112100499D01*
X81091232Y-112100500D01*
X81091233Y-112100500D01*
X81258768Y-112100500D01*
X81258769Y-112100499D01*
X81423082Y-112067816D01*
X81577863Y-112003703D01*
X81717162Y-111910626D01*
X81835626Y-111792162D01*
X81928703Y-111652863D01*
X81992816Y-111498082D01*
X82025500Y-111333767D01*
X82025500Y-111166233D01*
X82025499Y-111166228D01*
X95074500Y-111166228D01*
X95074500Y-111333771D01*
X95107182Y-111498074D01*
X95107184Y-111498082D01*
X95171295Y-111652860D01*
X95264373Y-111792162D01*
X95382837Y-111910626D01*
X95438387Y-111947743D01*
X95522137Y-112003703D01*
X95522138Y-112003703D01*
X95522139Y-112003704D01*
X95537192Y-112009939D01*
X95676918Y-112067816D01*
X95814930Y-112095268D01*
X95841228Y-112100499D01*
X95841232Y-112100500D01*
X95841233Y-112100500D01*
X96008768Y-112100500D01*
X96008769Y-112100499D01*
X96173082Y-112067816D01*
X96312808Y-112009938D01*
X96360261Y-112000500D01*
X100489739Y-112000500D01*
X100537191Y-112009938D01*
X100676918Y-112067816D01*
X100814930Y-112095268D01*
X100841228Y-112100499D01*
X100841232Y-112100500D01*
X100841233Y-112100500D01*
X101008768Y-112100500D01*
X101008769Y-112100499D01*
X101173082Y-112067816D01*
X101327863Y-112003703D01*
X101467162Y-111910626D01*
X101585626Y-111792162D01*
X101678703Y-111652863D01*
X101742816Y-111498082D01*
X101775500Y-111333767D01*
X101775500Y-111166233D01*
X101742816Y-111001918D01*
X101678703Y-110847137D01*
X101605506Y-110737590D01*
X101585626Y-110707837D01*
X101467162Y-110589373D01*
X101327860Y-110496295D01*
X101173082Y-110432184D01*
X101173074Y-110432182D01*
X101008771Y-110399500D01*
X101008767Y-110399500D01*
X100841233Y-110399500D01*
X100841228Y-110399500D01*
X100676925Y-110432182D01*
X100676917Y-110432184D01*
X100537192Y-110490061D01*
X100489739Y-110499500D01*
X96360261Y-110499500D01*
X96312808Y-110490061D01*
X96173082Y-110432184D01*
X96173074Y-110432182D01*
X96008771Y-110399500D01*
X96008767Y-110399500D01*
X95841233Y-110399500D01*
X95841228Y-110399500D01*
X95676925Y-110432182D01*
X95676917Y-110432184D01*
X95522139Y-110496295D01*
X95382837Y-110589373D01*
X95264373Y-110707837D01*
X95171295Y-110847139D01*
X95107184Y-111001917D01*
X95107182Y-111001925D01*
X95074500Y-111166228D01*
X82025499Y-111166228D01*
X81992816Y-111001918D01*
X81928703Y-110847137D01*
X81855506Y-110737590D01*
X81835626Y-110707837D01*
X81717162Y-110589373D01*
X81577860Y-110496295D01*
X81423082Y-110432184D01*
X81423074Y-110432182D01*
X81258771Y-110399500D01*
X81258767Y-110399500D01*
X81091233Y-110399500D01*
X81091228Y-110399500D01*
X80926925Y-110432182D01*
X80926917Y-110432184D01*
X80787192Y-110490061D01*
X80739739Y-110499500D01*
X77360261Y-110499500D01*
X77352081Y-110497873D01*
X77347005Y-110498789D01*
X77312808Y-110490061D01*
X77188135Y-110438419D01*
X77147907Y-110411539D01*
X76461819Y-109725451D01*
X76428334Y-109664128D01*
X76425500Y-109637770D01*
X76425500Y-107424501D01*
X76445185Y-107357462D01*
X76497989Y-107311707D01*
X76549500Y-107300501D01*
X76708769Y-107300501D01*
X76708770Y-107300500D01*
X76873083Y-107267817D01*
X77027864Y-107203704D01*
X77167163Y-107110627D01*
X77285627Y-106992163D01*
X77378704Y-106852864D01*
X77442817Y-106698083D01*
X77448990Y-106667049D01*
X77461507Y-106604125D01*
X77493892Y-106542215D01*
X77554608Y-106507640D01*
X77583124Y-106504317D01*
X78795462Y-106504317D01*
X78862501Y-106524002D01*
X78864353Y-106525215D01*
X78916599Y-106560124D01*
X78987531Y-106607520D01*
X79142312Y-106671633D01*
X79306622Y-106704316D01*
X79306626Y-106704317D01*
X79306627Y-106704317D01*
X79474162Y-106704317D01*
X79474163Y-106704316D01*
X79638476Y-106671633D01*
X79793257Y-106607520D01*
X79932556Y-106514443D01*
X80051020Y-106395979D01*
X80144097Y-106256680D01*
X80178938Y-106172566D01*
X80222777Y-106118164D01*
X80269302Y-106098404D01*
X80423082Y-106067816D01*
X80577863Y-106003703D01*
X80717162Y-105910626D01*
X80835626Y-105792162D01*
X80928703Y-105652863D01*
X80992816Y-105498082D01*
X81025500Y-105333767D01*
X81025500Y-105225500D01*
X81045185Y-105158461D01*
X81097989Y-105112706D01*
X81149500Y-105101500D01*
X86118803Y-105101500D01*
X86185842Y-105121185D01*
X86206484Y-105137819D01*
X88038181Y-106969516D01*
X88071666Y-107030839D01*
X88074500Y-107057197D01*
X88074500Y-107444281D01*
X88054815Y-107511320D01*
X88006795Y-107554765D01*
X87967185Y-107574947D01*
X87967184Y-107574948D01*
X87795215Y-107699889D01*
X87681673Y-107813431D01*
X87620350Y-107846915D01*
X87550658Y-107841931D01*
X87494725Y-107800059D01*
X87477810Y-107769082D01*
X87428797Y-107637671D01*
X87428793Y-107637664D01*
X87342547Y-107522455D01*
X87342544Y-107522452D01*
X87227335Y-107436206D01*
X87227328Y-107436202D01*
X87092482Y-107385908D01*
X87092483Y-107385908D01*
X87032883Y-107379501D01*
X87032881Y-107379500D01*
X87032873Y-107379500D01*
X87032864Y-107379500D01*
X85237129Y-107379500D01*
X85237123Y-107379501D01*
X85177516Y-107385908D01*
X85042671Y-107436202D01*
X85042664Y-107436206D01*
X84927455Y-107522452D01*
X84927452Y-107522455D01*
X84841206Y-107637664D01*
X84841202Y-107637671D01*
X84790908Y-107772517D01*
X84784501Y-107832116D01*
X84784500Y-107832135D01*
X84784500Y-109627870D01*
X84784501Y-109627876D01*
X84790908Y-109687483D01*
X84841202Y-109822328D01*
X84841206Y-109822335D01*
X84927452Y-109937544D01*
X84927455Y-109937547D01*
X85042664Y-110023793D01*
X85042671Y-110023797D01*
X85177517Y-110074091D01*
X85177516Y-110074091D01*
X85184444Y-110074835D01*
X85237127Y-110080500D01*
X87032872Y-110080499D01*
X87092483Y-110074091D01*
X87227331Y-110023796D01*
X87342546Y-109937546D01*
X87428796Y-109822331D01*
X87477810Y-109690916D01*
X87519681Y-109634984D01*
X87585145Y-109610566D01*
X87653418Y-109625417D01*
X87681673Y-109646569D01*
X87795213Y-109760109D01*
X87967179Y-109885048D01*
X87967181Y-109885049D01*
X87967184Y-109885051D01*
X88156588Y-109981557D01*
X88358757Y-110047246D01*
X88568713Y-110080500D01*
X88568714Y-110080500D01*
X88781286Y-110080500D01*
X88781287Y-110080500D01*
X88991243Y-110047246D01*
X89193412Y-109981557D01*
X89382816Y-109885051D01*
X89469138Y-109822335D01*
X89554786Y-109760109D01*
X89554788Y-109760106D01*
X89554792Y-109760104D01*
X89705104Y-109609792D01*
X89705106Y-109609788D01*
X89705109Y-109609786D01*
X89830048Y-109437820D01*
X89830047Y-109437820D01*
X89830051Y-109437816D01*
X89834514Y-109429054D01*
X89882488Y-109378259D01*
X89950308Y-109361463D01*
X90016444Y-109383999D01*
X90055486Y-109429056D01*
X90059951Y-109437820D01*
X90184890Y-109609786D01*
X90335213Y-109760109D01*
X90507179Y-109885048D01*
X90507181Y-109885049D01*
X90507184Y-109885051D01*
X90696588Y-109981557D01*
X90898757Y-110047246D01*
X91108713Y-110080500D01*
X91108714Y-110080500D01*
X91321286Y-110080500D01*
X91321287Y-110080500D01*
X91531243Y-110047246D01*
X91733412Y-109981557D01*
X91922816Y-109885051D01*
X92009138Y-109822335D01*
X92094786Y-109760109D01*
X92094788Y-109760106D01*
X92094792Y-109760104D01*
X92245104Y-109609792D01*
X92245106Y-109609788D01*
X92245109Y-109609786D01*
X92370048Y-109437820D01*
X92370047Y-109437820D01*
X92370051Y-109437816D01*
X92374514Y-109429054D01*
X92422488Y-109378259D01*
X92490308Y-109361463D01*
X92556444Y-109383999D01*
X92595486Y-109429056D01*
X92599951Y-109437820D01*
X92724890Y-109609786D01*
X92875213Y-109760109D01*
X93047179Y-109885048D01*
X93047181Y-109885049D01*
X93047184Y-109885051D01*
X93236588Y-109981557D01*
X93438757Y-110047246D01*
X93648713Y-110080500D01*
X93648714Y-110080500D01*
X93861286Y-110080500D01*
X93861287Y-110080500D01*
X94071243Y-110047246D01*
X94273412Y-109981557D01*
X94462816Y-109885051D01*
X94549138Y-109822335D01*
X94634786Y-109760109D01*
X94634788Y-109760106D01*
X94634792Y-109760104D01*
X94785104Y-109609792D01*
X94785106Y-109609788D01*
X94785109Y-109609786D01*
X94910048Y-109437820D01*
X94910047Y-109437820D01*
X94910051Y-109437816D01*
X95006557Y-109248412D01*
X95072246Y-109046243D01*
X95105500Y-108836287D01*
X95105500Y-108623713D01*
X95072246Y-108413757D01*
X95006557Y-108211588D01*
X94910051Y-108022184D01*
X94910049Y-108022181D01*
X94910048Y-108022179D01*
X94785109Y-107850213D01*
X94634786Y-107699890D01*
X94462820Y-107574951D01*
X94273414Y-107478444D01*
X94273413Y-107478443D01*
X94273412Y-107478443D01*
X94071243Y-107412754D01*
X94071241Y-107412753D01*
X94071240Y-107412753D01*
X93909957Y-107387208D01*
X93861287Y-107379500D01*
X93648713Y-107379500D01*
X93600042Y-107387208D01*
X93438760Y-107412753D01*
X93236585Y-107478444D01*
X93047179Y-107574951D01*
X92875213Y-107699890D01*
X92724890Y-107850213D01*
X92599949Y-108022182D01*
X92595484Y-108030946D01*
X92547509Y-108081742D01*
X92479688Y-108098536D01*
X92413553Y-108075998D01*
X92374516Y-108030946D01*
X92370050Y-108022182D01*
X92245109Y-107850213D01*
X92094786Y-107699890D01*
X91922820Y-107574951D01*
X91733414Y-107478444D01*
X91733413Y-107478443D01*
X91733412Y-107478443D01*
X91531243Y-107412754D01*
X91531241Y-107412753D01*
X91531240Y-107412753D01*
X91369957Y-107387208D01*
X91321287Y-107379500D01*
X91108713Y-107379500D01*
X91080006Y-107384046D01*
X90898757Y-107412753D01*
X90856473Y-107426492D01*
X90786632Y-107428486D01*
X90730476Y-107396241D01*
X86972590Y-103638355D01*
X86972588Y-103638352D01*
X86853717Y-103519481D01*
X86853716Y-103519480D01*
X86766904Y-103469360D01*
X86766904Y-103469359D01*
X86766900Y-103469358D01*
X86716785Y-103440423D01*
X86564057Y-103399499D01*
X86405943Y-103399499D01*
X86398347Y-103399499D01*
X86398331Y-103399500D01*
X71018435Y-103399500D01*
X70951396Y-103379815D01*
X70905641Y-103327011D01*
X70895697Y-103257853D01*
X70924722Y-103194297D01*
X70949543Y-103172398D01*
X70967162Y-103160626D01*
X71085626Y-103042162D01*
X71178703Y-102902863D01*
X71242816Y-102748082D01*
X71275500Y-102583767D01*
X71275500Y-102416233D01*
X71242816Y-102251918D01*
X71178703Y-102097137D01*
X71115084Y-102001925D01*
X71085626Y-101957837D01*
X70967162Y-101839373D01*
X70827860Y-101746295D01*
X70673082Y-101682184D01*
X70673074Y-101682182D01*
X70508771Y-101649500D01*
X70508767Y-101649500D01*
X70475097Y-101649500D01*
X70445656Y-101640855D01*
X70415670Y-101634332D01*
X70410654Y-101630577D01*
X70408058Y-101629815D01*
X70387416Y-101613181D01*
X70311819Y-101537584D01*
X70278334Y-101476261D01*
X70275500Y-101449903D01*
X70275500Y-97916228D01*
X82624500Y-97916228D01*
X82624500Y-98083771D01*
X82657182Y-98248074D01*
X82657184Y-98248082D01*
X82721295Y-98402860D01*
X82721296Y-98402862D01*
X82721297Y-98402863D01*
X82751264Y-98447712D01*
X82753602Y-98451210D01*
X82774480Y-98517887D01*
X82774500Y-98520101D01*
X82774500Y-101564739D01*
X82765061Y-101612192D01*
X82707184Y-101751917D01*
X82707182Y-101751925D01*
X82674500Y-101916228D01*
X82674500Y-102083771D01*
X82707182Y-102248074D01*
X82707184Y-102248082D01*
X82771295Y-102402860D01*
X82864373Y-102542162D01*
X82982837Y-102660626D01*
X83022038Y-102686819D01*
X83122137Y-102753703D01*
X83276918Y-102817816D01*
X83441228Y-102850499D01*
X83441232Y-102850500D01*
X83441233Y-102850500D01*
X83608768Y-102850500D01*
X83608769Y-102850499D01*
X83773082Y-102817816D01*
X83927863Y-102753703D01*
X84067162Y-102660626D01*
X84185626Y-102542162D01*
X84278703Y-102402863D01*
X84342816Y-102248082D01*
X84375500Y-102083767D01*
X84375500Y-101916233D01*
X84342816Y-101751918D01*
X84284938Y-101612191D01*
X84275500Y-101564739D01*
X84275500Y-98314551D01*
X84284939Y-98267098D01*
X84292816Y-98248082D01*
X84325500Y-98083767D01*
X84325500Y-97916233D01*
X84292816Y-97751918D01*
X84228703Y-97597137D01*
X84163798Y-97500000D01*
X84135626Y-97457837D01*
X84017162Y-97339373D01*
X83877860Y-97246295D01*
X83723082Y-97182184D01*
X83723074Y-97182182D01*
X83558771Y-97149500D01*
X83558767Y-97149500D01*
X83391233Y-97149500D01*
X83391228Y-97149500D01*
X83226925Y-97182182D01*
X83226917Y-97182184D01*
X83072139Y-97246295D01*
X82932837Y-97339373D01*
X82814373Y-97457837D01*
X82721295Y-97597139D01*
X82657184Y-97751917D01*
X82657182Y-97751925D01*
X82624500Y-97916228D01*
X70275500Y-97916228D01*
X70275500Y-96089060D01*
X70275501Y-96089047D01*
X70275501Y-95920944D01*
X70275501Y-95920943D01*
X70234577Y-95768216D01*
X70193540Y-95697137D01*
X70155524Y-95631290D01*
X70155518Y-95631282D01*
X69543717Y-95019481D01*
X69543716Y-95019480D01*
X69436948Y-94957838D01*
X69436947Y-94957837D01*
X69406783Y-94940422D01*
X69350881Y-94925443D01*
X69254057Y-94899499D01*
X69095943Y-94899499D01*
X69088347Y-94899499D01*
X69088331Y-94899500D01*
X66740894Y-94899500D01*
X66673855Y-94879815D01*
X66637792Y-94844391D01*
X66571085Y-94744556D01*
X66452621Y-94626092D01*
X66313319Y-94533014D01*
X66158541Y-94468903D01*
X66158533Y-94468901D01*
X65994230Y-94436219D01*
X65994226Y-94436219D01*
X65826692Y-94436219D01*
X65826687Y-94436219D01*
X65662384Y-94468901D01*
X65662376Y-94468903D01*
X65507598Y-94533014D01*
X65368296Y-94626092D01*
X65249832Y-94744556D01*
X65156754Y-94883858D01*
X65092643Y-95038636D01*
X65092641Y-95038644D01*
X65059959Y-95202947D01*
X65059959Y-95321563D01*
X65040274Y-95388602D01*
X65004852Y-95424663D01*
X64982846Y-95439367D01*
X64982841Y-95439371D01*
X64864372Y-95557839D01*
X64771295Y-95697139D01*
X64707184Y-95851917D01*
X64707182Y-95851925D01*
X64674500Y-96016228D01*
X64674500Y-96183771D01*
X64707182Y-96348074D01*
X64707184Y-96348082D01*
X64771295Y-96502860D01*
X64864373Y-96642162D01*
X64982837Y-96760626D01*
X65007783Y-96777294D01*
X65052588Y-96830906D01*
X65061295Y-96900231D01*
X65031141Y-96963258D01*
X64971698Y-96999978D01*
X64914701Y-97002013D01*
X64776384Y-96974500D01*
X64776380Y-96974500D01*
X64473620Y-96974500D01*
X64473615Y-96974500D01*
X64323802Y-97004300D01*
X64323790Y-97004303D01*
X64222452Y-97046279D01*
X64196179Y-97049103D01*
X64170574Y-97055639D01*
X64158938Y-97053107D01*
X64152983Y-97053748D01*
X64135840Y-97049372D01*
X64131631Y-97047971D01*
X64026205Y-97004302D01*
X63962142Y-96991559D01*
X63954778Y-96989108D01*
X63932195Y-96973428D01*
X63907835Y-96960686D01*
X63898084Y-96950118D01*
X63893884Y-96945000D01*
X63024728Y-96945000D01*
X63116614Y-96906940D01*
X63186940Y-96836614D01*
X63225000Y-96744728D01*
X63225000Y-96645272D01*
X63186940Y-96553386D01*
X63116614Y-96483060D01*
X63024728Y-96445000D01*
X63893884Y-96445000D01*
X63893884Y-96444999D01*
X63888493Y-96417899D01*
X63888492Y-96417896D01*
X63816880Y-96245008D01*
X63816875Y-96244999D01*
X63712913Y-96089410D01*
X63712910Y-96089406D01*
X63580593Y-95957089D01*
X63580589Y-95957086D01*
X63425000Y-95853124D01*
X63424991Y-95853119D01*
X63252105Y-95781508D01*
X63252097Y-95781506D01*
X63068570Y-95745000D01*
X62725000Y-95745000D01*
X62725000Y-96445000D01*
X62225000Y-96445000D01*
X62225000Y-95745000D01*
X61881430Y-95745000D01*
X61697902Y-95781506D01*
X61697894Y-95781508D01*
X61525008Y-95853119D01*
X61524999Y-95853124D01*
X61369410Y-95957086D01*
X61369406Y-95957089D01*
X61237089Y-96089406D01*
X61237086Y-96089410D01*
X61133124Y-96244999D01*
X61133119Y-96245008D01*
X61061507Y-96417896D01*
X61061506Y-96417899D01*
X61056115Y-96444999D01*
X59823791Y-96444999D01*
X59777394Y-86951577D01*
X68924500Y-86951577D01*
X68924500Y-87148422D01*
X68955290Y-87342826D01*
X69016117Y-87530029D01*
X69071253Y-87638239D01*
X69105476Y-87705405D01*
X69221172Y-87864646D01*
X69360354Y-88003828D01*
X69519595Y-88119524D01*
X69553908Y-88137007D01*
X69694970Y-88208882D01*
X69694972Y-88208882D01*
X69694975Y-88208884D01*
X69760268Y-88230099D01*
X69882173Y-88269709D01*
X70076578Y-88300500D01*
X70076583Y-88300500D01*
X70273422Y-88300500D01*
X70467826Y-88269709D01*
X70655025Y-88208884D01*
X70830405Y-88119524D01*
X70989646Y-88003828D01*
X71128828Y-87864646D01*
X71244524Y-87705405D01*
X71333884Y-87530025D01*
X71394709Y-87342826D01*
X71399908Y-87310000D01*
X71425500Y-87148422D01*
X71425500Y-86951577D01*
X71394709Y-86757173D01*
X71355879Y-86637669D01*
X71333884Y-86569975D01*
X71333882Y-86569972D01*
X71333882Y-86569970D01*
X71270231Y-86445049D01*
X71244524Y-86394595D01*
X71128828Y-86235354D01*
X70989646Y-86096172D01*
X70830405Y-85980476D01*
X70825184Y-85977816D01*
X70655029Y-85891117D01*
X70467826Y-85830290D01*
X70273422Y-85799500D01*
X70273417Y-85799500D01*
X70076583Y-85799500D01*
X70076578Y-85799500D01*
X69882173Y-85830290D01*
X69694970Y-85891117D01*
X69519594Y-85980476D01*
X69428741Y-86046485D01*
X69360354Y-86096172D01*
X69360352Y-86096174D01*
X69360351Y-86096174D01*
X69221174Y-86235351D01*
X69221174Y-86235352D01*
X69221172Y-86235354D01*
X69171485Y-86303741D01*
X69105476Y-86394594D01*
X69016117Y-86569970D01*
X68955290Y-86757173D01*
X68924500Y-86951577D01*
X59777394Y-86951577D01*
X59761758Y-83752135D01*
X74024500Y-83752135D01*
X74024500Y-85247870D01*
X74024501Y-85247876D01*
X74030908Y-85307483D01*
X74081202Y-85442328D01*
X74081206Y-85442335D01*
X74167452Y-85557544D01*
X74167455Y-85557547D01*
X74282664Y-85643793D01*
X74282673Y-85643798D01*
X74393832Y-85685257D01*
X74449766Y-85727127D01*
X74474184Y-85792592D01*
X74474500Y-85801439D01*
X74474500Y-85873918D01*
X74474500Y-85873920D01*
X74474499Y-85873920D01*
X74503340Y-86018907D01*
X74503343Y-86018917D01*
X74559914Y-86155492D01*
X74592812Y-86204727D01*
X74592813Y-86204730D01*
X74642046Y-86278414D01*
X74642052Y-86278421D01*
X78836539Y-90472907D01*
X78863419Y-90513135D01*
X78921295Y-90652860D01*
X79014373Y-90792162D01*
X79132837Y-90910626D01*
X79173563Y-90937838D01*
X79272137Y-91003703D01*
X79426918Y-91067816D01*
X79591228Y-91100499D01*
X79591232Y-91100500D01*
X79591233Y-91100500D01*
X79758768Y-91100500D01*
X79758769Y-91100499D01*
X79923082Y-91067816D01*
X80077863Y-91003703D01*
X80217162Y-90910626D01*
X80335626Y-90792162D01*
X80428703Y-90652863D01*
X80492816Y-90498082D01*
X80525500Y-90333767D01*
X80525500Y-90166233D01*
X80492816Y-90001918D01*
X80428703Y-89847137D01*
X80397537Y-89800494D01*
X80335626Y-89707837D01*
X80217162Y-89589373D01*
X80077860Y-89496295D01*
X79938135Y-89438419D01*
X79897907Y-89411539D01*
X76247264Y-85760896D01*
X76213779Y-85699573D01*
X76218763Y-85629881D01*
X76260634Y-85573949D01*
X76282546Y-85557546D01*
X76368796Y-85442331D01*
X76419091Y-85307483D01*
X76425500Y-85247873D01*
X76425499Y-83752128D01*
X76419091Y-83692517D01*
X76417213Y-83687483D01*
X76368797Y-83557671D01*
X76368793Y-83557664D01*
X76282547Y-83442455D01*
X76282544Y-83442452D01*
X76167335Y-83356206D01*
X76167328Y-83356202D01*
X76032482Y-83305908D01*
X76032483Y-83305908D01*
X75972883Y-83299501D01*
X75972881Y-83299500D01*
X75972873Y-83299500D01*
X75972865Y-83299500D01*
X75834312Y-83299500D01*
X75767273Y-83279815D01*
X75721518Y-83227011D01*
X75711574Y-83157853D01*
X75740599Y-83094297D01*
X75778017Y-83065015D01*
X75853937Y-83026331D01*
X75879328Y-83007883D01*
X75879328Y-83007882D01*
X75313584Y-82442138D01*
X75398694Y-82419333D01*
X75501306Y-82360090D01*
X75585090Y-82276306D01*
X75644333Y-82173694D01*
X75667138Y-82088584D01*
X76232882Y-82654328D01*
X76232883Y-82654328D01*
X76251331Y-82628937D01*
X76337085Y-82460637D01*
X76395451Y-82281002D01*
X76425000Y-82094447D01*
X76425000Y-81905552D01*
X76415917Y-81848204D01*
X76413372Y-81832135D01*
X80324500Y-81832135D01*
X80324500Y-83627870D01*
X80324501Y-83627876D01*
X80330908Y-83687483D01*
X80381202Y-83822328D01*
X80381206Y-83822335D01*
X80467452Y-83937544D01*
X80467455Y-83937547D01*
X80582664Y-84023793D01*
X80582671Y-84023797D01*
X80714082Y-84072810D01*
X80770016Y-84114681D01*
X80794433Y-84180145D01*
X80779582Y-84248418D01*
X80758431Y-84276673D01*
X80644889Y-84390215D01*
X80519951Y-84562179D01*
X80423444Y-84751585D01*
X80357753Y-84953760D01*
X80324500Y-85163713D01*
X80324500Y-85376286D01*
X80355806Y-85573948D01*
X80357754Y-85586243D01*
X80414502Y-85760896D01*
X80423444Y-85788414D01*
X80519951Y-85977820D01*
X80644890Y-86149786D01*
X80795213Y-86300109D01*
X80967179Y-86425048D01*
X80967181Y-86425049D01*
X80967184Y-86425051D01*
X80976493Y-86429794D01*
X81027290Y-86477766D01*
X81044087Y-86545587D01*
X81021552Y-86611722D01*
X80976505Y-86650760D01*
X80967446Y-86655376D01*
X80967440Y-86655380D01*
X80913282Y-86694727D01*
X80913282Y-86694728D01*
X81545591Y-87327037D01*
X81482007Y-87344075D01*
X81367993Y-87409901D01*
X81274901Y-87502993D01*
X81209075Y-87617007D01*
X81192037Y-87680591D01*
X80559728Y-87048282D01*
X80559727Y-87048282D01*
X80520380Y-87102439D01*
X80423904Y-87291782D01*
X80358242Y-87493869D01*
X80358242Y-87493872D01*
X80325000Y-87703753D01*
X80325000Y-87916246D01*
X80358242Y-88126127D01*
X80358242Y-88126130D01*
X80423904Y-88328217D01*
X80520375Y-88517550D01*
X80559728Y-88571716D01*
X81192037Y-87939408D01*
X81209075Y-88002993D01*
X81274901Y-88117007D01*
X81367993Y-88210099D01*
X81482007Y-88275925D01*
X81545590Y-88292962D01*
X80913282Y-88925269D01*
X80913282Y-88925270D01*
X80967449Y-88964624D01*
X81156782Y-89061095D01*
X81358870Y-89126757D01*
X81568754Y-89160000D01*
X81781246Y-89160000D01*
X81991127Y-89126757D01*
X81991130Y-89126757D01*
X82193217Y-89061095D01*
X82382554Y-88964622D01*
X82436716Y-88925270D01*
X82436717Y-88925270D01*
X81804408Y-88292962D01*
X81867993Y-88275925D01*
X81982007Y-88210099D01*
X82075099Y-88117007D01*
X82140925Y-88002993D01*
X82157962Y-87939408D01*
X82738181Y-88519627D01*
X82771666Y-88580950D01*
X82774500Y-88607308D01*
X82774500Y-90064069D01*
X82790732Y-90145669D01*
X82799499Y-90189744D01*
X82848535Y-90308127D01*
X82856050Y-90319374D01*
X82919726Y-90414673D01*
X82919727Y-90414674D01*
X84110829Y-91605775D01*
X84125532Y-91632702D01*
X84142125Y-91658521D01*
X84143016Y-91664721D01*
X84144314Y-91667098D01*
X84147148Y-91693456D01*
X84147148Y-91770833D01*
X84127463Y-91837872D01*
X84126251Y-91839723D01*
X84121296Y-91847138D01*
X84057184Y-92001917D01*
X84057182Y-92001925D01*
X84024500Y-92166228D01*
X84024500Y-92333771D01*
X84057182Y-92498074D01*
X84057184Y-92498082D01*
X84121295Y-92652860D01*
X84214373Y-92792162D01*
X84332837Y-92910626D01*
X84403495Y-92957838D01*
X84472137Y-93003703D01*
X84626918Y-93067816D01*
X84774326Y-93097137D01*
X84791228Y-93100499D01*
X84791232Y-93100500D01*
X84791233Y-93100500D01*
X84958768Y-93100500D01*
X84958769Y-93100499D01*
X85123082Y-93067816D01*
X85277863Y-93003703D01*
X85417162Y-92910626D01*
X85535626Y-92792162D01*
X85628703Y-92652863D01*
X85692816Y-92498082D01*
X85725500Y-92333767D01*
X85725500Y-92166233D01*
X85692816Y-92001918D01*
X85690887Y-91997263D01*
X85683419Y-91927795D01*
X85689209Y-91916228D01*
X88574500Y-91916228D01*
X88574500Y-92083771D01*
X88607182Y-92248074D01*
X88607184Y-92248082D01*
X88671295Y-92402860D01*
X88764373Y-92542162D01*
X88882837Y-92660626D01*
X88940987Y-92699480D01*
X89022137Y-92753703D01*
X89176918Y-92817816D01*
X89341228Y-92850499D01*
X89341232Y-92850500D01*
X89341233Y-92850500D01*
X89508768Y-92850500D01*
X89508769Y-92850499D01*
X89673082Y-92817816D01*
X89827863Y-92753703D01*
X89967162Y-92660626D01*
X90085626Y-92542162D01*
X90178703Y-92402863D01*
X90242816Y-92248082D01*
X90242817Y-92248072D01*
X90244585Y-92242250D01*
X90246316Y-92242775D01*
X90274746Y-92188410D01*
X90335457Y-92153827D01*
X90363990Y-92150500D01*
X92610000Y-92150500D01*
X92677039Y-92170185D01*
X92678891Y-92171398D01*
X92772130Y-92233699D01*
X92772134Y-92233701D01*
X92772137Y-92233703D01*
X92926918Y-92297816D01*
X93091228Y-92330499D01*
X93091232Y-92330500D01*
X93091233Y-92330500D01*
X93258768Y-92330500D01*
X93258769Y-92330499D01*
X93423082Y-92297816D01*
X93577863Y-92233703D01*
X93717162Y-92140626D01*
X93835626Y-92022162D01*
X93928703Y-91882863D01*
X93992816Y-91728082D01*
X94025500Y-91563767D01*
X94025500Y-91396233D01*
X93992816Y-91231918D01*
X93928703Y-91077137D01*
X93897537Y-91030494D01*
X93835626Y-90937837D01*
X93717162Y-90819373D01*
X93577860Y-90726295D01*
X93423082Y-90662184D01*
X93423074Y-90662182D01*
X93258771Y-90629500D01*
X93258767Y-90629500D01*
X93091233Y-90629500D01*
X93091228Y-90629500D01*
X92926925Y-90662182D01*
X92926917Y-90662184D01*
X92772139Y-90726295D01*
X92632838Y-90819373D01*
X92630425Y-90821354D01*
X92628913Y-90821995D01*
X92627773Y-90822758D01*
X92627628Y-90822541D01*
X92566115Y-90848666D01*
X92551761Y-90849500D01*
X89860929Y-90849500D01*
X89735261Y-90874497D01*
X89735255Y-90874499D01*
X89635231Y-90915931D01*
X89616877Y-90923533D01*
X89616869Y-90923537D01*
X89510326Y-90994726D01*
X89510325Y-90994727D01*
X89385708Y-91119345D01*
X89324385Y-91152830D01*
X89322219Y-91153281D01*
X89176923Y-91182182D01*
X89176917Y-91182184D01*
X89022139Y-91246295D01*
X88882837Y-91339373D01*
X88764373Y-91457837D01*
X88671295Y-91597139D01*
X88607184Y-91751917D01*
X88607182Y-91751925D01*
X88574500Y-91916228D01*
X85689209Y-91916228D01*
X85714694Y-91865316D01*
X85774782Y-91829663D01*
X85829640Y-91828194D01*
X85841233Y-91830500D01*
X85841235Y-91830500D01*
X86008768Y-91830500D01*
X86008769Y-91830499D01*
X86173082Y-91797816D01*
X86327863Y-91733703D01*
X86467162Y-91640626D01*
X86585626Y-91522162D01*
X86678703Y-91382863D01*
X86742816Y-91228082D01*
X86775500Y-91063767D01*
X86775500Y-90896233D01*
X86742816Y-90731918D01*
X86678703Y-90577137D01*
X86622101Y-90492426D01*
X86585626Y-90437837D01*
X86467162Y-90319373D01*
X86327860Y-90226295D01*
X86173082Y-90162184D01*
X86173074Y-90162182D01*
X86008771Y-90129500D01*
X86008767Y-90129500D01*
X85841233Y-90129500D01*
X85841228Y-90129500D01*
X85676925Y-90162182D01*
X85676917Y-90162184D01*
X85522135Y-90226297D01*
X85522133Y-90226298D01*
X85498308Y-90242217D01*
X85431630Y-90263093D01*
X85364251Y-90244606D01*
X85341740Y-90226794D01*
X84612819Y-89497873D01*
X84579334Y-89436550D01*
X84576500Y-89410192D01*
X84576500Y-88652338D01*
X84596185Y-88585299D01*
X84648989Y-88539544D01*
X84718147Y-88529600D01*
X84781703Y-88558625D01*
X84800819Y-88579453D01*
X84809728Y-88591716D01*
X85442037Y-87959408D01*
X85459075Y-88022993D01*
X85524901Y-88137007D01*
X85617993Y-88230099D01*
X85732007Y-88295925D01*
X85795590Y-88312962D01*
X85163282Y-88945269D01*
X85163282Y-88945270D01*
X85217449Y-88984624D01*
X85406782Y-89081095D01*
X85608870Y-89146757D01*
X85818754Y-89180000D01*
X86031246Y-89180000D01*
X86241127Y-89146757D01*
X86241130Y-89146757D01*
X86443217Y-89081095D01*
X86632554Y-88984622D01*
X86686716Y-88945270D01*
X86686717Y-88945270D01*
X86054408Y-88312962D01*
X86117993Y-88295925D01*
X86232007Y-88230099D01*
X86325099Y-88137007D01*
X86390925Y-88022993D01*
X86407962Y-87959408D01*
X87040270Y-88591717D01*
X87040270Y-88591716D01*
X87079622Y-88537554D01*
X87176095Y-88348217D01*
X87241757Y-88146130D01*
X87241757Y-88146127D01*
X87275000Y-87936246D01*
X87275000Y-87723753D01*
X87261456Y-87638239D01*
X87259155Y-87623713D01*
X89534500Y-87623713D01*
X89534500Y-87836286D01*
X89564071Y-88022993D01*
X89567754Y-88046243D01*
X89620994Y-88210099D01*
X89633444Y-88248414D01*
X89729951Y-88437820D01*
X89854890Y-88609786D01*
X90005213Y-88760109D01*
X90177179Y-88885048D01*
X90177181Y-88885049D01*
X90177184Y-88885051D01*
X90366588Y-88981557D01*
X90568757Y-89047246D01*
X90778713Y-89080500D01*
X90778714Y-89080500D01*
X90991286Y-89080500D01*
X90991287Y-89080500D01*
X91201243Y-89047246D01*
X91403412Y-88981557D01*
X91592816Y-88885051D01*
X91679138Y-88822335D01*
X91764786Y-88760109D01*
X91764788Y-88760106D01*
X91764792Y-88760104D01*
X91915104Y-88609792D01*
X91915106Y-88609788D01*
X91915109Y-88609786D01*
X92040048Y-88437820D01*
X92040047Y-88437820D01*
X92040051Y-88437816D01*
X92044514Y-88429054D01*
X92092488Y-88378259D01*
X92160308Y-88361463D01*
X92226444Y-88383999D01*
X92265486Y-88429056D01*
X92269951Y-88437820D01*
X92394890Y-88609786D01*
X92545213Y-88760109D01*
X92717179Y-88885048D01*
X92717181Y-88885049D01*
X92717184Y-88885051D01*
X92906588Y-88981557D01*
X93108757Y-89047246D01*
X93318713Y-89080500D01*
X93318714Y-89080500D01*
X93531286Y-89080500D01*
X93531287Y-89080500D01*
X93741243Y-89047246D01*
X93943412Y-88981557D01*
X94132816Y-88885051D01*
X94219138Y-88822335D01*
X94304786Y-88760109D01*
X94304788Y-88760106D01*
X94304792Y-88760104D01*
X94455104Y-88609792D01*
X94455106Y-88609788D01*
X94455109Y-88609786D01*
X94580048Y-88437820D01*
X94580047Y-88437820D01*
X94580051Y-88437816D01*
X94584514Y-88429054D01*
X94632488Y-88378259D01*
X94700308Y-88361463D01*
X94766444Y-88383999D01*
X94805486Y-88429056D01*
X94809951Y-88437820D01*
X94934890Y-88609786D01*
X95085213Y-88760109D01*
X95257179Y-88885048D01*
X95257181Y-88885049D01*
X95257184Y-88885051D01*
X95446588Y-88981557D01*
X95648757Y-89047246D01*
X95858713Y-89080500D01*
X95858714Y-89080500D01*
X96071286Y-89080500D01*
X96071287Y-89080500D01*
X96281243Y-89047246D01*
X96483412Y-88981557D01*
X96672816Y-88885051D01*
X96844792Y-88760104D01*
X96958329Y-88646566D01*
X97019648Y-88613084D01*
X97089340Y-88618068D01*
X97145274Y-88659939D01*
X97162189Y-88690917D01*
X97211202Y-88822328D01*
X97211206Y-88822335D01*
X97297452Y-88937544D01*
X97297455Y-88937547D01*
X97412664Y-89023793D01*
X97412671Y-89023797D01*
X97547517Y-89074091D01*
X97547516Y-89074091D01*
X97554444Y-89074835D01*
X97607127Y-89080500D01*
X99402872Y-89080499D01*
X99462483Y-89074091D01*
X99597331Y-89023796D01*
X99712546Y-88937546D01*
X99798796Y-88822331D01*
X99849091Y-88687483D01*
X99855500Y-88627873D01*
X99855499Y-86832128D01*
X99849091Y-86772517D01*
X99847810Y-86769083D01*
X99798797Y-86637671D01*
X99798793Y-86637664D01*
X99712547Y-86522455D01*
X99712544Y-86522452D01*
X99597335Y-86436206D01*
X99597328Y-86436202D01*
X99462482Y-86385908D01*
X99462483Y-86385908D01*
X99402883Y-86379501D01*
X99402881Y-86379500D01*
X99402873Y-86379500D01*
X99402864Y-86379500D01*
X97607129Y-86379500D01*
X97607123Y-86379501D01*
X97547516Y-86385908D01*
X97412671Y-86436202D01*
X97412664Y-86436206D01*
X97297455Y-86522452D01*
X97297452Y-86522455D01*
X97211206Y-86637664D01*
X97211203Y-86637669D01*
X97162189Y-86769083D01*
X97120317Y-86825016D01*
X97054853Y-86849433D01*
X96986580Y-86834581D01*
X96958326Y-86813430D01*
X96844786Y-86699890D01*
X96672820Y-86574951D01*
X96483414Y-86478444D01*
X96483413Y-86478443D01*
X96483412Y-86478443D01*
X96281243Y-86412754D01*
X96281241Y-86412753D01*
X96281240Y-86412753D01*
X96119957Y-86387208D01*
X96071287Y-86379500D01*
X95858713Y-86379500D01*
X95810042Y-86387208D01*
X95648760Y-86412753D01*
X95446585Y-86478444D01*
X95257179Y-86574951D01*
X95085213Y-86699890D01*
X94934890Y-86850213D01*
X94809949Y-87022182D01*
X94805484Y-87030946D01*
X94757509Y-87081742D01*
X94689688Y-87098536D01*
X94623553Y-87075998D01*
X94584516Y-87030946D01*
X94580050Y-87022182D01*
X94455109Y-86850213D01*
X94304786Y-86699890D01*
X94132820Y-86574951D01*
X93943414Y-86478444D01*
X93943413Y-86478443D01*
X93943412Y-86478443D01*
X93741243Y-86412754D01*
X93741241Y-86412753D01*
X93741240Y-86412753D01*
X93579957Y-86387208D01*
X93531287Y-86379500D01*
X93318713Y-86379500D01*
X93270042Y-86387208D01*
X93108760Y-86412753D01*
X92906585Y-86478444D01*
X92717179Y-86574951D01*
X92545213Y-86699890D01*
X92394890Y-86850213D01*
X92269949Y-87022182D01*
X92265484Y-87030946D01*
X92217509Y-87081742D01*
X92149688Y-87098536D01*
X92083553Y-87075998D01*
X92044516Y-87030946D01*
X92040050Y-87022182D01*
X91915109Y-86850213D01*
X91764786Y-86699890D01*
X91592820Y-86574951D01*
X91403414Y-86478444D01*
X91403413Y-86478443D01*
X91403412Y-86478443D01*
X91201243Y-86412754D01*
X91201241Y-86412753D01*
X91201240Y-86412753D01*
X91039957Y-86387208D01*
X90991287Y-86379500D01*
X90778713Y-86379500D01*
X90730042Y-86387208D01*
X90568760Y-86412753D01*
X90366585Y-86478444D01*
X90177179Y-86574951D01*
X90005213Y-86699890D01*
X89854890Y-86850213D01*
X89729951Y-87022179D01*
X89633444Y-87211585D01*
X89567753Y-87413760D01*
X89534500Y-87623713D01*
X87259155Y-87623713D01*
X87241757Y-87513872D01*
X87241757Y-87513869D01*
X87176095Y-87311782D01*
X87079624Y-87122449D01*
X87040270Y-87068282D01*
X87040269Y-87068282D01*
X86407962Y-87700590D01*
X86390925Y-87637007D01*
X86325099Y-87522993D01*
X86232007Y-87429901D01*
X86117993Y-87364075D01*
X86054408Y-87347037D01*
X86686716Y-86714728D01*
X86632547Y-86675373D01*
X86632547Y-86675372D01*
X86623500Y-86670763D01*
X86572706Y-86622788D01*
X86555912Y-86554966D01*
X86578451Y-86488832D01*
X86623508Y-86449793D01*
X86632816Y-86445051D01*
X86714220Y-86385908D01*
X86804786Y-86320109D01*
X86804788Y-86320106D01*
X86804792Y-86320104D01*
X86955104Y-86169792D01*
X86955106Y-86169788D01*
X86955109Y-86169786D01*
X87080048Y-85997820D01*
X87080047Y-85997820D01*
X87080051Y-85997816D01*
X87176557Y-85808412D01*
X87242246Y-85606243D01*
X87275500Y-85396287D01*
X87275500Y-85183713D01*
X87242246Y-84973757D01*
X87176557Y-84771588D01*
X87080051Y-84582184D01*
X87080049Y-84582181D01*
X87080048Y-84582179D01*
X86955109Y-84410213D01*
X86841569Y-84296673D01*
X86808084Y-84235350D01*
X86813068Y-84165658D01*
X86854940Y-84109725D01*
X86885915Y-84092810D01*
X87017331Y-84043796D01*
X87132546Y-83957546D01*
X87218796Y-83842331D01*
X87269091Y-83707483D01*
X87275500Y-83647873D01*
X87275499Y-81852128D01*
X87269091Y-81792517D01*
X87265288Y-81782321D01*
X87218797Y-81657671D01*
X87218793Y-81657664D01*
X87132547Y-81542455D01*
X87132544Y-81542452D01*
X87017335Y-81456206D01*
X87017328Y-81456202D01*
X86882482Y-81405908D01*
X86882483Y-81405908D01*
X86822883Y-81399501D01*
X86822881Y-81399500D01*
X86822873Y-81399500D01*
X86822864Y-81399500D01*
X85027129Y-81399500D01*
X85027123Y-81399501D01*
X84967516Y-81405908D01*
X84832671Y-81456202D01*
X84832664Y-81456206D01*
X84717455Y-81542452D01*
X84717452Y-81542455D01*
X84631206Y-81657664D01*
X84631202Y-81657671D01*
X84580908Y-81792517D01*
X84576650Y-81832127D01*
X84574501Y-81852123D01*
X84574500Y-81852135D01*
X84574500Y-83647870D01*
X84574501Y-83647876D01*
X84580908Y-83707483D01*
X84631202Y-83842328D01*
X84631206Y-83842335D01*
X84717452Y-83957544D01*
X84717455Y-83957547D01*
X84832664Y-84043793D01*
X84832671Y-84043797D01*
X84964082Y-84092810D01*
X85020016Y-84134681D01*
X85044433Y-84200145D01*
X85029582Y-84268418D01*
X85008431Y-84296673D01*
X84894889Y-84410215D01*
X84769951Y-84582179D01*
X84673444Y-84771585D01*
X84607753Y-84973760D01*
X84574500Y-85183713D01*
X84574500Y-85396286D01*
X84608516Y-85611055D01*
X84606877Y-85611314D01*
X84603738Y-85673883D01*
X84574342Y-85720710D01*
X83897680Y-86397372D01*
X83836357Y-86430857D01*
X83766665Y-86425873D01*
X83722318Y-86397372D01*
X83025657Y-85700711D01*
X82992172Y-85639388D01*
X82992689Y-85591245D01*
X82991484Y-85591055D01*
X83025500Y-85376286D01*
X83025500Y-85163713D01*
X82995414Y-84973760D01*
X82992246Y-84953757D01*
X82926557Y-84751588D01*
X82830051Y-84562184D01*
X82830049Y-84562181D01*
X82830048Y-84562179D01*
X82705109Y-84390213D01*
X82591569Y-84276673D01*
X82558084Y-84215350D01*
X82563068Y-84145658D01*
X82604940Y-84089725D01*
X82635915Y-84072810D01*
X82767331Y-84023796D01*
X82882546Y-83937546D01*
X82968796Y-83822331D01*
X83019091Y-83687483D01*
X83025500Y-83627873D01*
X83025499Y-81832128D01*
X83019091Y-81772517D01*
X83015110Y-81761844D01*
X82968797Y-81637671D01*
X82968793Y-81637664D01*
X82882547Y-81522455D01*
X82882544Y-81522452D01*
X82767335Y-81436206D01*
X82767328Y-81436202D01*
X82632482Y-81385908D01*
X82632483Y-81385908D01*
X82572883Y-81379501D01*
X82572881Y-81379500D01*
X82572873Y-81379500D01*
X82572864Y-81379500D01*
X80777129Y-81379500D01*
X80777123Y-81379501D01*
X80717516Y-81385908D01*
X80582671Y-81436202D01*
X80582664Y-81436206D01*
X80467455Y-81522452D01*
X80467452Y-81522455D01*
X80381206Y-81637664D01*
X80381202Y-81637671D01*
X80330908Y-81772517D01*
X80325126Y-81826306D01*
X80324501Y-81832123D01*
X80324500Y-81832135D01*
X76413372Y-81832135D01*
X76395451Y-81718997D01*
X76337085Y-81539362D01*
X76251329Y-81371059D01*
X76232883Y-81345670D01*
X76232882Y-81345669D01*
X75667137Y-81911414D01*
X75644333Y-81826306D01*
X75585090Y-81723694D01*
X75501306Y-81639910D01*
X75398694Y-81580667D01*
X75313584Y-81557861D01*
X75879328Y-80992116D01*
X75853933Y-80973666D01*
X75685637Y-80887914D01*
X75506002Y-80829548D01*
X75319447Y-80800000D01*
X75130553Y-80800000D01*
X74943997Y-80829548D01*
X74764362Y-80887914D01*
X74596060Y-80973669D01*
X74570670Y-80992116D01*
X74570669Y-80992116D01*
X75136415Y-81557861D01*
X75051306Y-81580667D01*
X74948694Y-81639910D01*
X74864910Y-81723694D01*
X74805667Y-81826306D01*
X74782861Y-81911414D01*
X74217116Y-81345669D01*
X74217116Y-81345670D01*
X74198669Y-81371060D01*
X74112914Y-81539362D01*
X74054548Y-81718997D01*
X74025000Y-81905552D01*
X74025000Y-82094447D01*
X74054548Y-82281002D01*
X74112914Y-82460637D01*
X74198666Y-82628933D01*
X74217116Y-82654328D01*
X74782861Y-82088584D01*
X74805667Y-82173694D01*
X74864910Y-82276306D01*
X74948694Y-82360090D01*
X75051306Y-82419333D01*
X75136415Y-82442138D01*
X74570669Y-83007882D01*
X74570670Y-83007883D01*
X74596061Y-83026331D01*
X74671983Y-83065015D01*
X74722779Y-83112989D01*
X74739575Y-83180810D01*
X74717038Y-83246945D01*
X74662323Y-83290397D01*
X74615690Y-83299500D01*
X74477130Y-83299500D01*
X74477123Y-83299501D01*
X74417516Y-83305908D01*
X74282671Y-83356202D01*
X74282664Y-83356206D01*
X74167455Y-83442452D01*
X74167452Y-83442455D01*
X74081206Y-83557664D01*
X74081202Y-83557671D01*
X74030908Y-83692517D01*
X74024501Y-83752116D01*
X74024501Y-83752123D01*
X74024500Y-83752135D01*
X59761758Y-83752135D01*
X59728033Y-76851577D01*
X68924500Y-76851577D01*
X68924500Y-77048422D01*
X68955290Y-77242826D01*
X69016117Y-77430029D01*
X69105476Y-77605405D01*
X69221172Y-77764646D01*
X69360354Y-77903828D01*
X69519595Y-78019524D01*
X69602455Y-78061743D01*
X69694970Y-78108882D01*
X69694972Y-78108882D01*
X69694975Y-78108884D01*
X69795317Y-78141487D01*
X69882173Y-78169709D01*
X70076578Y-78200500D01*
X70076583Y-78200500D01*
X70273422Y-78200500D01*
X70467826Y-78169709D01*
X70655025Y-78108884D01*
X70830405Y-78019524D01*
X70989646Y-77903828D01*
X71128828Y-77764646D01*
X71244524Y-77605405D01*
X71333884Y-77430025D01*
X71394709Y-77242826D01*
X71409123Y-77151821D01*
X71425500Y-77048422D01*
X71425500Y-76851577D01*
X71394709Y-76657173D01*
X71350130Y-76519975D01*
X71333884Y-76469975D01*
X71333882Y-76469972D01*
X71333882Y-76469970D01*
X71285237Y-76374500D01*
X71244524Y-76294595D01*
X71128828Y-76135354D01*
X70989646Y-75996172D01*
X70830405Y-75880476D01*
X70655029Y-75791117D01*
X70467826Y-75730290D01*
X70273422Y-75699500D01*
X70273417Y-75699500D01*
X70076583Y-75699500D01*
X70076578Y-75699500D01*
X69882173Y-75730290D01*
X69694970Y-75791117D01*
X69519594Y-75880476D01*
X69450776Y-75930476D01*
X69360354Y-75996172D01*
X69360352Y-75996174D01*
X69360351Y-75996174D01*
X69221174Y-76135351D01*
X69221174Y-76135352D01*
X69221172Y-76135354D01*
X69208453Y-76152860D01*
X69105476Y-76294594D01*
X69016117Y-76469970D01*
X68955290Y-76657173D01*
X68924500Y-76851577D01*
X59728033Y-76851577D01*
X59675252Y-66051713D01*
X59694609Y-65984581D01*
X59711565Y-65963434D01*
X61888681Y-63786319D01*
X61950004Y-63752834D01*
X61976362Y-63750000D01*
X188248638Y-63750000D01*
X188315677Y-63769685D01*
G37*
G04 #@! TD.AperFunction*
G04 #@! TD*
M02*
