M48
; DRILL file {KiCad 9.0.7} date 2026-02-11T10:04:32-0500
; FORMAT={-:-/ absolute / metric / decimal}
; #@! TF.CreationDate,2026-02-11T10:04:32-05:00
; #@! TF.GenerationSoftware,Kicad,Pcbnew,9.0.7
; #@! TF.FileFunction,Plated,1,2,PTH
FMAT,2
METRIC
; #@! TA.AperFunction,Plated,PTH,ViaDrill
T1C0.200
; #@! TA.AperFunction,Plated,PTH,ComponentDrill
T2C0.300
; #@! TA.AperFunction,Plated,PTH,ComponentDrill
T3C0.400
; #@! TA.AperFunction,Plated,PTH,ViaDrill
T4C0.450
; #@! TA.AperFunction,Plated,PTH,ComponentDrill
T5C0.500
; #@! TA.AperFunction,Plated,PTH,ViaDrill
T6C0.900
; #@! TA.AperFunction,Plated,PTH,ComponentDrill
T7C0.900
; #@! TA.AperFunction,Plated,PTH,ComponentDrill
T8C0.991
; #@! TA.AperFunction,Plated,PTH,ComponentDrill
T9C1.000
; #@! TA.AperFunction,Plated,PTH,ComponentDrill
T10C1.100
; #@! TA.AperFunction,Plated,PTH,ComponentDrill
T11C1.400
; #@! TA.AperFunction,Plated,PTH,ComponentDrill
T12C1.500
; #@! TA.AperFunction,Plated,PTH,ComponentDrill
T13C1.600
%
G90
G05
T1
X62.675Y-108.25
X62.925Y-104.5
X63.925Y-101.5
X64.018Y-106.135
X64.578Y-106.987
X65.175Y-92.5
X65.175Y-109.75
X65.525Y-96.1
X65.675Y-111.5
X65.724Y-110.463
X65.91Y-95.287
X67.625Y-104.1
X67.675Y-102.0
X69.925Y-111.25
X70.425Y-102.5
X70.775Y-99.75
X71.675Y-103.0
X74.151Y-105.783
X74.675Y-105.051
X75.805Y-105.131
X76.425Y-99.75
X76.625Y-106.45
X76.925Y-111.25
X76.984Y-105.195
X79.39Y-105.854
X79.675Y-90.25
X80.175Y-105.25
X81.175Y-111.25
X83.475Y-98.0
X83.525Y-102.0
X84.875Y-92.25
X85.675Y-99.0
X85.925Y-90.98
X87.175Y-130.75
X89.425Y-92.0
X90.175Y-105.75
X90.675Y-95.5
X91.425Y-89.98
X91.425Y-100.5
X91.925Y-102.75
X92.05Y-101.385
X93.175Y-91.48
X93.425Y-126.0
X95.925Y-111.25
X96.925Y-107.25
X98.015Y-102.674
X98.675Y-95.57
X98.675Y-99.0
X98.675Y-101.25
X100.675Y-117.0
X100.925Y-111.25
X102.675Y-101.25
X102.675Y-102.25
X102.689Y-99.898
X103.175Y-95.73
X103.575Y-102.25
X103.675Y-74.75
X103.925Y-97.25
X104.175Y-75.75
X104.425Y-105.0
X104.675Y-117.0
X105.525Y-76.25
X107.425Y-107.5
X107.425Y-108.75
X107.675Y-93.5
X107.923Y-74.161
X107.925Y-105.0
X107.936Y-73.261
X108.175Y-111.25
X108.425Y-116.8
X109.175Y-73.0
X109.425Y-113.5
X109.425Y-117.75
X113.101Y-119.475
X114.247Y-78.805
X115.501Y-128.25
X116.918Y-131.743
X119.692Y-93.18
X122.351Y-133.975
X122.851Y-125.81
X129.175Y-100.5
X129.192Y-94.18
X158.425Y-105.75
X186.35Y-68.75
X188.755Y-73.117
X196.85Y-74.462
X198.619Y-67.944
X233.75Y-107.5
T2
X87.875Y-123.4
X87.875Y-124.7
X87.875Y-126.0
X87.875Y-127.3
X89.175Y-123.4
X89.175Y-124.7
X89.175Y-126.0
X89.175Y-127.3
X117.551Y-123.225
X117.551Y-124.525
X117.551Y-125.825
X117.551Y-127.125
X118.851Y-123.225
X118.851Y-124.525
X118.851Y-125.825
X118.851Y-127.125
T3
X61.925Y-97.75
X61.925Y-98.5
X62.825Y-97.75
X62.825Y-98.5
X63.725Y-97.75
X64.175Y-98.5
X64.625Y-97.75
X65.075Y-98.5
X65.525Y-97.75
X65.975Y-98.5
X66.875Y-97.75
X66.875Y-98.5
X67.775Y-97.75
X67.775Y-98.5
T4
X62.925Y-124.5
X64.925Y-125.5
X71.925Y-125.0
X74.675Y-126.75
X82.425Y-120.5
X90.851Y-133.541
X97.925Y-123.25
X97.925Y-128.5
X109.351Y-129.7
X110.675Y-107.25
X127.675Y-122.25
X127.675Y-129.25
T6
X155.675Y-77.0
X161.925Y-77.0
X168.175Y-77.0
X174.425Y-77.0
X180.675Y-77.0
X204.712Y-98.212
X213.25Y-98.212
X221.925Y-98.212
T7
X75.225Y-82.0
X75.225Y-84.5
T9
X81.675Y-82.73
X81.675Y-85.27
X81.675Y-87.81
X85.925Y-82.75
X85.925Y-85.29
X85.925Y-87.83
X86.135Y-108.73
X88.675Y-108.73
X90.885Y-87.73
X91.215Y-108.73
X93.425Y-87.73
X93.755Y-108.73
X95.965Y-87.73
X98.505Y-87.73
T10
X204.25Y-84.69
X204.25Y-92.31
X221.75Y-84.69
X221.75Y-92.31
T11
X214.635Y-104.93
X214.635Y-110.01
X214.635Y-114.0
X214.635Y-119.08
X217.175Y-107.47
X217.175Y-116.54
X219.715Y-104.93
X219.715Y-110.01
X219.715Y-114.0
X219.715Y-119.08
X233.275Y-82.2
X233.275Y-87.3
X235.825Y-84.75
X238.375Y-82.2
X238.375Y-87.3
T12
X207.55Y-84.86
X218.45Y-84.86
T13
X125.27Y-107.25
X137.97Y-107.25
X167.575Y-69.5
X180.275Y-69.5
T5
G00X62.975Y-96.695
M15
G01X61.975Y-96.695
M16
G05
G00X62.975Y-99.555
M15
G01X61.975Y-99.555
M16
G05
G00X67.775Y-96.695
M15
G01X66.775Y-96.695
M16
G05
G00X67.775Y-99.555
M15
G01X66.775Y-99.555
M16
G05
T8
G00X62.601Y-129.027
M15
G01X62.601Y-127.02
M16
G05
G00X64.598Y-132.723
M15
G01X66.604Y-132.723
M16
G05
G00X68.601Y-129.027
M15
G01X68.601Y-127.02
M16
G05
M30
